SplineFontDB: 3.0
FontName: Junicode-BoldItalic
FullName: Junicode Bold Italic
FamilyName: Junicode
Weight: Bold
Copyright: Copyright (c) 2003-2012 by Peter S. Baker
Version: 0.7.8
ItalicAngle: -11
UnderlinePosition: -100
UnderlineWidth: 70
Ascent: 1491
Descent: 557
LayerCount: 2
Layer: 0 1 "Back"  1
Layer: 1 1 "Fore"  0
XUID: [102185 1589297001 9746992]
FSType: 0
OS2Version: 0
OS2_WeightWidthSlopeOnly: 0
OS2_UseTypoMetrics: 1
CreationTime: 1159967861
ModificationTime: 1356639064
PfmFamily: 17
TTFWeight: 700
TTFWidth: 5
LineGap: 385
VLineGap: 0
Panose: 2 4 8 2 0 0 0 0 0 0
OS2TypoAscent: 2100
OS2TypoAOffset: 0
OS2TypoDescent: -845
OS2TypoDOffset: 0
OS2TypoLinegap: 385
OS2WinAscent: 2100
OS2WinAOffset: 0
OS2WinDescent: 845
OS2WinDOffset: 0
HheadAscent: 2100
HheadAOffset: 0
HheadDescent: -845
HheadDOffset: 0
OS2SubXSize: 409
OS2SubYSize: 409
OS2SubXOff: 0
OS2SubYOff: 409
OS2SupXSize: 409
OS2SupYSize: 409
OS2SupXOff: 0
OS2SupYOff: 409
OS2StrikeYSize: 102
OS2StrikeYPos: 530
OS2FamilyClass: 256
OS2Vendor: 'psbk'
Lookup: 4 0 0 "'ccmp' Glyph Composition Decomposition"  {"'ccmp' Glyph Composition Decomposition subtable"  } ['ccmp' ('DFLT' <'dflt' > 'latn' <'ISL ' 'dflt' > ) ]
Lookup: 5 0 0 "'ccmp' Contextual dot stripper"  {"'ccmp' Contextual dot stripper-1"  } ['ccmp' ('DFLT' <'dflt' > 'latn' <'ISL ' 'dflt' > ) ]
Lookup: 1 0 0 "'sups' Superscript in Latin lookup 4"  {"'sups' Superscript in Latin lookup 4"  } ['sups' ('DFLT' <'dflt' > 'latn' <'ISL ' 'dflt' > ) ]
Lookup: 1 0 0 "'onum' Oldstyle Figures in Latin lookup 10"  {"'onum' Oldstyle Figures in Latin lookup 10"  } ['onum' ('DFLT' <'dflt' > 'latn' <'ISL ' 'dflt' > ) ]
Lookup: 1 0 0 "'swsh' Swash in Latin lookup 17"  {"'swsh' Swash in Latin lookup 17-1" ("swash" ) } ['swsh' ('DFLT' <'dflt' > 'latn' <'ISL ' 'dflt' > ) ]
Lookup: 1 0 0 "'locl' Localized Forms in Icelandic"  {"'locl' Localized Forms in Icelandic-1"  } ['locl' ('latn' <'ISL ' > ) ]

StartChar: exclam
Encoding: 33 33 1
Width: 569
Flags: MW
LayerCount: 2
Fore
SplineSet
699.5 1230.5 m 128,-1,1
 684 1190 684 1190 541 853 c 128,-1,2
 398 516 398 516 369 442 c 0,3,4
 360 422 360 422 317.5 422 c 128,-1,5
 275 422 275 422 272 446 c 1,6,-1
 411 1165 l 18,7,8
 426 1242 426 1242 441 1284.5 c 128,-1,9
 456 1327 456 1327 503.5 1363 c 128,-1,10
 551 1399 551 1399 598 1399 c 0,11,12
 715 1399 715 1399 715 1307 c 0,13,0
 715 1271 715 1271 699.5 1230.5 c 128,-1,1
385 123 m 256,14,15
 384 57 384 57 334.5 15 c 128,-1,16
 285 -27 285 -27 220 -27 c 128,-1,17
 155 -27 155 -27 111.5 22 c 128,-1,18
 68 71 68 71 68 135.5 c 128,-1,19
 68 200 68 200 118 244 c 128,-1,20
 168 288 168 288 233.5 288 c 128,-1,21
 299 288 299 288 342 238.5 c 128,-1,22
 385 189 385 189 385 123 c 256,14,15
EndSplineSet
Comment: "last+AD0A-22" 
Colour: ffffff
EndChar

StartChar: quotedbl
Encoding: 34 34 2
Width: 794
Flags: MW
LayerCount: 2
Fore
SplineSet
856 944 m 1,0,-1
 768 944 l 1,1,2
 772 973 772 973 788.5 1165.5 c 128,-1,3
 805 1358 805 1358 813 1380 c 0,4,5
 849 1480 849 1480 965 1480 c 128,-1,6
 1081 1480 1081 1480 1081 1412 c 0,7,8
 1081 1392 1081 1392 1073 1367 c 128,-1,9
 1065 1342 1065 1342 973.5 1171.5 c 128,-1,10
 882 1001 882 1001 856 944 c 1,0,-1
454 944 m 1,11,-1
 366 944 l 1,12,13
 370 973 370 973 386.5 1165.5 c 128,-1,14
 403 1358 403 1358 411 1380 c 0,15,16
 447 1480 447 1480 563 1480 c 128,-1,17
 679 1480 679 1480 679 1412 c 0,18,19
 679 1392 679 1392 671 1367 c 128,-1,20
 663 1342 663 1342 571.5 1171.5 c 128,-1,21
 480 1001 480 1001 454 944 c 1,11,-1
EndSplineSet
Comment: "last+AD0A-21" 
Colour: ffffff
EndChar

StartChar: numbersign
Encoding: 35 35 3
Width: 1015
Flags: MW
LayerCount: 2
Fore
SplineSet
551 10 m 1,0,-1
 416 10 l 1,1,-1
 580 381 l 1,2,-1
 399 381 l 1,3,-1
 236 10 l 1,4,-1
 100 10 l 1,5,-1
 264 381 l 1,6,-1
 72 381 l 1,7,-1
 94 514 l 1,8,-1
 324 514 l 1,9,-1
 451 803 l 1,10,-1
 256 803 l 1,11,-1
 281 934 l 1,12,-1
 510 934 l 1,13,-1
 647 1249 l 1,14,-1
 782 1249 l 1,15,-1
 643 934 l 1,16,-1
 823 934 l 1,17,-1
 963 1249 l 1,18,-1
 1098 1249 l 1,19,-1
 958 934 l 1,20,-1
 1137 934 l 1,21,-1
 1114 803 l 1,22,-1
 901 803 l 1,23,-1
 774 514 l 1,24,-1
 952 514 l 1,25,-1
 930 381 l 1,26,-1
 715 381 l 1,27,-1
 551 10 l 1,0,-1
639 514 m 1,28,-1
 766 803 l 1,29,-1
 586 803 l 1,30,-1
 459 514 l 1,31,-1
 639 514 l 1,28,-1
EndSplineSet
Comment: "last+AD0A-31" 
Colour: ffffff
EndChar

StartChar: dollar
Encoding: 36 36 4
Width: 995
Flags: MW
LayerCount: 2
Fore
SplineSet
1047 1303 m 1,0,1
 1047 1174 1047 1174 1024 1042 c 0,2,3
 1019 1013 1019 1013 974.5 1013 c 128,-1,4
 930 1013 930 1013 928 1029 c 1,5,-1
 926 1070 l 2,6,7
 919 1206 919 1206 793 1241 c 1,8,-1
 674 797 l 1,9,10
 829 748 829 748 892.5 683 c 128,-1,11
 956 618 956 618 956 514 c 0,12,13
 956 420 956 420 914 316 c 128,-1,14
 872 212 872 212 756 106 c 128,-1,15
 640 0 640 0 457 -16 c 1,16,-1
 420 -150 l 2,17,18
 416 -165 416 -165 353.5 -165 c 128,-1,19
 291 -165 291 -165 295 -150 c 2,20,-1
 332 -14 l 1,21,22
 232 -5 232 -5 142 42 c 2,23,-1
 76 76 l 1,24,-1
 74 136 l 2,25,26
 73.75 144.333 73.75 144.333 73.75 152.938 c 0,27,28
 73.75 247.583 73.75 247.583 104 375 c 0,29,30
 110 400 110 400 156.5 400 c 128,-1,31
 203 400 203 400 199 378 c 0,32,33
 194 348 194 348 194 325 c 0,34,35
 194 231 194 231 240.5 171 c 128,-1,36
 287 111 287 111 358 88 c 1,37,-1
 492 580 l 1,38,39
 330 649 330 649 287 710.5 c 128,-1,40
 244 772 244 772 244 864 c 0,41,42
 244 1039 244 1039 373 1173 c 128,-1,43
 502 1307 502 1307 692 1329 c 1,44,-1
 729 1466 l 2,45,46
 733 1482 733 1482 795.5 1482 c 128,-1,47
 858 1482 858 1482 854 1466 c 2,48,-1
 817 1329 l 1,49,50
 914 1324 914 1324 949 1312.5 c 128,-1,51
 984 1301 984 1301 1007 1301 c 128,-1,52
 1030 1301 1030 1301 1047 1303 c 1,0,1
670 1245 m 1,53,54
 580 1225 580 1225 520.5 1137.5 c 128,-1,55
 461 1050 461 1050 461 972 c 0,56,57
 461 887 461 887 561 840 c 1,58,-1
 670 1245 l 1,53,54
481 74 m 1,59,60
 587 86 587 86 656 181 c 128,-1,61
 725 276 725 276 725 374 c 256,62,63
 725 473 725 473 604 532 c 1,64,-1
 481 74 l 1,59,60
EndSplineSet
Substitution2: "'onum' Oldstyle Figures in Latin lookup 10" dollar.oldstyle
Comment: "last+AD0A-62" 
Colour: ffffff
EndChar

StartChar: percent
Encoding: 37 37 5
Width: 1816
Flags: MW
LayerCount: 2
Fore
SplineSet
1778 524 m 0,0,1
 1778 410 1778 410 1719 281 c 0,2,3
 1661 152 1661 152 1544 53 c 0,4,5
 1427 -45 1427 -45 1290 -45 c 0,6,7
 1141 -45 1141 -45 1064 42 c 128,-1,8
 987 129 987 129 987 266 c 0,9,10
 987 436 987 436 1159 601 c 128,-1,11
 1331 766 1331 766 1520 766 c 0,12,13
 1649 766 1649 766 1713 698 c 0,14,15
 1778 631 1778 631 1778 524 c 0,0,1
1702 1421 m 1,16,-1
 444 -121 l 1,17,-1
 279 -121 l 1,18,-1
 1309 1135 l 1,19,20
 1274 1116 1274 1116 1206.5 1104 c 128,-1,21
 1139 1092 1139 1092 1092 1092 c 0,22,23
 1042 1092 1042 1092 985 1102 c 1,24,25
 983 987 983 987 923.5 859 c 128,-1,26
 864 731 864 731 748.5 635 c 128,-1,27
 633 539 633 539 498 539 c 0,28,29
 348 539 348 539 271.5 626 c 128,-1,30
 195 713 195 713 195 848 c 0,31,32
 195 1018 195 1018 366 1184 c 128,-1,33
 537 1350 537 1350 725 1350 c 0,34,35
 928 1350 928 1350 973 1190 c 1,36,37
 1022 1178 1022 1178 1077 1178 c 0,38,39
 1341 1178 1341 1178 1565 1421 c 1,40,-1
 1702 1421 l 1,16,-1
1665 532 m 0,41,42
 1665 600 1665 600 1635 640 c 0,43,44
 1606 680 1606 680 1550 680 c 0,45,46
 1458 680 1458 680 1326 489.5 c 128,-1,47
 1194 299 1194 299 1194 190 c 0,48,49
 1194 127 1194 127 1224.5 84 c 128,-1,50
 1255 41 1255 41 1309 41 c 0,51,52
 1442 41 1442 41 1553 215 c 0,53,54
 1665 389 1665 389 1665 532 c 0,41,42
872 1116 m 0,55,56
 872 1120 872 1120 871 1129.5 c 128,-1,57
 870 1139 870 1139 870 1143 c 1,58,59
 780 1186 780 1186 733 1257 c 1,60,61
 637 1231 637 1231 519 1052.5 c 128,-1,62
 401 874 401 874 401 774 c 0,63,64
 401 711 401 711 431 668 c 128,-1,65
 461 625 461 625 514 625 c 0,66,67
 649 625 649 625 760.5 798 c 128,-1,68
 872 971 872 971 872 1116 c 0,55,56
EndSplineSet
EndChar

StartChar: ampersand
Encoding: 38 38 6
Width: 1658
Flags: MW
LayerCount: 2
Fore
SplineSet
104 401 m 256,0,1
 104 503 104 503 153.5 630.5 c 128,-1,2
 203 758 203 758 348.5 887 c 128,-1,3
 494 1016 494 1016 643 1016 c 256,4,5
 694 1016 694 1016 731 984 c 128,-1,6
 768 952 768 952 778 911 c 1,7,8
 887 997 887 997 992.5 1133.5 c 128,-1,9
 1098 1270 1098 1270 1098 1354 c 0,10,11
 1098 1372 1098 1372 1074.5 1398.5 c 128,-1,12
 1051 1425 1051 1425 1051 1464 c 256,13,14
 1051 1503 1051 1503 1084.5 1538 c 128,-1,15
 1118 1573 1118 1573 1177 1573 c 256,16,17
 1235 1573 1235 1573 1267.5 1530 c 128,-1,18
 1300 1487 1300 1487 1300 1432 c 0,19,20
 1300 1344 1300 1344 1219.5 1226 c 128,-1,21
 1139 1108 1139 1108 1031.5 1005.5 c 128,-1,22
 924 903 924 903 770 782.5 c 128,-1,23
 616 662 616 662 519 594 c 2,24,-1
 315 455 l 1,25,26
 315 318 315 318 406.5 236 c 128,-1,27
 498 154 498 154 651 154 c 256,28,29
 895 154 895 154 1067 361.5 c 128,-1,30
 1239 569 1239 569 1247 819 c 1,31,32
 1220 842 1220 842 1164 842 c 256,33,34
 1108 842 1108 842 1060 812 c 128,-1,35
 1012 782 1012 782 1012 757 c 256,36,37
 1012 731 1012 731 1034.5 715.5 c 128,-1,38
 1057 700 1057 700 1079.5 681 c 128,-1,39
 1102 662 1102 662 1102 623 c 256,40,41
 1102 584 1102 584 1070 560.5 c 128,-1,42
 1038 537 1038 537 992 537 c 256,43,44
 946 537 946 537 909 568.5 c 128,-1,45
 872 600 872 600 872 651 c 0,46,47
 872 770 872 770 994 877.5 c 128,-1,48
 1116 985 1116 985 1253 985 c 256,49,50
 1413 985 1413 985 1529 803 c 0,51,52
 1571 737 1571 737 1591 737 c 256,53,54
 1612 737 1612 737 1612 776 c 128,-1,55
 1612 815 1612 815 1596.5 841 c 128,-1,56
 1581 867 1581 867 1581 887 c 0,57,58
 1581 928 1581 928 1615 950.5 c 128,-1,59
 1649 973 1649 973 1694 973 c 256,60,61
 1739 973 1739 973 1767.5 927 c 128,-1,62
 1796 881 1796 881 1796 834 c 256,63,64
 1796 787 1796 787 1787 759 c 128,-1,65
 1778 731 1778 731 1754.5 715.5 c 128,-1,66
 1731 700 1731 700 1714.5 693 c 128,-1,67
 1698 686 1698 686 1657 677 c 128,-1,68
 1616 668 1616 668 1604.5 663.5 c 128,-1,69
 1593 659 1593 659 1551 642 c 128,-1,70
 1509 625 1509 625 1485 625 c 256,71,72
 1460 625 1460 625 1434 655 c 0,73,74
 1397 702 1397 702 1313 780 c 1,75,76
 1323 723 1323 723 1323 678 c 256,77,78
 1323 527 1323 527 1243.5 370.5 c 128,-1,79
 1164 214 1164 214 996 92.5 c 128,-1,80
 828 -29 828 -29 608 -29 c 256,81,82
 383 -29 383 -29 243.5 82.5 c 128,-1,83
 104 194 104 194 104 401 c 256,0,1
571 737 m 1,84,85
 589 784 589 784 590 818 c 256,86,87
 590 852 590 852 568.5 871.5 c 128,-1,88
 547 891 547 891 526 891 c 256,89,90
 446 891 446 891 382.5 759 c 128,-1,91
 319 627 319 627 315 532 c 1,92,93
 381 577 381 577 571 737 c 1,84,85
EndSplineSet
Substitution2: "'ss02' Style Set 2 in Latin lookup 7" uni204A
EndChar

StartChar: quotesingle
Encoding: 39 39 7
Width: 440
Flags: MW
LayerCount: 2
Fore
SplineSet
668 1366 m 0,0,1
 659 1343 659 1343 568 1175 c 0,2,3
 477 1006 477 1006 453 944 c 1,4,-1
 358 944 l 1,5,6
 373 1016 373 1016 386 1186 c 128,-1,7
 399 1356 399 1356 408 1380 c 0,8,9
 442 1481 442 1481 563 1481 c 0,10,11
 675.648 1481 675.648 1481 675.648 1408.63 c 0,12,13
 675.648 1389.77 675.648 1389.77 668 1366 c 0,0,1
EndSplineSet
EndChar

StartChar: parenleft
Encoding: 40 40 8
Width: 694
Flags: MW
LayerCount: 2
Fore
SplineSet
932 1479 m 0,0,1
 729.75 1340 729.75 1340 608.5 1150.75 c 128,-1,2
 487.25 961.5 487.25 961.5 421.359 747.751 c 128,-1,3
 355.468 534.001 355.468 534.001 355.468 291.6 c 3,4,5
 355.468 144.474 355.468 144.474 388.691 -4.46292 c 128,-1,6
 421.915 -153.4 421.915 -153.4 506 -307 c 0,7,8
 514.657 -322.813 514.657 -322.813 493 -341 c 0,9,10
 477.521 -353.17 477.521 -353.17 467.65 -353.17 c 3,11,12
 462.587 -353.17 462.587 -353.17 459 -350 c 0,13,14
 313.915 -221.4 313.915 -221.4 236.839 -14.554 c 128,-1,15
 159.763 192.291 159.763 192.291 159.763 419.6 c 3,16,17
 159.763 625.736 159.763 625.736 236.381 840.368 c 128,-1,18
 313 1055 313 1055 483 1235 c 128,-1,19
 653 1415 653 1415 893 1524 c 0,20,21
 896.858 1526.06 896.858 1526.06 900.894 1526.06 c 3,22,23
 913.59 1526.06 913.59 1526.06 928 1509 c 0,24,25
 937.754 1496.66 937.754 1496.66 937.754 1488.41 c 3,26,27
 937.754 1482.72 937.754 1482.72 932 1479 c 0,0,1
EndSplineSet
EndChar

StartChar: parenright
Encoding: 41 41 9
Width: 694
Flags: MW
LayerCount: 2
Fore
SplineSet
354 1522 m 0,0,1
 485 1403 485 1403 568.16 1204.78 c 128,-1,2
 651.32 1006.56 651.32 1006.56 651.32 778.033 c 259,3,4
 651.32 549.505 651.32 549.505 575.66 332.253 c 0,5,6
 467.267 21.0102 467.267 21.0102 180 -202 c 0,7,8
 104 -260 104 -260 48 -288.5 c 128,-1,9
 -8 -317 -8 -317 -45.0645 -336.532 c 128,-1,10
 -82.129 -356.065 -82.129 -356.065 -90.9032 -356.065 c 259,11,12
 -99.6774 -356.065 -99.6774 -356.065 -113.798 -340.721 c 128,-1,13
 -127.919 -325.378 -127.919 -325.378 -127.919 -317.919 c 259,14,15
 -127.919 -310.459 -127.919 -310.459 -121 -307 c 0,16,17
 84 -190 84 -190 240 78 c 0,18,19
 459.513 457.405 459.513 457.405 459.513 880.06 c 259,20,21
 459.513 1239.34 459.513 1239.34 307 1479 c 0,22,23
 299 1493 299 1493 317 1509.17 c 128,-1,24
 335 1525.33 335 1525.33 342.5 1525.33 c 259,25,26
 350 1525.33 350 1525.33 354 1522 c 0,0,1
EndSplineSet
EndChar

StartChar: asterisk
Encoding: 42 42 10
Width: 829
Flags: MW
LayerCount: 2
Fore
SplineSet
733 872 m 1,0,-1
 657 776 l 1,1,-1
 446 915 l 1,2,-1
 387 641 l 1,3,-1
 276 641 l 1,4,-1
 336 915 l 1,5,-1
 70 778 l 1,6,-1
 35 874 l 1,7,-1
 301 1012 l 1,8,-1
 94 1147 l 1,9,-1
 170 1243 l 1,10,-1
 377 1108 l 1,11,-1
 436 1384 l 1,12,-1
 547 1384 l 1,13,-1
 487 1108 l 1,14,-1
 758 1247 l 1,15,-1
 793 1151 l 1,16,-1
 522 1012 l 1,17,-1
 733 872 l 1,0,-1
EndSplineSet
EndChar

StartChar: plus
Encoding: 43 43 11
Width: 1064
Flags: MW
LayerCount: 2
Fore
SplineSet
944 362 m 1,0,-1
 625 362 l 1,1,-1
 625 0 l 1,2,-1
 444 0 l 1,3,-1
 444 362 l 1,4,-1
 123 362 l 1,5,-1
 123 510 l 1,6,-1
 444 510 l 1,7,-1
 444 836 l 1,8,-1
 625 836 l 1,9,-1
 625 510 l 1,10,-1
 944 510 l 1,11,-1
 944 362 l 1,0,-1
EndSplineSet
EndChar

StartChar: comma
Encoding: 44 44 12
Width: 557
Flags: MW
LayerCount: 2
Fore
SplineSet
428 168 m 0,0,1
 428 92 428 92 376 9 c 128,-1,2
 324 -74 324 -74 249 -137.5 c 128,-1,3
 174 -201 174 -201 106.5 -244 c 128,-1,4
 39 -287 39 -287 -2 -303 c 1,5,6
 -18 -313 -18 -313 -33.5 -284.5 c 128,-1,7
 -49 -256 -49 -256 -35 -244 c 0,8,9
 154 -94 154 -94 188 14 c 0,10,11
 197 47 197 47 174 55 c 1,12,13
 96 98 96 98 96 180 c 0,14,15
 96 240 96 240 147.5 286 c 128,-1,16
 199 332 199 332 268.5 332 c 128,-1,17
 338 332 338 332 383 289 c 128,-1,18
 428 246 428 246 428 168 c 0,0,1
EndSplineSet
EndChar

StartChar: hyphen
Encoding: 45 45 13
Width: 864
Flags: MW
LayerCount: 2
Fore
SplineSet
815 610 m 2,0,1
 832.153 610 832.153 610 832.153 583.564 c 0,2,3
 832.153 568.388 832.153 568.388 826.5 544.5 c 0,4,5
 811 479 811 479 780 479 c 2,6,-1
 172 479 l 2,7,8
 152.212 479 152.212 479 152.212 509.497 c 0,9,10
 152.212 523.694 152.212 523.694 156.5 544.5 c 0,11,12
 170 610 170 610 205 610 c 2,13,-1
 815 610 l 2,0,1
EndSplineSet
EndChar

StartChar: period
Encoding: 46 46 14
Width: 557
Flags: MW
LayerCount: 2
Fore
SplineSet
406 119 m 0,0,1
 406 55 406 55 362 14 c 0,2,3
 319 -27 319 -27 256 -27 c 0,4,5
 197 -27 197 -27 144 11 c 0,6,7
 92 49 92 49 92 133 c 0,8,9
 92 180 92 180 130 229 c 0,10,11
 168 279 168 279 256 279 c 0,12,13
 317 279 317 279 361 234 c 0,14,15
 406 190 406 190 406 119 c 0,0,1
EndSplineSet
EndChar

StartChar: slash
Encoding: 47 47 15
Width: 530
Flags: MW
LayerCount: 2
Fore
SplineSet
793 1425 m 2,0,-1
 178 -16 l 1,1,2
 171.529 -24.4498 171.529 -24.4498 155.843 -24.4498 c 3,3,4
 147.291 -24.4498 147.291 -24.4498 136 -22 c 0,5,6
 104 -14 104 -14 74 5 c 0,7,8
 48.0483 21.2555 48.0483 21.2555 48.0483 33.5795 c 3,9,10
 48.0483 36.3986 48.0483 36.3986 49 39 c 2,11,-1
 664 1481 l 2,12,13
 668.822 1492.75 668.822 1492.75 686.437 1492.75 c 259,14,15
 705.348 1492.75 705.348 1492.75 739 1480 c 0,16,17
 794.841 1457.8 794.841 1457.8 794.841 1433.4 c 3,18,19
 794.841 1429.23 794.841 1429.23 793 1425 c 2,0,-1
EndSplineSet
EndChar

StartChar: zero
Encoding: 48 48 16
Width: 956
Flags: MW
LayerCount: 2
Fore
SplineSet
84 345 m 256,0,1
 84 565 84 565 178.5 809 c 128,-1,2
 273 1053 273 1053 415.5 1193 c 128,-1,3
 558 1333 558 1333 754 1333 c 256,4,5
 918 1333 918 1333 988.5 1227.5 c 128,-1,6
 1059 1122 1059 1122 1059 958 c 256,7,8
 1059 752 1059 752 973.5 520 c 128,-1,9
 888 288 888 288 733.5 136 c 128,-1,10
 579 -16 579 -16 391 -16 c 256,11,12
 225 -16 225 -16 154.5 87 c 128,-1,13
 84 190 84 190 84 345 c 256,0,1
307 264 m 256,14,15
 308 76 308 76 406 76 c 256,16,17
 535 76 535 76 619.5 237.5 c 128,-1,18
 704 399 704 399 771 669.5 c 128,-1,19
 838 940 838 940 838 1080 c 256,20,21
 838 1242 838 1242 731 1243 c 256,22,23
 624 1243 624 1243 535 1087.5 c 128,-1,24
 446 932 446 932 376.5 664.5 c 128,-1,25
 307 397 307 397 307 264 c 256,14,15
EndSplineSet
Substitution2: "'onum' Oldstyle Figures in Latin lookup 10" zero.oldstyle
EndChar

StartChar: one
Encoding: 49 49 17
Width: 956
Flags: MW
LayerCount: 2
Fore
SplineSet
692 -8 m 0,0,1
 610 0 610 0 412 0 c 0,2,3
 207 0 207 0 125 -8 c 0,4,5
 116.833 -8 116.833 -8 116.833 4.93056 c 0,6,7
 116.833 14.1667 116.833 14.1667 121 30 c 0,8,9
 131 68 131 68 145 68 c 0,10,11
 249 68 249 68 297.5 113 c 128,-1,12
 346 158 346 158 381 281 c 2,13,-1
 596 1087 l 2,14,15
 606 1120 606 1120 602 1134.5 c 128,-1,16
 598 1149 598 1149 575 1141 c 0,17,18
 446 1094 446 1094 412 1081 c 0,19,20
 394 1075 394 1075 388.5 1104 c 128,-1,21
 383 1133 383 1133 406 1141 c 0,22,23
 594 1213 594 1213 811 1354 c 0,24,25
 844 1374 844 1374 858 1374 c 0,26,27
 878 1374 878 1374 890.5 1360 c 0,28,29
 897.444 1352.22 897.444 1352.22 897.444 1341.05 c 0,30,31
 897.444 1332.11 897.444 1332.11 893 1321 c 0,32,33
 864 1247 864 1247 844 1161 c 2,34,-1
 608 283 l 2,35,36
 585.928 216.153 585.928 216.153 585.928 169.788 c 0,37,38
 585.928 142.631 585.928 142.631 593.5 122.5 c 0,39,40
 614 68 614 68 713 68 c 0,41,42
 729 68 729 68 718.5 30 c 128,-1,43
 708 -8 708 -8 692 -8 c 0,0,1
EndSplineSet
Substitution2: "'onum' Oldstyle Figures in Latin lookup 10" one.oldstyle
Substitution2: "'sups' Superscript in Latin lookup 4" uni00B9
EndChar

StartChar: two
Encoding: 50 50 18
Width: 956
Flags: MW
LayerCount: 2
Fore
SplineSet
885 260 m 2,0,-1
 725 31 l 2,1,2
 696 -8 696 -8 635 -8 c 0,3,4
 604 -8 604 -8 524 -4 c 128,-1,5
 444 0 444 0 311 0 c 0,6,7
 182 0 182 0 83 -4 c 128,-1,8
 -16 -8 -16 -8 -33 -8 c 1,9,10
 -74.8259 -8 -74.8259 -8 -74.8259 27.5667 c 3,11,12
 -74.8259 52.83 -74.8259 52.83 -43 80 c 0,13,14
 78 174 78 174 245 327.5 c 0,15,16
 423 491 423 491 543 631 c 0,17,18
 778 905 778 905 778 1049 c 3,19,20
 778 1110 778 1110 745.5 1147 c 128,-1,21
 713 1184 713 1184 651 1184 c 0,22,23
 504 1184 504 1184 365 1020 c 0,24,25
 351 1000 351 1000 322 1018 c 128,-1,26
 293 1036 293 1036 309 1055 c 0,27,28
 403 1174 403 1174 524 1253.5 c 128,-1,29
 645 1333 645 1333 772 1333 c 0,30,31
 897 1333 897 1333 968.5 1264.5 c 128,-1,32
 1040 1196 1040 1196 1040 1087 c 0,33,34
 1040 962 1040 962 960.5 847.5 c 128,-1,35
 881 733 881 733 752 610 c 0,36,37
 678 538 678 538 590 464.5 c 128,-1,38
 502 391 502 391 390.5 303 c 128,-1,39
 279 215 279 215 250 193 c 1,40,-1
 545 193 l 2,41,42
 649 193 649 193 703.5 209 c 128,-1,43
 758 225 758 225 807 291 c 0,44,45
 821 311 821 311 860 295.5 c 128,-1,46
 899 280 899 280 885 260 c 2,0,-1
EndSplineSet
Substitution2: "'onum' Oldstyle Figures in Latin lookup 10" two.oldstyle
Substitution2: "'sups' Superscript in Latin lookup 4" uni00B2
EndChar

StartChar: three
Encoding: 51 51 19
Width: 956
Flags: MW
LayerCount: 2
Fore
SplineSet
283 -23 m 0,0,1
 183 -23 183 -23 97.5 9 c 128,-1,2
 12 41 12 41 12 117 c 0,3,4
 12 170 12 170 57 205 c 128,-1,5
 102 240 102 240 158 240 c 0,6,7
 195 240 195 240 219.5 214 c 128,-1,8
 244 188 244 188 255 158.5 c 128,-1,9
 266 129 266 129 294 103.5 c 128,-1,10
 322 78 322 78 362 78 c 0,11,12
 468 78 468 78 558.5 222.5 c 128,-1,13
 649 367 649 367 649 485 c 0,14,15
 649 571 649 571 603 622.5 c 128,-1,16
 557 674 557 674 465 674 c 0,17,18
 410 674 410 674 354 657 c 1,19,20
 327 657 327 657 339.5 710.5 c 128,-1,21
 352 764 352 764 377 764 c 0,22,23
 572 764 572 764 684 887 c 0,24,25
 762 971 762 971 762 1079 c 0,26,27
 762 1134 762 1134 734.5 1169 c 128,-1,28
 707 1204 707 1204 653 1204 c 0,29,30
 585 1204 585 1204 526 1168.5 c 128,-1,31
 467 1133 467 1133 387 1049 c 0,32,33
 369 1029 369 1029 343 1053 c 128,-1,34
 317 1077 317 1077 334 1094 c 0,35,36
 449 1213 449 1213 545 1273 c 128,-1,37
 641 1333 641 1333 754 1333 c 0,38,39
 865 1333 865 1333 929 1269.5 c 128,-1,40
 993 1206 993 1206 993 1108 c 0,41,42
 993 995 993 995 921.5 906 c 128,-1,43
 850 817 850 817 737 760 c 1,44,45
 903 707 903 707 903 530 c 0,46,47
 903 383 903 383 808 253 c 128,-1,48
 713 123 713 123 569.5 50 c 128,-1,49
 426 -23 426 -23 283 -23 c 0,0,1
EndSplineSet
Substitution2: "'onum' Oldstyle Figures in Latin lookup 10" three.oldstyle
Substitution2: "'sups' Superscript in Latin lookup 4" uni00B3
EndChar

StartChar: four
Encoding: 52 52 20
Width: 956
Flags: MW
LayerCount: 2
Fore
SplineSet
821 504 m 1,0,-1
 944 504 l 2,1,2
 950.533 504 950.533 504 950.533 489.518 c 0,3,4
 950.533 472.967 950.533 472.967 942 437.5 c 0,5,6
 926 371 926 371 909 371 c 2,7,-1
 786 371 l 1,8,-1
 727 156 l 2,9,10
 721.149 133.015 721.149 133.015 721.149 116.754 c 0,11,12
 721.149 94.1045 721.149 94.1045 732.5 84.5 c 0,13,14
 752 68 752 68 807 68 c 0,15,16
 823 68 823 68 813 30 c 128,-1,17
 803 -8 803 -8 786 -8 c 1,18,19
 704 0 704 0 550.5 0 c 256,20,21
 397 0 397 0 315 -8 c 1,22,23
 299 -8 299 -8 309 30 c 128,-1,24
 319 68 319 68 336 68 c 0,25,26
 410 68 410 68 447.5 87 c 128,-1,27
 485 106 485 106 500 156 c 2,28,-1
 559 371 l 1,29,-1
 98 371 l 2,30,31
 96.2889 370.978 96.2889 370.978 94.6163 370.978 c 0,32,33
 21.9872 370.978 21.9872 370.978 21.9872 412.879 c 0,34,35
 21.9872 463.987 21.9872 463.987 111 551 c 2,36,-1
 504 934 l 2,37,38
 783 1206 783 1206 961 1413 c 1,39,40
 983.272 1431.66 983.272 1431.66 1009.17 1431.66 c 3,41,42
 1026.29 1431.66 1026.29 1431.66 1045 1423.5 c 0,43,44
 1078.47 1408.9 1078.47 1408.9 1078.47 1382.89 c 3,45,46
 1078.47 1372.38 1078.47 1372.38 1073 1360 c 1,47,-1
 240 545 l 2,48,49
 199 504 199 504 238 504 c 2,50,-1
 594 504 l 1,51,-1
 700 903 l 2,52,53
 706 926 706 926 820 926 c 131,-1,54
 934 926 934 926 928 903 c 2,55,-1
 821 504 l 1,0,-1
EndSplineSet
Substitution2: "'onum' Oldstyle Figures in Latin lookup 10" four.oldstyle
EndChar

StartChar: five
Encoding: 53 53 21
Width: 956
Flags: MW
LayerCount: 2
Fore
SplineSet
1085 1317 m 2,0,1
 1089.38 1317 1089.38 1317 1089.38 1309.81 c 3,2,3
 1089.38 1291.06 1089.38 1291.06 1058.5 1223.5 c 0,4,5
 1016 1130 1016 1130 1001 1130 c 2,6,-1
 586 1130 l 2,7,8
 553 1130 553 1130 537 1100 c 2,9,-1
 467 946 l 2,10,11
 459 926 459 926 463 918.5 c 128,-1,12
 467 911 467 911 481 913 c 0,13,14
 534 917 534 917 547 918 c 0,15,16
 735 918 735 918 828.5 837 c 128,-1,17
 922 756 922 756 922 631 c 0,18,19
 922 441 922 441 778 256 c 0,20,21
 682 131 682 131 542.5 57.5 c 128,-1,22
 403 -16 403 -16 248 -16 c 0,23,24
 4 -16 4 -16 4 106 c 0,25,26
 4 161 4 161 51 197 c 128,-1,27
 98 233 98 233 154 231 c 0,28,29
 203 231 203 231 254 161.5 c 128,-1,30
 305 92 305 92 360 92 c 0,31,32
 485 92 485 92 590.5 225 c 128,-1,33
 696 358 696 358 696 489 c 0,34,35
 696 587 696 587 630.5 644.5 c 128,-1,36
 565 702 565 702 451 702 c 0,37,38
 385 702 385 702 307 682 c 0,39,40
 264 670 264 670 256 689.5 c 128,-1,41
 248 709 248 709 264 733 c 1,42,-1
 500 1262 l 2,43,44
 527 1317 527 1317 584 1317 c 2,45,-1
 1085 1317 l 2,0,1
EndSplineSet
Substitution2: "'onum' Oldstyle Figures in Latin lookup 10" five.oldstyle
EndChar

StartChar: six
Encoding: 54 54 22
Width: 956
Flags: MW
LayerCount: 2
Fore
SplineSet
1065 1321 m 0,0,1
 852 1219 852 1219 688 1046.5 c 128,-1,2
 524 874 524 874 432 686 c 1,3,4
 549 797 549 797 680 797 c 128,-1,5
 811 797 811 797 876.5 716 c 128,-1,6
 942 635 942 635 942 516 c 0,7,8
 942 307 942 307 770 145.5 c 128,-1,9
 598 -16 598 -16 387 -16 c 0,10,11
 227 -16 227 -16 155.5 73 c 128,-1,12
 84 162 84 162 84 305 c 0,13,14
 84 381 84 381 109 475 c 0,15,16
 183 754 183 754 457 1012 c 128,-1,17
 731 1270 731 1270 1042 1382 c 0,18,19
 1065 1390 1065 1390 1074 1360.5 c 128,-1,20
 1083 1331 1083 1331 1065 1321 c 0,0,1
707 451 m 0,21,22
 707 529 707 529 668 586 c 128,-1,23
 629 643 629 643 559 643 c 0,24,25
 465 643 465 643 377 565 c 1,26,27
 311 403 311 403 311 260 c 0,28,29
 311 88 311 88 438 88 c 0,30,31
 555 88 555 88 631 207 c 128,-1,32
 707 326 707 326 707 451 c 0,21,22
EndSplineSet
Substitution2: "'onum' Oldstyle Figures in Latin lookup 10" six.oldstyle
EndChar

StartChar: seven
Encoding: 55 55 23
Width: 956
Flags: MW
LayerCount: 2
Fore
SplineSet
1135 1219 m 2,0,-1
 324 0 l 2,1,2
 316 -10 316 -10 290.453 -15.8804 c 128,-1,3
 264.905 -21.7608 264.905 -21.7608 238.743 -21.7608 c 3,4,5
 200.307 -21.7608 200.307 -21.7608 160.653 -16.8804 c 128,-1,6
 121 -12 121 -12 104.5 -2 c 0,7,8
 94.2308 4.09528 94.2308 4.09528 94.2308 10.9406 c 3,9,10
 94.2308 15.3201 94.2308 15.3201 98 20 c 0,11,12
 227 176 227 176 299 274 c 2,13,-1
 946 1141 l 1,14,-1
 649 1141 l 2,15,16
 590 1141 590 1141 552 1137 c 128,-1,17
 514 1133 514 1133 451.5 1102 c 128,-1,18
 389 1071 389 1071 348 1012 c 0,19,20
 340 1000 340 1000 316.5 996.5 c 128,-1,21
 293 993 293 993 274.5 999.5 c 128,-1,22
 256 1006 256 1006 260 1018 c 2,23,-1
 377 1260 l 2,24,25
 385 1280 385 1280 389 1287 c 128,-1,26
 393 1294 393 1294 401.5 1303.5 c 128,-1,27
 410 1313 410 1313 420 1315 c 128,-1,28
 430 1317 430 1317 446 1317 c 2,29,-1
 1128 1317 l 2,30,31
 1169 1317 1169 1317 1175.5 1299.5 c 128,-1,32
 1182 1282 1182 1282 1164.5 1260.5 c 128,-1,33
 1147 1239 1147 1239 1135 1219 c 2,0,-1
EndSplineSet
Substitution2: "'onum' Oldstyle Figures in Latin lookup 10" seven.oldstyle
EndChar

StartChar: eight
Encoding: 56 56 24
Width: 956
Flags: MW
LayerCount: 2
Fore
SplineSet
1049 1100 m 0,0,1
 1049 975 1049 975 961.5 876.5 c 128,-1,2
 874 778 874 778 745 719 c 1,3,4
 911 600 911 600 911 432 c 0,5,6
 911 248 911 248 746.5 116 c 128,-1,7
 582 -16 582 -16 391 -16 c 0,8,9
 248 -16 248 -16 154.5 52.5 c 128,-1,10
 61 121 61 121 61 246 c 0,11,12
 61 393 61 393 159.5 489.5 c 128,-1,13
 258 586 258 586 422 655 c 1,14,15
 277 766 277 766 276 907 c 0,16,17
 276 1079 276 1079 425.5 1206 c 128,-1,18
 575 1333 575 1333 752 1333 c 0,19,20
 887 1333 887 1333 968 1275 c 128,-1,21
 1049 1217 1049 1217 1049 1100 c 0,0,1
829 1083 m 0,22,23
 829 1233 829 1233 700 1233 c 0,24,25
 620 1233 620 1233 554.5 1163.5 c 128,-1,26
 489 1094 489 1094 489 1014 c 0,27,28
 489 897 489 897 670 782 c 1,29,30
 829 890 829 890 829 1083 c 0,22,23
674 342 m 0,31,32
 674 471 674 471 498 596 c 1,33,34
 406 547 406 547 351.5 453.5 c 128,-1,35
 297 360 297 360 297 254 c 0,36,37
 297 178 297 178 335 127 c 128,-1,38
 373 76 373 76 446 76 c 0,39,40
 536 76 536 76 605 162 c 128,-1,41
 674 248 674 248 674 342 c 0,31,32
EndSplineSet
Substitution2: "'onum' Oldstyle Figures in Latin lookup 10" eight.oldstyle
EndChar

StartChar: nine
Encoding: 57 57 25
Width: 956
Flags: MW
LayerCount: 2
Fore
SplineSet
752 377 m 0,0,1
 500 119 500 119 123 -41 c 0,2,3
 109 -47 109 -47 99.5 -28.5 c 128,-1,4
 90 -10 90 -10 90 13.5 c 128,-1,5
 90 37 90 37 102 43 c 0,6,7
 325 152 325 152 456.5 281 c 128,-1,8
 588 410 588 410 711 627 c 1,9,10
 668 594 668 594 598 564.5 c 128,-1,11
 528 535 528 535 477 535 c 0,12,13
 348 535 348 535 274.5 610.5 c 128,-1,14
 201 686 201 686 201 797 c 0,15,16
 201 901 201 901 257 1009.5 c 128,-1,17
 313 1118 313 1118 395 1192 c 0,18,19
 553 1333 553 1333 758 1333 c 0,20,21
 912 1333 912 1333 986.5 1243 c 128,-1,22
 1061 1153 1061 1153 1061 1014 c 0,23,24
 1061 694 1061 694 752 377 c 0,0,1
834 1063 m 0,25,26
 834 1227 834 1227 700 1227 c 0,27,28
 591 1227 591 1227 518.5 1103 c 128,-1,29
 446 979 446 979 446 860 c 0,30,31
 446 782 446 782 481 728 c 128,-1,32
 516 674 516 674 580 674 c 0,33,34
 676 674 676 674 756 733 c 1,35,36
 789 796 789 796 811.5 893.5 c 128,-1,37
 834 991 834 991 834 1063 c 0,25,26
EndSplineSet
Substitution2: "'onum' Oldstyle Figures in Latin lookup 10" three.oldstyle
EndChar

StartChar: colon
Encoding: 58 58 26
Width: 593
Flags: MW
LayerCount: 2
Fore
SplineSet
633 707 m 0,0,1
 633 643 633 643 587 597 c 128,-1,2
 541 551 541 551 477 551 c 0,3,4
 414 551 414 551 367 597 c 0,5,6
 319 643 319 643 319 707 c 0,7,8
 319 770 319 770 367 817 c 0,9,10
 414 864 414 864 477 864 c 0,11,12
 541 864 541 864 587 818 c 128,-1,13
 633 772 633 772 633 707 c 0,0,1
463 131 m 0,14,15
 463 66 463 66 417 19 c 0,16,17
 371 -27 371 -27 307 -27 c 0,18,19
 244 -27 244 -27 198 19 c 0,20,21
 152 66 152 66 152 131 c 0,22,23
 152 195 152 195 198 241 c 128,-1,24
 244 287 244 287 307 287 c 0,25,26
 371 287 371 287 417 241 c 128,-1,27
 463 195 463 195 463 131 c 0,14,15
EndSplineSet
EndChar

StartChar: semicolon
Encoding: 59 59 27
Width: 593
Flags: MW
LayerCount: 2
Fore
SplineSet
600 711 m 0,0,1
 600 647 600 647 555 604 c 128,-1,2
 510 561 510 561 446 561 c 0,3,4
 383 561 383 561 339 604 c 128,-1,5
 295 647 295 647 295 711 c 0,6,7
 295 774 295 774 339 819 c 128,-1,8
 383 864 383 864 446 864 c 0,9,10
 510 864 510 864 555 819 c 128,-1,11
 600 774 600 774 600 711 c 0,0,1
483 176 m 0,12,13
 483 76 483 76 393 -33 c 0,14,15
 303 -141 303 -141 210 -206 c 0,16,17
 117 -270 117 -270 53 -295 c 0,18,19
 37 -303 37 -303 22 -275 c 0,20,21
 6 -248 6 -248 20 -236 c 0,22,23
 45 -213 45 -213 87 -180 c 128,-1,24
 129 -147 129 -147 178 -88 c 128,-1,25
 227 -29 227 -29 244 25 c 0,26,27
 254 55 254 55 231 66 c 0,28,29
 205 76 205 76 179 109 c 0,30,31
 154 141 154 141 154 190 c 0,32,33
 154 250 154 250 204 295 c 128,-1,34
 254 340 254 340 324 340 c 0,35,36
 393 340 393 340 438 297 c 128,-1,37
 483 254 483 254 483 176 c 0,12,13
EndSplineSet
EndChar

StartChar: less
Encoding: 60 60 28
Width: 1024
Flags: MW
LayerCount: 2
Fore
SplineSet
344 422 m 1,0,-1
 948 162 l 1,1,-1
 948 -23 l 1,2,-1
 78 356 l 1,3,-1
 78 485 l 1,4,-1
 948 866 l 1,5,-1
 948 682 l 1,6,-1
 344 422 l 1,0,-1
EndSplineSet
EndChar

StartChar: equal
Encoding: 61 61 29
Width: 1064
Flags: MW
LayerCount: 2
Fore
SplineSet
948 575 m 1,0,-1
 119 575 l 1,1,-1
 119 717 l 1,2,-1
 948 717 l 1,3,-1
 948 575 l 1,0,-1
948 268 m 1,4,-1
 119 268 l 1,5,-1
 119 410 l 1,6,-1
 948 410 l 1,7,-1
 948 268 l 1,4,-1
EndSplineSet
EndChar

StartChar: greater
Encoding: 62 62 30
Width: 1024
Flags: MW
LayerCount: 2
Fore
SplineSet
946 356 m 1,0,-1
 76 -23 l 1,1,-1
 76 162 l 1,2,-1
 680 422 l 1,3,-1
 76 682 l 1,4,-1
 76 866 l 1,5,-1
 946 485 l 1,6,-1
 946 356 l 1,0,-1
EndSplineSet
EndChar

StartChar: question
Encoding: 63 63 31
Width: 694
Flags: MW
LayerCount: 2
Fore
SplineSet
254 584 m 0,0,1
 254 672 254 672 295 725 c 128,-1,2
 336 778 336 778 418 813 c 2,3,-1
 539 866 l 2,4,5
 713 942 713 942 713 1042 c 0,6,7
 713 1145 713 1145 483 1145 c 0,8,9
 459 1145 459 1145 428 1172.5 c 128,-1,10
 397 1200 397 1200 397 1243 c 0,11,12
 397 1288 397 1288 441 1332 c 128,-1,13
 485 1376 485 1376 547 1376 c 0,14,15
 662 1376 662 1376 735.5 1272.5 c 128,-1,16
 809 1169 809 1169 809 1026 c 0,17,18
 809 911 809 911 762 819 c 128,-1,19
 715 727 715 727 647 698 c 2,20,-1
 471 623 l 2,21,22
 383 586 383 586 366.5 548 c 128,-1,23
 350 510 350 510 350 442 c 0,24,25
 350 426 350 426 318.5 418 c 128,-1,26
 287 410 287 410 283 426 c 0,27,28
 254 537 254 537 254 584 c 0,0,1
375 126 m 256,29,30
 375 59 375 59 332 16 c 128,-1,31
 289 -27 289 -27 223.5 -27 c 128,-1,32
 158 -27 158 -27 113 15 c 128,-1,33
 68 57 68 57 68 126 c 128,-1,34
 68 195 68 195 112 242 c 128,-1,35
 156 289 156 289 223.5 289 c 128,-1,36
 291 289 291 289 333 241 c 128,-1,37
 375 193 375 193 375 126 c 256,29,30
EndSplineSet
EndChar

StartChar: at
Encoding: 64 64 32
Width: 1597
Flags: MW
LayerCount: 2
Fore
SplineSet
991 983 m 1,0,-1
 1012 1034 l 2,1,2
 1018 1052 1018 1052 1065 1053 c 0,3,4
 1081 1053 1081 1053 1108 1039.5 c 128,-1,5
 1135 1026 1135 1026 1128 1010 c 2,6,-1
 987 532 l 2,7,8
 958 430 958 430 1001 430 c 0,9,10
 1167 430 1167 430 1282 546 c 128,-1,11
 1397 662 1397 662 1397 840 c 0,12,13
 1397 1039 1397 1039 1250.5 1168.5 c 128,-1,14
 1104 1298 1104 1298 883 1298 c 0,15,16
 695 1298 695 1298 548 1199 c 128,-1,17
 401 1100 401 1100 327.5 943 c 128,-1,18
 254 786 254 786 254 604 c 0,19,20
 254 530 254 530 271.5 458.5 c 128,-1,21
 289 387 289 387 332 313.5 c 128,-1,22
 375 240 375 240 439.5 183.5 c 128,-1,23
 504 127 504 127 608.5 91 c 128,-1,24
 713 55 713 55 844 55 c 0,25,26
 979 55 979 55 1167 127 c 0,27,28
 1183 135 1183 135 1196.5 109.5 c 128,-1,29
 1210 84 1210 84 1194 76 c 0,30,31
 1018 -33 1018 -33 782 -33 c 0,32,33
 649 -33 649 -33 525 6 c 128,-1,34
 401 45 401 45 299 121 c 128,-1,35
 197 197 197 197 134.5 321.5 c 128,-1,36
 72 446 72 446 72 602 c 0,37,38
 72 835 72 835 189.5 1016.5 c 128,-1,39
 307 1198 307 1198 494.5 1291 c 128,-1,40
 682 1384 682 1384 901 1384 c 0,41,42
 1188 1384 1188 1384 1357 1225.5 c 128,-1,43
 1526 1067 1526 1067 1526 848 c 0,44,45
 1526 647 1526 647 1374.5 499.5 c 128,-1,46
 1223 352 1223 352 975 352 c 0,47,48
 832 352 832 352 831 436 c 0,49,50
 831 467 831 467 850 518 c 1,51,-1
 840 524 l 1,52,53
 693 358 693 358 590 358 c 0,54,55
 531 358 531 358 504 399 c 128,-1,56
 477 440 477 440 477 494 c 0,57,58
 477 590 477 590 532.5 709.5 c 128,-1,59
 588 829 588 829 689.5 921.5 c 128,-1,60
 791 1014 791 1014 899 1014 c 0,61,62
 960 1014 960 1014 991 983 c 1,0,-1
883 967 m 0,63,64
 822 967 822 967 760 880 c 128,-1,65
 698 793 698 793 663.5 688.5 c 128,-1,66
 629 584 629 584 629 518 c 0,67,68
 629 448 629 448 659 449 c 0,69,70
 710 449 710 449 825 580 c 0,71,72
 886 650 886 650 924 772 c 2,73,-1
 967 920 l 1,74,75
 949 967 949 967 883 967 c 0,63,64
EndSplineSet
EndChar

StartChar: A
Encoding: 65 65 33
Width: 1165
VWidth: 1909
Flags: MW
AnchorPoint: "Anchor-0" 948 1415 basechar 0
LayerCount: 2
Fore
SplineSet
928 202 m 2,0,1
 926 187 926 187 926 172 c 0,2,3
 926 86 926 86 1052 86 c 0,4,5
 1060 86 1060 86 1060 67 c 128,-1,6
 1060 48 1060 48 1051.5 20 c 128,-1,7
 1043 -8 1043 -8 1031 -8 c 1,8,9
 955 0 955 0 800.5 0 c 128,-1,10
 646 0 646 0 569 -8 c 1,11,12
 561 -8 561 -8 561 9.5 c 128,-1,13
 561 27 561 27 570.5 56.5 c 128,-1,14
 580 86 580 86 590 86 c 0,15,16
 651 86 651 86 679 108 c 128,-1,17
 707 130 707 130 716 202 c 2,18,-1
 753 485 l 2,19,20
 758 523 758 523 716 523 c 2,21,-1
 470 523 l 2,22,23
 440 523 440 523 422 495 c 2,24,-1
 233 201 l 2,25,26
 209 163 209 163 209 141 c 0,27,28
 209 86 209 86 330 86 c 0,29,30
 338 86 338 86 338 67.5 c 128,-1,31
 338 49 338 49 329.5 20.5 c 128,-1,32
 321 -8 321 -8 309 -8 c 1,33,34
 233 0 233 0 79.5 0 c 128,-1,35
 -74 0 -74 0 -151 -8 c 1,36,37
 -159 -8 -159 -8 -159 5.5 c 128,-1,38
 -159 19 -159 19 -152 52.5 c 128,-1,39
 -145 86 -145 86 -130 86 c 0,40,41
 -21 86 -21 86 27 120.5 c 128,-1,42
 75 155 75 155 117 218 c 2,43,-1
 772 1192 l 2,44,45
 780 1204 780 1204 780 1215 c 0,46,47
 780 1226 780 1226 770.5 1237.5 c 128,-1,48
 761 1249 761 1249 761 1260 c 0,49,50
 761 1280 761 1280 829 1303 c 256,51,52
 898 1327 898 1327 953.5 1356.5 c 128,-1,53
 1009 1386 1009 1386 1037 1386 c 0,54,55
 1079 1386 1079 1386 1079 1336 c 0,56,57
 1079 1314 1079 1314 1065 1256.5 c 128,-1,58
 1051 1199 1051 1199 1045 1150 c 2,59,-1
 928 202 l 2,0,1
774 649 m 2,60,-1
 821 1062 l 2,61,62
 823 1077 823 1077 815 1077 c 256,63,64
 807 1077 807 1077 798 1064 c 2,65,-1
 515 636 l 2,66,67
 509 628 509 628 509 617.5 c 128,-1,68
 509 607 509 607 528 607 c 2,69,-1
 732 607 l 2,70,71
 769 607 769 607 774 649 c 2,60,-1
EndSplineSet
Substitution2: "'ss19' Latin to Gothic transliteration subtable" u10330
Comment: "last+AD0A-71" 
Colour: ffffff
EndChar

StartChar: B
Encoding: 66 66 34
Width: 1245
VWidth: 1909
Flags: MW
LayerCount: 2
Fore
SplineSet
1186 452 m 256,0,1
 1186 288 1186 288 1044.5 141 c 128,-1,2
 903 -6 903 -6 544 -6 c 0,3,4
 485 -6 485 -6 410 -3 c 128,-1,5
 335 -0 335 -0 270.5 -0 c 128,-1,6
 206 0 206 0 -17 -8 c 1,7,8
 -25 -8 -25 -8 -25 4.5 c 128,-1,9
 -25 17 -25 17 -16.5 51.5 c 128,-1,10
 -8 86 -8 86 8 86 c 0,11,12
 119 86 119 86 152.5 118.5 c 128,-1,13
 186 151 186 151 201 202 c 2,14,-1
 487 1156 l 2,15,16
 495 1182 495 1182 495 1208 c 256,17,18
 495 1233 495 1233 465.5 1248.5 c 128,-1,19
 436 1264 436 1264 346 1264 c 0,20,21
 339 1264 339 1264 339 1276.5 c 128,-1,22
 339 1289 339 1289 349 1323.5 c 128,-1,23
 359 1358 359 1358 372 1358 c 1,24,25
 511 1354 511 1354 602 1354 c 128,-1,26
 693 1354 693 1354 773.5 1356 c 128,-1,27
 854 1358 854 1358 928 1358 c 0,28,29
 1095 1358 1095 1358 1190 1286.5 c 0,30,31
 1285 1214 1285 1214 1285 1098 c 256,32,33
 1285 983 1285 983 1209.5 893 c 128,-1,34
 1134 803 1134 803 1026 751 c 0,35,36
 1006 741 1006 741 1006 731.5 c 128,-1,37
 1006 722 1006 722 1024 711 c 0,38,39
 1186 606 1186 606 1186 452 c 256,0,1
1050 1093 m 256,40,41
 1050 1190 1050 1190 997 1235 c 128,-1,42
 944 1280 944 1280 795 1280 c 0,43,44
 759 1280 759 1280 747 1240 c 2,45,-1
 613 796 l 2,46,47
 610 788 610 788 610 776 c 0,48,49
 610 760 610 760 661 760 c 0,50,51
 835 760 835 760 942.5 850 c 128,-1,52
 1050 940 1050 940 1050 1093 c 256,40,41
934 479 m 256,53,54
 934 586 934 586 857.5 634 c 128,-1,55
 781 682 781 682 604 682 c 0,56,57
 577 682 577 682 569 655 c 2,58,-1
 442 229 l 2,59,60
 433 199 433 199 433 164 c 0,61,62
 433 74 433 74 533 74 c 0,63,64
 730 74 730 74 832 178.5 c 128,-1,65
 934 283 934 283 934 479 c 256,53,54
EndSplineSet
Substitution2: "'ss19' Latin to Gothic transliteration subtable" u10331
Comment: "Last+AD0A-64" 
EndChar

StartChar: C
Encoding: 67 67 35
Width: 1470
VWidth: 1909
Flags: MW
LayerCount: 2
Fore
SplineSet
1199 36 m 1,0,1
 1146 29 1146 29 1110 17 c 0,2,3
 934 -27 934 -27 708 -27 c 256,4,5
 482 -27 482 -27 330 106 c 128,-1,6
 178 239 178 239 178 469 c 256,7,8
 178 820 178 820 477 1102.5 c 128,-1,9
 776 1385 776 1385 1148 1385 c 256,10,11
 1256 1385 1256 1385 1390 1357 c 128,-1,12
 1524 1329 1524 1329 1583 1329 c 1,13,14
 1571 1149 1571 1149 1522 995 c 0,15,16
 1516 978 1516 978 1469 978 c 128,-1,17
 1422 978 1422 978 1425 999 c 0,18,19
 1434 1052 1434 1052 1434 1073 c 0,20,21
 1434 1177 1434 1177 1340.5 1238 c 0,22,23
 1248 1299 1248 1299 1108 1299 c 256,24,25
 834 1299 834 1299 626 1039.5 c 128,-1,26
 418 780 418 780 418 454 c 256,27,28
 418 302 418 302 504 182.5 c 128,-1,29
 590 63 590 63 768 63 c 256,30,31
 885 63 885 63 977.5 96.5 c 128,-1,32
 1070 130 1070 130 1146.5 201.5 c 128,-1,33
 1223 273 1223 273 1272 346 c 0,34,35
 1282 361 1282 361 1325 359 c 128,-1,36
 1368 357 1368 357 1368 342 c 0,37,38
 1368 304 1368 304 1300 187.5 c 128,-1,39
 1232 71 1232 71 1199 36 c 1,0,1
EndSplineSet
Substitution2: "'salt' Stylistic Alternatives in Latin lookup 5" uniF106
Comment: "last+AD0A-38" 
EndChar

StartChar: D
Encoding: 68 68 36
Width: 1554
VWidth: 1909
Flags: MW
LayerCount: 2
Fore
SplineSet
1608 892 m 0,0,1
 1608 572 1608 572 1330 282 c 128,-1,2
 1052 -8 1052 -8 665 -8 c 0,3,4
 621 -8 621 -8 469.5 -4 c 128,-1,5
 318 0 318 0 246 0 c 128,-1,6
 174 0 174 0 -15 -8 c 1,7,8
 -24 -8 -24 -8 -24 5.5 c 128,-1,9
 -24 19 -24 19 -16 52.5 c 128,-1,10
 -8 86 -8 86 6 86 c 0,11,12
 85 86 85 86 119 98.5 c 128,-1,13
 153 111 153 111 171 137.5 c 128,-1,14
 189 164 189 164 201 202 c 2,15,-1
 487 1154 l 2,16,17
 495 1182 495 1182 495 1205 c 0,18,19
 495 1229 495 1229 470 1246.5 c 128,-1,20
 445 1264 445 1264 348 1264 c 0,21,22
 332 1264 332 1264 343.5 1311 c 128,-1,23
 355 1358 355 1358 369 1358 c 1,24,25
 459 1354 459 1354 600 1354 c 128,-1,26
 741 1354 741 1354 849.5 1356 c 128,-1,27
 958 1358 958 1358 1008 1358 c 0,28,29
 1282 1358 1282 1358 1445 1236 c 128,-1,30
 1608 1114 1608 1114 1608 892 c 0,0,1
1348 869 m 0,31,32
 1348 1057 1348 1057 1231.5 1168.5 c 128,-1,33
 1115 1280 1115 1280 924 1280 c 0,34,35
 858 1280 858 1280 819.5 1275.5 c 128,-1,36
 781 1271 781 1271 763.5 1251 c 128,-1,37
 746 1231 746 1231 733 1190 c 2,38,-1
 451 264 l 2,39,40
 439 222 439 222 439 189 c 0,41,42
 439 71 439 71 615 71 c 0,43,44
 887 71 887 71 1117.5 329 c 128,-1,45
 1348 587 1348 587 1348 869 c 0,31,32
EndSplineSet
Substitution2: "'ss19' Latin to Gothic transliteration subtable" u10333
EndChar

StartChar: E
Encoding: 69 69 37
Width: 1256
VWidth: 1909
Flags: MW
AnchorPoint: "Anchor-0" 918 1415 basechar 0
LayerCount: 2
Fore
SplineSet
1079 21 m 2,0,1
 1071 -8 1071 -8 1021 -8 c 0,2,3
 921 -8 921 -8 653 -4 c 128,-1,4
 385 0 385 0 273.5 0 c 128,-1,5
 162 0 162 0 -15 -8 c 1,6,7
 -24 -8 -24 -8 -24 5.5 c 128,-1,8
 -24 19 -24 19 -16 52.5 c 128,-1,9
 -8 86 -8 86 6 86 c 0,10,11
 105 86 105 86 142.5 112 c 128,-1,12
 180 138 180 138 204 218 c 2,13,-1
 487 1157 l 2,14,15
 492 1170 492 1170 492 1196 c 0,16,17
 492 1263 492 1263 346 1263 c 0,18,19
 338 1263 338 1263 338 1277.5 c 128,-1,20
 338 1292 338 1292 347.5 1325 c 128,-1,21
 357 1358 357 1358 369 1358 c 1,22,23
 471 1354 471 1354 609 1354 c 128,-1,24
 747 1354 747 1354 995 1356 c 128,-1,25
 1243 1358 1243 1358 1343 1358 c 0,26,27
 1406 1358 1406 1358 1406 1328 c 0,28,29
 1406 1315 1406 1315 1402 1301 c 2,30,-1
 1318 1012 l 2,31,32
 1312 993 1312 993 1266 993 c 128,-1,33
 1220 993 1220 993 1224 1010 c 0,34,35
 1231 1043 1231 1043 1231 1093 c 256,36,37
 1231 1143 1231 1143 1189.5 1197.5 c 128,-1,38
 1148 1252 1148 1252 1064 1257 c 0,39,40
 916 1265 916 1265 795 1264 c 0,41,42
 757 1264 757 1264 747 1232 c 2,43,-1
 588 724 l 2,44,45
 586 716 586 716 586 711 c 0,46,47
 586 692 586 692 609 692 c 2,48,-1
 789 692 l 2,49,50
 837 692 837 692 859 702 c 0,51,52
 881 711 881 711 890 739 c 2,53,-1
 938 884 l 2,54,55
 944 903 944 903 989.5 903 c 128,-1,56
 1035 903 1035 903 1028 884 c 0,57,58
 954 674 954 674 890 418 c 0,59,60
 886 401 886 401 843.5 401 c 128,-1,61
 801 401 801 401 806 418 c 2,62,-1
 840 546 l 2,63,64
 848 574 848 574 830 586 c 128,-1,66
 812 598 812 598 772 598 c 2,67,-1
 571 598 l 2,68,69
 550 598 550 598 542 571 c 2,70,-1
 439 223 l 2,71,72
 429 190 429 190 429 156 c 0,73,74
 429 74 429 74 527 78 c 2,75,-1
 817 90 l 2,76,77
 982 97 982 97 1085 382 c 0,78,79
 1090 399 1090 399 1137.5 399 c 128,-1,80
 1185 399 1185 399 1180 382 c 2,81,-1
 1079 21 l 2,0,1
EndSplineSet
Substitution2: "'ss19' Latin to Gothic transliteration subtable" u10334
Substitution2: "'salt' Stylistic Alternatives in Latin lookup 5" uniF10A
EndChar

StartChar: F
Encoding: 70 70 38
Width: 1235
VWidth: 1909
Flags: MW
LayerCount: 2
Fore
SplineSet
435 202 m 2,0,1
 426 173 426 173 426 147 c 0,2,3
 426 86 426 86 573 86 c 0,4,5
 581 86 581 86 581 71.5 c 128,-1,6
 581 57 581 57 572 24.5 c 128,-1,7
 563 -8 563 -8 552 -8 c 1,8,9
 476 0 476 0 268.5 0 c 128,-1,10
 61 0 61 0 -15 -8 c 1,11,12
 -24 -8 -24 -8 -24 5.5 c 128,-1,13
 -24 19 -24 19 -16 52.5 c 128,-1,14
 -8 86 -8 86 6 86 c 0,15,16
 92 86 92 86 135 107 c 256,17,18
 179 128 179 128 201 202 c 2,19,-1
 487 1156 l 2,20,21
 495 1183 495 1183 495 1207 c 0,22,23
 495 1264 495 1264 348 1264 c 0,24,25
 339 1264 339 1264 339 1279.5 c 128,-1,26
 339 1295 339 1295 348 1326.5 c 128,-1,27
 357 1358 357 1358 369 1358 c 1,28,29
 512 1352 512 1352 628.5 1352 c 128,-1,30
 745 1352 745 1352 993 1355 c 128,-1,31
 1241 1358 1241 1358 1341 1358 c 0,32,33
 1407 1358 1407 1358 1407 1333 c 0,34,35
 1407 1317 1407 1317 1402 1299 c 2,36,-1
 1316 1012 l 1,37,38
 1306 995 1306 995 1262.5 995 c 128,-1,39
 1219 995 1219 995 1224 1012 c 0,40,41
 1235 1049 1235 1049 1235 1095 c 0,42,43
 1235 1142 1235 1142 1185 1198.5 c 128,-1,44
 1135 1255 1135 1255 1064 1257 c 0,45,46
 865 1264 865 1264 774 1264 c 0,47,48
 753 1264 753 1264 743 1230 c 2,49,-1
 603 766 l 2,50,51
 600 754 600 754 600 746 c 0,52,53
 600 726 600 726 621 726 c 2,54,-1
 745 726 l 2,55,56
 857 726 857 726 894 854 c 2,57,-1
 926 966 l 2,58,59
 931 982 931 982 977 982 c 128,-1,60
 1023 982 1023 982 1020 966 c 1,61,62
 993 903 993 903 926 672 c 128,-1,63
 859 441 859 441 848 392 c 1,64,65
 844 378 844 378 801 378 c 128,-1,66
 758 378 758 378 762 392 c 2,67,-1
 782 458 l 2,68,69
 807 541 807 541 807 565 c 0,70,71
 807 632 807 632 724 632 c 2,72,-1
 588 632 l 2,73,74
 564 632 564 632 554 598 c 2,75,-1
 435 202 l 2,0,1
EndSplineSet
Substitution2: "'ss19' Latin to Gothic transliteration subtable" u10346
Comment: "last+AD0A-75" 
EndChar

StartChar: G
Encoding: 71 71 39
Width: 1476
VWidth: 1909
Flags: MW
LayerCount: 2
Fore
SplineSet
1274 134 m 2,0,1
 1270 119 1270 119 1270 104.5 c 128,-1,2
 1270 90 1270 90 1285 86.5 c 128,-1,3
 1300 83 1300 83 1300 71 c 0,4,5
 1300 29 1300 29 1274 29 c 0,6,7
 1211 29 1211 29 1078 10.5 c 128,-1,8
 945 -8 945 -8 856 -17.5 c 128,-1,9
 767 -27 767 -27 720 -27 c 256,10,11
 474 -27 474 -27 326 108.5 c 128,-1,12
 178 244 178 244 178 448 c 0,13,14
 178 800 178 800 474 1092.5 c 128,-1,15
 770 1385 770 1385 1129 1385 c 0,16,17
 1248 1385 1248 1385 1383.5 1357 c 128,-1,18
 1519 1329 1519 1329 1581 1329 c 1,19,20
 1581 1170 1581 1170 1522 993 c 0,21,22
 1517 978 1517 978 1471 979 c 128,-1,23
 1425 980 1425 980 1427 999 c 0,24,25
 1432 1056 1432 1056 1432 1058 c 0,26,27
 1432 1182 1432 1182 1337 1240.5 c 128,-1,28
 1242 1299 1242 1299 1104 1299 c 0,29,30
 837 1299 837 1299 628 1038.5 c 128,-1,31
 419 778 419 778 419 487 c 0,32,33
 419 283 419 283 511.5 173 c 128,-1,34
 604 63 604 63 752 63 c 256,35,36
 1030 63 1030 63 1075 220 c 2,37,-1
 1123 386 l 2,38,39
 1129 405 1129 405 1129 417 c 0,40,41
 1129 436 1129 436 1113.5 447 c 128,-1,42
 1098 458 1098 458 953 458 c 0,43,44
 945 458 945 458 945 474 c 128,-1,45
 945 490 945 490 953 522 c 128,-1,46
 961 554 961 554 974 554 c 1,47,48
 1031 548 1031 548 1239.5 548 c 128,-1,49
 1448 548 1448 548 1505 554 c 1,50,51
 1513 554 1513 554 1513 538.5 c 128,-1,52
 1513 523 1513 523 1504.5 490.5 c 128,-1,53
 1496 458 1496 458 1484 458 c 0,54,55
 1408 458 1408 458 1383.5 440.5 c 128,-1,56
 1359 423 1359 423 1343 369 c 2,57,-1
 1274 134 l 2,0,1
EndSplineSet
Substitution2: "'ss19' Latin to Gothic transliteration subtable" u10332
Substitution2: "'salt' Stylistic Alternatives in Latin lookup 5" uniF10E
Comment: "last+AD0A-57" 
EndChar

StartChar: H
Encoding: 72 72 40
Width: 1541
VWidth: 1909
Flags: MW
LayerCount: 2
Fore
SplineSet
1224 202 m 2,0,1
 1217 177 1217 177 1217 153 c 0,2,3
 1217 86 1217 86 1366 86 c 0,4,5
 1373 86 1373 86 1373 72 c 128,-1,6
 1373 58 1373 58 1363.5 25 c 128,-1,7
 1354 -8 1354 -8 1343 -8 c 1,8,9
 1266 0 1266 0 1054 0 c 128,-1,10
 842 0 842 0 766 -8 c 1,11,12
 759 -8 759 -8 759 6.5 c 128,-1,13
 759 21 759 21 768 53.5 c 128,-1,14
 777 86 777 86 791 86 c 0,15,16
 879 86 879 86 924 109.5 c 128,-1,17
 969 133 969 133 989 202 c 2,18,-1
 1106 614 l 2,19,20
 1110 628 1110 628 1110 640.5 c 128,-1,21
 1110 653 1110 653 1083 653 c 2,22,-1
 605 653 l 2,23,24
 571 653 571 653 562 621 c 2,25,-1
 441 202 l 2,26,27
 434 177 434 177 434 153 c 0,28,29
 434 86 434 86 583 86 c 0,30,31
 590 86 590 86 590 72 c 128,-1,32
 590 58 590 58 581 25 c 128,-1,33
 572 -8 572 -8 560 -8 c 1,34,35
 483 0 483 0 271 0 c 128,-1,36
 59 0 59 0 -17 -8 c 1,37,38
 -25 -8 -25 -8 -25 5 c 128,-1,39
 -25 18 -25 18 -16.5 52 c 128,-1,40
 -8 86 -8 86 8 86 c 0,41,42
 96 86 96 86 141 109.5 c 128,-1,43
 186 133 186 133 206 202 c 2,44,-1
 478 1154 l 2,45,46
 486 1181 486 1181 486 1208 c 0,47,48
 486 1270 486 1270 346 1270 c 0,49,50
 339 1270 339 1270 339 1283.5 c 128,-1,51
 339 1297 339 1297 349.5 1330.5 c 128,-1,52
 360 1364 360 1364 372 1364 c 1,53,54
 430 1358 430 1358 658 1358 c 128,-1,55
 886 1358 886 1358 944 1364 c 1,56,57
 952 1364 952 1364 952 1350.5 c 128,-1,58
 952 1337 952 1337 941 1303.5 c 128,-1,59
 930 1270 930 1270 917 1270 c 0,60,61
 810 1270 810 1270 771 1243 c 128,-1,62
 732 1216 732 1216 714 1154 c 2,63,-1
 609 785 l 2,64,65
 605 771 605 771 605 760 c 128,-1,66
 605 749 605 749 632 749 c 2,67,-1
 1110 749 l 2,68,69
 1146 749 1146 749 1156 785 c 2,70,-1
 1261 1154 l 2,71,72
 1269 1181 1269 1181 1269 1208 c 0,73,74
 1269 1270 1269 1270 1129 1270 c 0,75,76
 1122 1270 1122 1270 1122 1283 c 128,-1,77
 1122 1296 1122 1296 1133 1330 c 128,-1,78
 1144 1364 1144 1364 1156 1364 c 1,79,80
 1213 1358 1213 1358 1441 1358 c 128,-1,81
 1669 1358 1669 1358 1727 1364 c 1,82,83
 1735 1364 1735 1364 1735 1351.5 c 128,-1,84
 1735 1339 1735 1339 1725 1304.5 c 128,-1,85
 1715 1270 1715 1270 1700 1270 c 0,86,87
 1586 1270 1586 1270 1550 1241 c 128,-1,88
 1514 1212 1514 1212 1497 1154 c 2,89,-1
 1224 202 l 2,0,1
EndSplineSet
Substitution2: "'ss19' Latin to Gothic transliteration subtable" u10337
Substitution2: "'salt' Stylistic Alternatives in Latin lookup 5" uniF110
EndChar

StartChar: I
Encoding: 73 73 41
Width: 754
VWidth: 1909
Flags: MW
AnchorPoint: "Anchor-0" 670 1415 basechar 0
LayerCount: 2
Fore
SplineSet
441 202 m 2,0,1
 434 177 434 177 434 150 c 0,2,3
 434 86 434 86 583 86 c 0,4,5
 590 86 590 86 590 71.5 c 128,-1,6
 590 57 590 57 580.5 24.5 c 128,-1,7
 571 -8 571 -8 560 -8 c 1,8,9
 483 0 483 0 271 0 c 128,-1,10
 59 0 59 0 -17 -8 c 1,11,12
 -25 -8 -25 -8 -25 5 c 128,-1,13
 -25 18 -25 18 -16.5 52 c 128,-1,14
 -8 86 -8 86 8 86 c 0,15,16
 96 86 96 86 141 109.5 c 128,-1,17
 186 133 186 133 206 202 c 2,18,-1
 478 1154 l 2,19,20
 486 1181 486 1181 486 1217 c 0,21,22
 486 1270 486 1270 346 1270 c 0,23,24
 339 1270 339 1270 339 1283.5 c 128,-1,25
 339 1297 339 1297 350 1330.5 c 128,-1,26
 361 1364 361 1364 372 1364 c 1,27,28
 430 1358 430 1358 658 1358 c 128,-1,29
 886 1358 886 1358 944 1364 c 1,30,31
 952 1364 952 1364 952 1351.5 c 128,-1,32
 952 1339 952 1339 942 1304.5 c 128,-1,33
 932 1270 932 1270 917 1270 c 0,34,35
 807 1270 807 1270 768.5 1240.5 c 128,-1,36
 730 1211 730 1211 714 1154 c 2,37,-1
 441 202 l 2,0,1
EndSplineSet
Substitution2: "'ss19' Latin to Gothic transliteration subtable" u10339
Comment: "last+AD0A-37" 
EndChar

StartChar: J
Encoding: 74 74 42
Width: 658
VWidth: 1909
Flags: MW
LayerCount: 2
Fore
SplineSet
442 273 m 18,0,1
 341 -76 341 -76 161 -247 c 0,2,3
 -18 -418 -18 -418 -178 -418 c 256,4,5
 -250 -418 -250 -418 -294 -389.5 c 128,-1,6
 -338 -361 -338 -361 -338 -303 c 128,-1,7
 -338 -245 -338 -245 -289 -213 c 128,-1,8
 -240 -181 -240 -181 -184 -181 c 256,9,10
 -126 -181 -126 -181 -87 -216.5 c 128,-1,11
 -48 -252 -48 -252 -44 -304 c 1,12,13
 40 -248 40 -248 81.5 -137 c 128,-1,14
 123 -26 123 -26 315 638 c 2,15,-1
 464 1154 l 2,16,17
 471 1177 471 1177 471 1195 c 0,18,19
 471 1270 471 1270 346 1270 c 0,20,21
 338 1270 338 1270 338 1285 c 128,-1,22
 338 1300 338 1300 347.5 1332 c 128,-1,23
 357 1364 357 1364 371 1364 c 1,24,25
 428 1358 428 1358 640 1358 c 128,-1,26
 852 1358 852 1358 909 1364 c 1,27,28
 918 1364 918 1364 918 1350.5 c 128,-1,29
 918 1337 918 1337 910 1303.5 c 128,-1,30
 902 1270 902 1270 886 1270 c 0,31,32
 804 1270 804 1270 762.5 1249 c 128,-1,33
 721 1228 721 1228 699 1154 c 2,34,-1
 442 273 l 18,0,1
EndSplineSet
Substitution2: "'ss19' Latin to Gothic transliteration subtable" u1033E
Comment: "last+AD0A-33" 
EndChar

StartChar: K
Encoding: 75 75 43
Width: 1342
VWidth: 1909
Flags: MW
LayerCount: 2
Fore
SplineSet
1081 191 m 2,0,1
 1116 126 1116 126 1163.5 106 c 128,-1,2
 1211 86 1211 86 1276 86 c 0,3,4
 1286 86 1286 86 1286 66 c 128,-1,5
 1286 46 1286 46 1279.5 19 c 128,-1,6
 1273 -8 1273 -8 1261 -8 c 1,7,8
 1169 0 1169 0 995.5 0 c 128,-1,9
 822 0 822 0 730 -8 c 1,10,11
 720 -8 720 -8 720 8 c 128,-1,12
 720 24 720 24 729.5 55 c 128,-1,13
 739 86 739 86 751 86 c 0,14,15
 835 86 835 86 835 136 c 0,16,17
 835 157 835 157 812 204 c 2,18,-1
 636 563 l 2,19,20
 619 599 619 599 603.5 612.5 c 128,-1,21
 588 626 588 626 575.5 626 c 128,-1,22
 563 626 563 626 556 602 c 2,23,-1
 439 202 l 2,24,25
 432 178 432 178 432 150 c 0,26,27
 432 86 432 86 563 86 c 0,28,29
 570 86 570 86 570 71 c 128,-1,30
 570 56 570 56 561 24 c 128,-1,31
 552 -8 552 -8 539 -8 c 1,32,33
 427 0 427 0 266 0 c 128,-1,34
 105 0 105 0 -15 -7 c 1,35,36
 -24 -7 -24 -7 -24 3.5 c 128,-1,37
 -24 14 -24 14 -16 50 c 128,-1,38
 -8 86 -8 86 8 86 c 0,39,40
 101 86 101 86 142.5 109.5 c 128,-1,41
 184 133 184 133 204 202 c 2,42,-1
 481 1154 l 2,43,44
 488 1179 488 1179 488 1204 c 0,45,46
 488 1270 488 1270 348 1270 c 0,47,48
 339 1270 339 1270 339 1284 c 128,-1,49
 339 1298 339 1298 349.5 1331 c 128,-1,50
 360 1364 360 1364 372 1364 c 1,51,52
 443 1358 443 1358 645.5 1358 c 128,-1,53
 848 1358 848 1358 921 1364 c 1,54,55
 929 1364 929 1364 929 1350.5 c 128,-1,56
 929 1337 929 1337 918 1303.5 c 128,-1,57
 907 1270 907 1270 894 1270 c 0,58,59
 810 1270 810 1270 773 1250.5 c 128,-1,60
 736 1231 736 1231 714 1154 c 2,61,-1
 600 758 l 2,62,63
 598 752 598 752 598 746 c 128,-1,64
 598 740 598 740 604 740 c 0,65,66
 626 740 626 740 686 795 c 2,67,-1
 1083 1157 l 2,68,69
 1146 1214 1146 1214 1146 1243 c 0,70,71
 1146 1270 1146 1270 1096 1270 c 0,72,73
 1088 1270 1088 1270 1088 1282.5 c 128,-1,74
 1088 1295 1088 1295 1100.5 1329.5 c 128,-1,75
 1113 1364 1113 1364 1125 1364 c 1,76,77
 1195 1358 1195 1358 1338.5 1358 c 128,-1,78
 1482 1358 1482 1358 1539 1364 c 1,79,80
 1548 1364 1548 1364 1548 1351.5 c 128,-1,81
 1548 1339 1548 1339 1538 1304.5 c 128,-1,82
 1528 1270 1528 1270 1513 1270 c 0,83,84
 1419 1270 1419 1270 1359 1239.5 c 0,85,86
 1298 1209 1298 1209 1198 1121 c 2,87,-1
 804 777 l 2,88,89
 788 763 788 763 788 752 c 256,90,91
 788 741 788 741 800 718 c 2,92,-1
 1081 191 l 2,0,1
EndSplineSet
Substitution2: "'ss19' Latin to Gothic transliteration subtable" u1033A
EndChar

StartChar: L
Encoding: 76 76 44
Width: 1317
VWidth: 1909
Flags: MW
LayerCount: 2
Fore
SplineSet
1207 48 m 2,0,1
 1196 6 1196 6 1184.5 -1 c 128,-1,2
 1173 -8 1173 -8 1100 -8 c 0,3,4
 1000 -8 1000 -8 707 -4 c 128,-1,5
 414 0 414 0 293 0 c 128,-1,6
 172 0 172 0 -19 -8 c 1,7,8
 -27 -8 -27 -8 -26.5 4 c 128,-1,9
 -26 16 -26 16 -15 51 c 128,-1,10
 -4 86 -4 86 11 86 c 0,11,12
 136 86 136 86 164.5 119 c 128,-1,13
 193 152 193 152 206 197 c 2,14,-1
 481 1154 l 2,15,16
 489 1180 489 1180 489 1206 c 0,17,18
 489 1270 489 1270 346 1270 c 0,19,20
 339 1270 339 1270 339 1284 c 128,-1,21
 339 1298 339 1298 350 1331 c 128,-1,22
 361 1364 361 1364 372 1364 c 1,23,24
 430 1358 430 1358 665 1358 c 128,-1,25
 900 1358 900 1358 957 1364 c 1,26,27
 963 1364 963 1364 963 1351 c 128,-1,28
 963 1338 963 1338 952.5 1304 c 128,-1,29
 942 1270 942 1270 930 1270 c 0,30,31
 808 1270 808 1270 774.5 1243.5 c 128,-1,32
 741 1217 741 1217 720 1154 c 2,33,-1
 455 241 l 2,34,35
 440 194 440 194 440 160 c 0,36,37
 440 75 440 75 550 78 c 2,38,-1
 867 92 l 2,39,40
 1124 103 1124 103 1205 382 c 0,41,42
 1210 399 1210 399 1259 399 c 128,-1,43
 1308 399 1308 399 1303 382 c 2,44,-1
 1207 48 l 2,0,1
EndSplineSet
Substitution2: "'ss19' Latin to Gothic transliteration subtable" u1033B
EndChar

StartChar: M
Encoding: 77 77 45
Width: 1929
VWidth: 1909
Flags: MW
LayerCount: 2
Fore
SplineSet
1612 199 m 2,0,1
 1604 174 1604 174 1604 149 c 0,2,3
 1604 86 1604 86 1751 86 c 0,4,5
 1759 86 1759 86 1759 72 c 128,-1,6
 1759 58 1759 58 1749.5 25 c 128,-1,7
 1740 -8 1740 -8 1729 -8 c 1,8,9
 1652 0 1652 0 1454.5 0 c 128,-1,10
 1257 0 1257 0 1180 -8 c 1,11,12
 1172 -8 1172 -8 1172 5.5 c 128,-1,13
 1172 19 1172 19 1183 52.5 c 128,-1,14
 1194 86 1194 86 1207 86 c 0,15,16
 1284 86 1284 86 1324 116.5 c 128,-1,17
 1364 147 1364 147 1385 218 c 2,18,-1
 1578 861 l 2,19,20
 1581 872 1581 872 1581 879 c 0,21,22
 1581 891 1581 891 1571.5 891 c 128,-1,23
 1562 891 1562 891 1539 863 c 2,24,-1
 856 22 l 2,25,26
 825 -17 825 -17 800.5 -17 c 128,-1,27
 776 -17 776 -17 768 25 c 2,28,-1
 600 898 l 2,29,30
 595 926 595 926 584.5 926 c 128,-1,31
 574 926 574 926 565 900 c 2,32,-1
 309 199 l 2,33,34
 299 172 299 172 299 148 c 0,35,36
 299 86 299 86 418 86 c 0,37,38
 426 86 426 86 426 71 c 128,-1,39
 426 56 426 56 416 24 c 128,-1,40
 406 -8 406 -8 393 -8 c 1,41,42
 317 0 317 0 186 0 c 128,-1,43
 55 0 55 0 -21 -8 c 1,44,45
 -28 -8 -28 -8 -28 4.5 c 128,-1,46
 -28 17 -28 17 -19.5 51.5 c 128,-1,47
 -11 86 -11 86 4 86 c 0,48,49
 90 86 90 86 133.5 110.5 c 128,-1,50
 177 135 177 135 208 220 c 2,51,-1
 533 1100 l 2,52,53
 551 1148 551 1148 551 1183 c 0,54,55
 551 1270 551 1270 416 1270 c 0,56,57
 409 1270 409 1270 409 1283 c 128,-1,58
 409 1296 409 1296 421.5 1330 c 128,-1,59
 434 1364 434 1364 445 1364 c 1,60,61
 540 1358 540 1358 624 1358 c 128,-1,62
 708 1358 708 1358 726 1338 c 256,63,64
 749 1316 749 1316 760 1263 c 2,65,-1
 940 361 l 2,66,67
 945 335 945 335 958 335 c 256,68,69
 971 335 971 335 987 355 c 2,70,-1
 1736 1282 l 2,71,72
 1771 1325 1771 1325 1804 1341 c 256,73,74
 1838 1358 1838 1358 1921.5 1358 c 128,-1,75
 2005 1358 2005 1358 2111 1364 c 1,76,77
 2117 1364 2117 1364 2117.5 1352 c 128,-1,78
 2118 1340 2118 1340 2107.5 1305 c 128,-1,79
 2097 1270 2097 1270 2084 1270 c 0,80,81
 1973 1270 1973 1270 1942.5 1237.5 c 128,-1,82
 1912 1205 1912 1205 1874 1077 c 2,83,-1
 1612 199 l 2,0,1
EndSplineSet
Substitution2: "'ss19' Latin to Gothic transliteration subtable" u1033C
Substitution2: "'salt' Stylistic Alternatives in Latin lookup 5" uniF11A
Comment: "last+AD0A-83" 
EndChar

StartChar: N
Encoding: 78 78 46
Width: 1478
VWidth: 1909
Flags: MW
LayerCount: 2
Fore
SplineSet
1192 27 m 2,0,1
 1176 -27 1176 -27 1134 -27 c 128,-1,2
 1092 -27 1092 -27 1077 2 c 2,3,-1
 573 1008 l 2,4,5
 561 1031 561 1031 550.5 1031 c 128,-1,6
 540 1031 540 1031 533 1007 c 2,7,-1
 304 202 l 2,8,9
 295 170 295 170 295 146 c 0,10,11
 295 86 295 86 418 86 c 0,12,13
 426 86 426 86 426 71.5 c 128,-1,14
 426 57 426 57 416 24.5 c 128,-1,15
 406 -8 406 -8 393 -8 c 1,16,17
 317 0 317 0 186 0 c 128,-1,18
 55 0 55 0 -21 -8 c 1,19,20
 -28 -8 -28 -8 -28 4.5 c 128,-1,21
 -28 17 -28 17 -19.5 51.5 c 128,-1,22
 -11 86 -11 86 4 86 c 0,23,24
 100 86 100 86 140.5 112 c 128,-1,25
 181 138 181 138 199 202 c 2,26,-1
 453 1096 l 2,27,28
 469 1151 469 1151 469 1199 c 128,-1,29
 469 1247 469 1247 423 1261 c 0,30,31
 391 1270 391 1270 338 1270 c 0,32,33
 332 1270 332 1270 332 1283.5 c 128,-1,34
 332 1297 332 1297 342.5 1330.5 c 128,-1,35
 353 1364 353 1364 367 1364 c 1,36,37
 442 1359 442 1359 532 1359 c 128,-1,38
 622 1359 622 1359 648 1344.5 c 128,-1,39
 674 1330 674 1330 690 1297 c 2,40,-1
 1135 395 l 2,41,42
 1150 364 1150 364 1165 364 c 0,43,44
 1182 364 1182 364 1192 399 c 2,45,-1
 1413 1154 l 2,46,47
 1421 1180 1421 1180 1421 1199 c 0,48,49
 1421 1270 1421 1270 1293 1270 c 0,50,51
 1287 1270 1287 1270 1286.5 1283.5 c 128,-1,52
 1286 1297 1286 1297 1297 1330.5 c 128,-1,53
 1308 1364 1308 1364 1322 1364 c 1,54,55
 1379 1358 1379 1358 1526 1358 c 128,-1,56
 1673 1358 1673 1358 1730 1364 c 1,57,58
 1739 1364 1739 1364 1739 1351.5 c 128,-1,59
 1739 1339 1739 1339 1729 1304.5 c 128,-1,60
 1719 1270 1719 1270 1704 1270 c 0,61,62
 1600 1270 1600 1270 1567 1242 c 128,-1,63
 1534 1214 1534 1214 1522 1170 c 2,64,-1
 1192 27 l 2,0,1
EndSplineSet
Substitution2: "'ss19' Latin to Gothic transliteration subtable" u1033D
Comment: "last+AD0A-64" 
EndChar

StartChar: O
Encoding: 79 79 47
Width: 1512
VWidth: 1909
Flags: MW
AnchorPoint: "Anchor-0" 1083 1430 basechar 0
LayerCount: 2
Fore
SplineSet
1568 875 m 256,0,1
 1568 532 1568 532 1307 252.5 c 128,-1,2
 1046 -27 1046 -27 672 -27 c 0,3,4
 466 -27 466 -27 322 106.5 c 128,-1,5
 178 240 178 240 178 451 c 256,6,7
 178 796 178 796 441 1090.5 c 128,-1,8
 704 1385 704 1385 1079 1385 c 0,9,10
 1320 1385 1320 1385 1444 1236 c 128,-1,11
 1568 1087 1568 1087 1568 875 c 256,0,1
1331 874 m 256,12,13
 1331 1050 1331 1050 1246 1175.5 c 0,14,15
 1162 1301 1162 1301 1042 1301 c 0,16,17
 894 1301 894 1301 758 1194.5 c 128,-1,18
 622 1088 622 1088 521.5 895 c 128,-1,19
 421 702 421 702 421 474 c 256,20,21
 421 286 421 286 506.5 174.5 c 128,-1,22
 592 63 592 63 714 63 c 0,23,24
 892 63 892 63 1026 179.5 c 128,-1,25
 1160 296 1160 296 1245.5 488 c 128,-1,26
 1331 680 1331 680 1331 874 c 256,12,13
EndSplineSet
Substitution2: "'ss19' Latin to Gothic transliteration subtable" u10349
Comment: "last+AD0A-25" 
EndChar

StartChar: P
Encoding: 80 80 48
Width: 1220
VWidth: 1909
Flags: MW
LayerCount: 2
Fore
SplineSet
1368 1062 m 256,0,1
 1368 865 1368 865 1179.5 726.5 c 128,-1,2
 991 588 991 588 728 588 c 0,3,4
 657 588 657 588 583 599 c 0,5,6
 553 603 553 603 544 567 c 2,7,-1
 437 202 l 2,8,9
 430 180 430 180 430 160 c 0,10,11
 430 86 430 86 588 86 c 0,12,13
 597 86 597 86 597 71 c 128,-1,14
 597 56 597 56 586 24 c 128,-1,15
 575 -8 575 -8 563 -8 c 1,16,17
 487 0 487 0 273 0 c 128,-1,18
 59 0 59 0 -17 -8 c 1,19,20
 -25 -8 -25 -8 -25 4.5 c 128,-1,21
 -25 17 -25 17 -16.5 51.5 c 128,-1,22
 -8 86 -8 86 8 86 c 0,23,24
 105 86 105 86 143 109.5 c 128,-1,25
 181 133 181 133 202 202 c 2,26,-1
 487 1157 l 2,27,28
 493 1179 493 1179 493 1203 c 0,29,30
 493 1264 493 1264 346 1264 c 0,31,32
 338 1264 338 1264 338 1279 c 128,-1,33
 338 1294 338 1294 347.5 1326 c 128,-1,34
 357 1358 357 1358 371 1358 c 1,35,36
 514 1352 514 1352 607 1352 c 128,-1,37
 700 1352 700 1352 800.5 1355 c 128,-1,38
 901 1358 901 1358 951 1358 c 0,39,40
 1136 1358 1136 1358 1252 1279.5 c 128,-1,41
 1368 1201 1368 1201 1368 1062 c 256,0,1
1106 1039 m 256,42,43
 1106 1140 1106 1140 1045 1209 c 128,-1,44
 984 1278 984 1278 870 1278 c 256,45,46
 756 1278 756 1278 751 1259 c 2,47,-1
 594 728 l 2,48,49
 582 687 582 687 618 678 c 0,50,51
 635 674 635 674 684 674 c 0,52,53
 868 674 868 674 987 787.5 c 128,-1,54
 1106 901 1106 901 1106 1039 c 256,42,43
EndSplineSet
Substitution2: "'ss19' Latin to Gothic transliteration subtable" u10340
EndChar

StartChar: Q
Encoding: 81 81 49
Width: 1550
VWidth: 1909
Flags: MW
LayerCount: 2
Fore
SplineSet
1568 875 m 256,0,1
 1568 720 1568 720 1500 548 c 128,-1,2
 1432 376 1432 376 1291 240 c 128,-1,3
 1150 104 1150 104 1024 48 c 0,4,5
 1001 38 1001 38 1000.5 26.5 c 128,-1,6
 1000 15 1000 15 1012 4 c 0,7,8
 1096 -78 1096 -78 1220.5 -154 c 128,-1,9
 1345 -230 1345 -230 1515 -277 c 0,10,11
 1524 -280 1524 -280 1524 -292.5 c 128,-1,12
 1524 -305 1524 -305 1509.5 -334 c 128,-1,13
 1495 -363 1495 -363 1476 -359 c 0,14,15
 1270 -317 1270 -317 1035.5 -239.5 c 128,-1,16
 801 -162 801 -162 571.5 -58.5 c 128,-1,17
 342 45 342 45 260 164 c 128,-1,18
 178 283 178 283 178 451 c 256,19,20
 178 814 178 814 451 1099.5 c 128,-1,21
 724 1385 724 1385 1073 1385 c 256,22,23
 1320 1385 1320 1385 1444 1236 c 128,-1,24
 1568 1087 1568 1087 1568 875 c 256,0,1
1331 875 m 256,25,26
 1331 1050 1331 1050 1246 1175.5 c 0,27,28
 1162 1301 1162 1301 1042 1301 c 256,29,30
 912 1301 912 1301 771 1201.5 c 128,-1,31
 630 1102 630 1102 525.5 900.5 c 128,-1,32
 421 699 421 699 421 481 c 256,33,34
 421 286 421 286 506.5 174.5 c 128,-1,35
 592 63 592 63 714 63 c 256,36,37
 976 63 976 63 1153.5 328.5 c 128,-1,38
 1331 594 1331 594 1331 875 c 256,25,26
EndSplineSet
Substitution2: "'ss19' Latin to Gothic transliteration subtable" u10335
Comment: "last+AD0A-37" 
EndChar

StartChar: R
Encoding: 82 82 50
Width: 1384
VWidth: 1909
Flags: MW
LayerCount: 2
Fore
SplineSet
1400 1057 m 256,0,1
 1400 911 1400 911 1287.5 795.5 c 128,-1,2
 1175 680 1175 680 982 626 c 0,3,4
 962 620 962 620 964 600 c 128,-1,5
 966 580 966 580 967 573 c 0,6,7
 1000 429 1000 429 1140 185 c 0,8,9
 1228 32 1228 32 1331 32 c 0,10,11
 1347 32 1347 32 1346 6 c 256,12,13
 1345 -20 1345 -20 1326 -21 c 0,14,15
 1275 -25 1275 -25 1230 -25 c 0,16,17
 1095 -25 1095 -25 1023.5 12.5 c 128,-1,18
 952 50 952 50 901 110 c 128,-1,19
 850 170 850 170 825 234 c 2,20,-1
 728 482 l 2,21,22
 701 548 701 548 675 572 c 0,23,24
 659 586 659 586 630.5 586 c 128,-1,25
 602 586 602 586 583.5 589 c 128,-1,26
 565 592 565 592 556 585 c 0,27,28
 548 579 548 579 544 565 c 2,29,-1
 434 202 l 2,30,31
 426 177 426 177 426 152 c 0,32,33
 426 86 426 86 583 86 c 0,34,35
 590 86 590 86 590 72 c 128,-1,36
 590 58 590 58 580.5 25 c 128,-1,37
 571 -8 571 -8 558 -8 c 1,38,39
 481 0 481 0 270 0 c 128,-1,40
 59 0 59 0 -17 -8 c 1,41,42
 -25 -8 -25 -8 -25 5 c 128,-1,43
 -25 18 -25 18 -16.5 52 c 128,-1,44
 -8 86 -8 86 8 86 c 0,45,46
 94 86 94 86 136 106 c 128,-1,47
 178 126 178 126 201 202 c 2,48,-1
 487 1157 l 2,49,50
 495 1184 495 1184 495 1200 c 0,51,52
 496 1264 496 1264 346 1264 c 0,53,54
 339 1264 339 1264 338.5 1278.5 c 128,-1,55
 338 1293 338 1293 347.5 1325.5 c 128,-1,56
 357 1358 357 1358 371 1358 c 1,57,58
 514 1352 514 1352 601 1352 c 128,-1,59
 688 1352 688 1352 792 1355 c 128,-1,60
 896 1358 896 1358 1028 1358 c 256,61,62
 1160 1358 1160 1358 1280 1280.5 c 128,-1,63
 1400 1203 1400 1203 1400 1057 c 256,0,1
1136 1062 m 256,64,65
 1136 1149 1136 1149 1063 1213.5 c 128,-1,66
 990 1278 990 1278 802 1278 c 0,67,68
 767 1278 767 1278 760 1269.5 c 128,-1,69
 753 1261 753 1261 751 1255 c 2,70,-1
 583 703 l 2,71,72
 581 697 581 697 581 691.5 c 128,-1,73
 581 686 581 686 586 681 c 0,74,75
 603 664 603 664 680 664 c 0,76,77
 860 664 860 664 998 778 c 128,-1,78
 1136 892 1136 892 1136 1062 c 256,64,65
EndSplineSet
Substitution2: "'ss19' Latin to Gothic transliteration subtable" u10342
EndChar

StartChar: S
Encoding: 83 83 51
Width: 1042
VWidth: 1909
Flags: MW
LayerCount: 2
Fore
SplineSet
1037 533 m 256,0,1
 1037 306 1037 306 864 139.5 c 128,-1,2
 691 -27 691 -27 468 -27 c 256,3,4
 348 -27 348 -27 282 -8 c 128,-1,5
 216 11 216 11 105 71 c 1,6,-1
 105 117 l 1,7,8
 105 260 105 260 141 384 c 0,9,10
 148 408 148 408 196.5 408 c 128,-1,11
 245 408 245 408 241 388 c 0,12,13
 234 356 234 356 234 323 c 0,14,15
 234 224 234 224 297.5 143.5 c 128,-1,16
 361 63 361 63 512 63 c 256,17,18
 617 63 617 63 704 165 c 128,-1,19
 791 267 791 267 791 378 c 256,20,21
 791 500 791 500 614 572 c 2,22,-1
 523 608 l 2,23,24
 296 700 296 700 296 884 c 256,25,26
 296 1089 296 1089 456 1237 c 128,-1,27
 616 1385 616 1385 840 1385 c 256,28,29
 956 1385 956 1385 1025 1369.5 c 128,-1,30
 1094 1354 1094 1354 1144 1354 c 1,31,32
 1146 1226 1146 1226 1114 1070 c 0,33,34
 1110 1050 1110 1050 1062.5 1050 c 128,-1,35
 1015 1050 1015 1050 1015 1066 c 2,36,-1
 1015 1093 l 2,37,38
 1011 1301 1011 1301 802 1301 c 256,39,40
 694 1301 694 1301 610.5 1205 c 128,-1,41
 527 1109 527 1109 527 1001 c 256,42,43
 527 894 527 894 693 840 c 2,44,-1
 798 806 l 2,45,46
 1037 729 1037 729 1037 533 c 256,0,1
EndSplineSet
Substitution2: "'ss19' Latin to Gothic transliteration subtable" u10343
Substitution2: "'salt' Stylistic Alternatives in Latin lookup 5" uniF126
EndChar

StartChar: T
Encoding: 84 84 52
Width: 1288
Flags: MW
LayerCount: 2
Fore
SplineSet
488 202 m 2,0,-1
 790 1229 l 2,1,2
 806 1263 806 1263 765 1264 c 2,3,-1
 670 1264 l 2,4,5
 422 1264 422 1264 344 1007 c 0,6,7
 339 990 339 990 288 990 c 128,-1,8
 237 990 237 990 242 1007 c 2,9,-1
 336 1319 l 2,10,11
 344 1345 344 1345 359 1350 c 128,-1,12
 374 1355 374 1355 494 1355 c 265,13,14
 614 1352 614 1352 964 1352 c 128,-1,15
 1314 1352 1314 1352 1464 1357 c 1,16,17
 1544 1357 1544 1357 1532 1319 c 2,18,-1
 1440 1007 l 2,19,20
 1436 991 1436 991 1385.5 991 c 128,-1,21
 1335 991 1335 991 1340 1007 c 0,22,23
 1356 1060 1356 1060 1356 1100 c 0,24,25
 1356 1154 1356 1154 1317 1209 c 128,-1,26
 1278 1264 1278 1264 1167 1264 c 10,27,-1
 1058 1264 l 2,28,29
 1034 1264 1034 1264 1025 1235 c 10,30,-1
 721 202 l 2,31,32
 715 182 715 182 715 158.5 c 128,-1,33
 715 135 715 135 739.5 110.5 c 128,-1,34
 764 86 764 86 863 86 c 0,35,36
 870 86 870 86 870 70.5 c 128,-1,37
 870 55 870 55 862 24 c 128,-1,38
 854 -7 854 -7 838 -7 c 1,39,40
 742 0 742 0 551 0 c 128,-1,41
 360 0 360 0 258 -7 c 1,42,43
 251 -7 251 -7 251 14.5 c 128,-1,44
 251 36 251 36 263.5 61 c 128,-1,45
 276 86 276 86 282 86 c 0,46,47
 374 86 374 86 420 106 c 128,-1,48
 466 126 466 126 488 202 c 2,0,-1
EndSplineSet
Substitution2: "'ss19' Latin to Gothic transliteration subtable" u10344
Substitution2: "'ss09' Alternates in PUA-1" T.alt
Comment: "last+AD0A-50" 
EndChar

StartChar: U
Encoding: 85 85 53
Width: 1487
VWidth: 1909
Flags: MW
AnchorPoint: "Anchor-0" 1116 1415 basechar 0
LayerCount: 2
Fore
SplineSet
1469 871 m 2,0,1
 1328 406 1328 406 1258 284 c 128,-1,2
 1188 162 1188 162 1046.5 67.5 c 128,-1,3
 905 -27 905 -27 663 -27 c 256,4,5
 441 -27 441 -27 341 50.5 c 128,-1,6
 241 128 241 128 241 262 c 0,7,8
 241 391 241 391 290 554 c 2,9,-1
 472 1156 l 2,10,11
 482 1188 482 1188 482 1212 c 256,12,13
 482 1238 482 1238 452 1254 c 128,-1,14
 422 1270 422 1270 346 1270 c 0,15,16
 338 1270 338 1270 338 1284 c 128,-1,17
 338 1298 338 1298 347.5 1331 c 128,-1,18
 357 1364 357 1364 371 1364 c 1,19,20
 428 1358 428 1358 646.5 1358 c 128,-1,21
 865 1358 865 1358 923 1364 c 1,22,23
 930 1364 930 1364 930 1350.5 c 128,-1,24
 930 1337 930 1337 920.5 1303.5 c 128,-1,25
 911 1270 911 1270 898 1270 c 0,26,27
 783 1270 783 1270 754.5 1243 c 128,-1,28
 726 1216 726 1216 707 1154 c 2,29,-1
 563 678 l 2,30,31
 470 370 470 370 470 261 c 128,-1,32
 470 152 470 152 550 107.5 c 128,-1,33
 630 63 630 63 718 63 c 256,34,35
 894 63 894 63 1017.5 158 c 128,-1,36
 1141 253 1141 253 1217 506 c 2,37,-1
 1411 1154 l 2,38,39
 1419 1180 1419 1180 1419 1197 c 0,40,41
 1419 1270 1419 1270 1274 1270 c 0,42,43
 1268 1270 1268 1270 1268 1283 c 128,-1,44
 1268 1296 1268 1296 1278 1330 c 128,-1,45
 1288 1364 1288 1364 1301 1364 c 1,46,47
 1358 1358 1358 1358 1534.5 1358 c 128,-1,48
 1711 1358 1711 1358 1769 1364 c 1,49,50
 1777 1364 1777 1364 1777 1351.5 c 128,-1,51
 1777 1339 1777 1339 1767 1304.5 c 128,-1,52
 1757 1270 1757 1270 1744 1270 c 0,53,54
 1638 1270 1638 1270 1604 1237.5 c 128,-1,55
 1570 1205 1570 1205 1555 1154 c 10,56,-1
 1469 871 l 2,0,1
EndSplineSet
Substitution2: "'ss19' Latin to Gothic transliteration subtable" u1033F
EndChar

StartChar: V
Encoding: 86 86 54
Width: 1350
VWidth: 1909
Flags: MW
LayerCount: 2
Fore
SplineSet
1012 657 m 2,0,-1
 543 -15 l 2,1,2
 527 -38 527 -38 497 -38 c 256,3,4
 454 -38 454 -38 449 34 c 2,5,-1
 374 1154 l 2,6,7
 369 1232 369 1232 343 1251 c 128,-1,8
 317 1270 317 1270 248 1270 c 0,9,10
 239 1270 239 1270 239 1284 c 128,-1,11
 239 1298 239 1298 245.5 1331 c 128,-1,12
 252 1364 252 1364 265 1364 c 1,13,14
 323 1358 323 1358 521.5 1358 c 128,-1,15
 720 1358 720 1358 777 1364 c 1,16,17
 786 1364 786 1364 786 1347.5 c 128,-1,18
 786 1331 786 1331 779.5 1300.5 c 128,-1,19
 773 1270 773 1270 760 1270 c 0,20,21
 664 1270 664 1270 632.5 1243 c 128,-1,22
 601 1216 601 1216 605 1154 c 2,23,-1
 655 382 l 2,24,25
 656 359 656 359 665 359 c 0,26,27
 673 359 673 359 684 374 c 2,28,-1
 972 789 l 2,29,30
 1104 979 1104 979 1211 1146 c 16,31,32
 1249 1205 1249 1205 1249 1230 c 0,33,34
 1249 1270 1249 1270 1161 1270 c 0,35,36
 1153 1270 1153 1270 1153 1284 c 128,-1,37
 1153 1298 1153 1298 1164 1331 c 128,-1,38
 1175 1364 1175 1364 1188 1364 c 1,39,40
 1245 1358 1245 1358 1414 1358 c 128,-1,41
 1583 1358 1583 1358 1641 1364 c 1,42,43
 1647 1364 1647 1364 1647.5 1352 c 128,-1,44
 1648 1340 1648 1340 1637.5 1305 c 128,-1,45
 1627 1270 1627 1270 1614 1270 c 0,46,47
 1459 1270 1459 1270 1407 1202 c 0,48,49
 1231 972 1231 972 1012 657 c 2,0,-1
EndSplineSet
Comment: "last+AD0A-49" 
EndChar

StartChar: W
Encoding: 87 87 55
Width: 1994
VWidth: 1909
Flags: MW
LayerCount: 2
Fore
SplineSet
1660 652 m 2,0,-1
 1184 -2 l 2,1,2
 1158 -38 1158 -38 1131 -38 c 0,3,4
 1090 -38 1090 -38 1079 34 c 2,5,-1
 1013 467 l 2,6,7
 1009 491 1009 491 1002 491 c 0,8,9
 996 491 996 491 977 466 c 2,10,-1
 630 -2 l 2,11,12
 603 -38 603 -38 577 -38 c 0,13,14
 536 -38 536 -38 525 34 c 2,15,-1
 355 1154 l 2,16,17
 343 1231 343 1231 320.5 1250.5 c 128,-1,18
 298 1270 298 1270 229 1270 c 0,19,20
 220 1270 220 1270 220 1284.5 c 128,-1,21
 220 1299 220 1299 226.5 1331.5 c 128,-1,22
 233 1364 233 1364 246 1364 c 1,23,24
 304 1358 304 1358 469 1358 c 128,-1,25
 634 1358 634 1358 691 1364 c 1,26,27
 701 1364 701 1364 701 1346 c 128,-1,28
 701 1328 701 1328 693 1299 c 128,-1,29
 685 1270 685 1270 674 1270 c 0,30,31
 580 1270 580 1270 580 1223 c 0,32,33
 580 1193 580 1193 586 1154 c 2,34,-1
 709 351 l 2,35,36
 712 328 712 328 729 328 c 256,37,38
 746 328 746 328 762 351 c 2,39,-1
 936 587 l 2,40,41
 977 642 977 642 977 669 c 0,42,43
 977 716 977 716 972 747 c 2,44,-1
 909 1154 l 2,45,46
 898 1228 898 1228 876 1249 c 128,-1,47
 854 1270 854 1270 798 1270 c 0,48,49
 789 1270 789 1270 789 1287.5 c 128,-1,50
 789 1305 789 1305 796.5 1334.5 c 128,-1,51
 804 1364 804 1364 816 1364 c 1,52,53
 873 1358 873 1358 1034.5 1358 c 128,-1,54
 1196 1358 1196 1358 1253 1364 c 1,55,56
 1262 1364 1262 1364 1262 1348 c 128,-1,57
 1262 1332 1262 1332 1255 1301 c 128,-1,58
 1248 1270 1248 1270 1236 1270 c 0,59,60
 1134 1270 1134 1270 1134 1220 c 0,61,62
 1134 1189 1134 1189 1140 1154 c 2,63,-1
 1170 962 l 2,64,65
 1174 934 1174 934 1182 935 c 0,66,67
 1190 935 1190 935 1210 962 c 2,68,-1
 1345 1146 l 2,69,70
 1399 1219 1399 1219 1399 1246 c 0,71,72
 1399 1270 1399 1270 1322 1270 c 0,73,74
 1313 1270 1313 1270 1313 1284 c 128,-1,75
 1313 1298 1313 1298 1323.5 1331 c 128,-1,76
 1334 1364 1334 1364 1348 1364 c 1,77,78
 1406 1358 1406 1358 1552 1358 c 128,-1,79
 1698 1358 1698 1358 1755 1364 c 1,80,81
 1762 1364 1762 1364 1762 1351.5 c 128,-1,82
 1762 1339 1762 1339 1751.5 1304.5 c 128,-1,83
 1741 1270 1741 1270 1729 1270 c 0,84,85
 1572 1270 1572 1270 1528 1210 c 2,86,-1
 1239 820 l 2,87,88
 1208 778 1208 778 1208 742 c 0,89,90
 1208 708 1208 708 1212 678 c 2,91,-1
 1263 351 l 2,92,93
 1266 328 1266 328 1280 328 c 0,94,95
 1298 328 1298 328 1316 351 c 0,96,97
 1445 513 1445 513 1899 1146 c 0,98,99
 1943 1209 1943 1209 1943 1238 c 0,100,101
 1943 1270 1943 1270 1858 1270 c 0,102,103
 1852 1270 1852 1270 1852 1282.5 c 128,-1,104
 1852 1295 1852 1295 1862.5 1329.5 c 128,-1,105
 1873 1364 1873 1364 1885 1364 c 1,106,107
 1942 1358 1942 1358 2092 1358 c 128,-1,108
 2242 1358 2242 1358 2300 1364 c 1,109,110
 2308 1364 2308 1364 2308 1351.5 c 128,-1,111
 2308 1339 2308 1339 2298 1304.5 c 128,-1,112
 2288 1270 2288 1270 2273 1270 c 0,113,114
 2132 1270 2132 1270 2076 1199 c 24,115,116
 1833 890 1833 890 1660 652 c 2,0,-1
EndSplineSet
Substitution2: "'ss19' Latin to Gothic transliteration subtable" u10345
Substitution2: "'ss02' Style Set 2 in Latin lookup 7" uni01F7
EndChar

StartChar: X
Encoding: 88 88 56
Width: 1377
VWidth: 1909
Flags: MW
LayerCount: 2
Fore
SplineSet
172 181 m 2,0,-1
 663 644 l 2,1,2
 677 657 677 657 677 674 c 0,3,4
 677 685 677 685 672 697 c 2,5,-1
 495 1131 l 2,6,7
 465 1204 465 1204 423.5 1237 c 128,-1,8
 382 1270 382 1270 296 1270 c 0,9,10
 283 1270 283 1270 292.5 1317 c 128,-1,11
 302 1364 302 1364 315 1364 c 1,12,13
 372 1358 372 1358 604.5 1358 c 128,-1,14
 837 1358 837 1358 894 1364 c 1,15,16
 909 1364 909 1364 897.5 1317 c 128,-1,17
 886 1270 886 1270 873 1270 c 0,18,19
 727 1270 727 1270 727 1205 c 0,20,21
 727 1181 727 1181 739 1150 c 2,22,-1
 842 873 l 2,23,24
 848 857 848 857 860 857 c 0,25,26
 870 857 870 857 884 871 c 2,27,-1
 1180 1152 l 2,28,29
 1249 1218 1249 1218 1249 1246 c 0,30,31
 1249 1270 1249 1270 1182 1270 c 0,32,33
 1169 1270 1169 1270 1180.5 1317 c 128,-1,34
 1192 1364 1192 1364 1207 1364 c 1,35,36
 1264 1358 1264 1358 1423.5 1358 c 128,-1,37
 1583 1358 1583 1358 1641 1364 c 1,38,39
 1648 1364 1648 1364 1648 1351.5 c 128,-1,40
 1648 1339 1648 1339 1639.5 1304.5 c 128,-1,41
 1631 1270 1631 1270 1616 1270 c 0,42,43
 1507 1270 1507 1270 1445.5 1237.5 c 128,-1,44
 1384 1205 1384 1205 1249 1079 c 2,45,-1
 924 774 l 2,46,47
 904 754 904 754 904 738 c 0,48,49
 904 724 904 724 909 711 c 2,50,-1
 1094 220 l 2,51,52
 1126 135 1126 135 1163.5 110.5 c 128,-1,53
 1201 86 1201 86 1301 86 c 0,54,55
 1314 86 1314 86 1304.5 39 c 128,-1,56
 1295 -8 1295 -8 1280 -8 c 1,57,58
 1203 0 1203 0 1012 0 c 128,-1,59
 821 0 821 0 745 -8 c 1,60,61
 730 -8 730 -8 741.5 39 c 128,-1,62
 753 86 753 86 766 86 c 0,63,64
 891 86 891 86 891 138 c 0,65,66
 891 158 891 158 873 202 c 2,67,-1
 738 534 l 2,68,69
 730 554 730 554 715 554 c 0,70,71
 702 554 702 554 682 535 c 2,72,-1
 432 296 l 2,73,74
 298 168 298 168 298 122 c 0,75,76
 298 86 298 86 390 86 c 0,77,78
 405 86 405 86 393.5 39 c 128,-1,79
 382 -8 382 -8 369 -8 c 1,80,81
 292 0 292 0 125 0 c 128,-1,82
 -42 0 -42 0 -118 -8 c 1,83,84
 -127 -8 -127 -8 -127 5.5 c 128,-1,85
 -127 19 -127 19 -119 52.5 c 128,-1,86
 -111 86 -111 86 -97 86 c 0,87,88
 6 86 6 86 59.5 106 c 128,-1,89
 113 126 113 126 172 181 c 2,0,-1
EndSplineSet
Substitution2: "'ss19' Latin to Gothic transliteration subtable" u10347
EndChar

StartChar: Y
Encoding: 89 89 57
Width: 1268
VWidth: 1909
Flags: MW
AnchorPoint: "Anchor-0" 948 1415 basechar 0
LayerCount: 2
Fore
SplineSet
435 218 m 2,0,-1
 512 474 l 2,1,2
 536 558 536 558 536 589 c 128,-1,3
 536 620 536 620 516 678 c 2,4,-1
 365 1138 l 2,5,6
 338 1219 338 1219 307.5 1244.5 c 128,-1,7
 277 1270 277 1270 206 1270 c 0,8,9
 198 1270 198 1270 198 1283.5 c 128,-1,10
 198 1297 198 1297 206 1330.5 c 128,-1,11
 214 1364 214 1364 227 1364 c 1,12,13
 285 1358 285 1358 480.5 1358 c 128,-1,14
 676 1358 676 1358 733 1364 c 1,15,16
 749 1364 749 1364 737.5 1317 c 128,-1,17
 726 1270 726 1270 712 1270 c 0,18,19
 591 1270 591 1270 591 1214 c 0,20,21
 591 1191 591 1191 602 1157 c 2,22,-1
 733 754 l 2,23,24
 741 731 741 731 755 731 c 128,-1,25
 769 731 769 731 787 751 c 2,26,-1
 1173 1157 l 2,27,28
 1220 1209 1220 1209 1220 1235 c 0,29,30
 1220 1270 1220 1270 1127 1270 c 0,31,32
 1112 1270 1112 1270 1125 1317 c 128,-1,33
 1138 1364 1138 1364 1152 1364 c 1,34,35
 1209 1358 1209 1358 1364.5 1358 c 128,-1,36
 1520 1358 1520 1358 1578 1364 c 1,37,38
 1586 1364 1586 1364 1586 1350.5 c 128,-1,39
 1586 1337 1586 1337 1578 1303.5 c 128,-1,40
 1570 1270 1570 1270 1555 1270 c 0,41,42
 1452 1270 1452 1270 1397.5 1235.5 c 128,-1,43
 1343 1201 1343 1201 1198 1045 c 2,44,-1
 819 642 l 2,45,46
 781 602 781 602 754 508 c 2,47,-1
 665 201 l 2,48,49
 657 174 657 174 657 150 c 0,50,51
 657 86 657 86 783 86 c 0,52,53
 798 86 798 86 785 39 c 128,-1,54
 772 -8 772 -8 758 -8 c 1,55,56
 682 0 682 0 495 0 c 128,-1,57
 308 0 308 0 231 -8 c 1,58,59
 218 -8 218 -8 229.5 39 c 128,-1,60
 241 86 241 86 256 86 c 0,61,62
 340 86 340 86 375.5 110 c 128,-1,63
 411 134 411 134 435 218 c 2,0,-1
EndSplineSet
EndChar

StartChar: Z
Encoding: 90 90 58
Width: 1314
VWidth: 1909
Flags: MW
LayerCount: 2
Fore
SplineSet
-10 103 m 2,0,-1
 1192 1228 l 2,1,2
 1211 1243 1211 1243 1209 1257.5 c 128,-1,3
 1207 1272 1207 1272 1180 1272 c 2,4,-1
 649 1272 l 2,5,6
 600 1272 600 1272 551 1238.5 c 128,-1,7
 502 1205 502 1205 428.5 1114.5 c 128,-1,8
 355 1024 355 1024 334 976 c 0,9,10
 327 959 327 959 297 964.5 c 128,-1,11
 267 970 267 970 275 990 c 0,12,13
 349 1168 349 1168 399 1327 c 0,14,15
 412 1365 412 1365 461 1366 c 0,16,17
 478 1366 478 1366 523.5 1359 c 128,-1,18
 569 1352 569 1352 1110 1352 c 2,19,-1
 1513 1360 l 2,20,21
 1562 1360 1562 1360 1562 1317 c 0,22,23
 1562 1286 1562 1286 1536 1261 c 2,24,-1
 338 130 l 2,25,26
 321 115 321 115 325 100.5 c 128,-1,27
 329 86 329 86 357 86 c 0,28,29
 688 86 688 86 953 99 c 0,30,31
 1056 103 1056 103 1140 214 c 0,32,33
 1200 293 1200 293 1234 353 c 0,34,35
 1243 367 1243 367 1273 356.5 c 128,-1,36
 1303 346 1303 346 1295 334 c 0,37,38
 1236 232 1236 232 1205.5 146.5 c 0,39,40
 1176 60 1176 60 1158 4 c 0,41,42
 1145 -35 1145 -35 1123 -32 c 0,43,44
 1008 -11 1008 -11 920 -5.5 c 128,-1,45
 832 0 832 0 413 0 c 2,46,-1
 23 0 l 2,47,48
 -31 0 -31 0 -31 57 c 0,49,50
 -31 83 -31 83 -10 103 c 2,0,-1
EndSplineSet
Substitution2: "'ss19' Latin to Gothic transliteration subtable" u10336
EndChar

StartChar: bracketleft
Encoding: 91 91 59
Width: 724
Flags: MW
LayerCount: 2
Fore
SplineSet
1104 1530 m 2,0,1
 1118 1530 1118 1530 1101.5 1482 c 128,-1,2
 1085 1434 1085 1434 1071 1434 c 2,3,-1
 795 1434 l 2,4,5
 777 1434 777 1434 768 1411 c 2,6,-1
 297 -229 l 2,7,8
 289 -258 289 -258 303 -258 c 2,9,-1
 604 -258 l 2,10,11
 618 -258 618 -258 606 -306 c 128,-1,12
 594 -354 594 -354 578 -354 c 2,13,-1
 72 -354 l 2,14,15
 47 -354 47 -354 53 -332 c 2,16,-1
 584 1511 l 2,17,18
 589 1529 589 1529 608 1530 c 2,19,-1
 1104 1530 l 2,0,1
EndSplineSet
EndChar

StartChar: backslash
Encoding: 92 92 60
Width: 716
Flags: MW
LayerCount: 2
Fore
SplineSet
748 55 m 2,0,1
 752 43 752 43 720 22.5 c 128,-1,2
 688 2 688 2 656.5 -6 c 128,-1,3
 625 -14 625 -14 614 -4 c 1,4,-1
 -12 1405 l 2,5,6
 -24 1430 -24 1430 42.5 1459.5 c 128,-1,7
 109 1489 109 1489 119 1464 c 2,8,-1
 748 55 l 2,0,1
EndSplineSet
EndChar

StartChar: bracketright
Encoding: 93 93 61
Width: 724
Flags: MW
LayerCount: 2
Fore
SplineSet
831 1511 m 2,0,-1
 303 -332 l 2,1,2
 297 -355 297 -355 276 -354 c 2,3,-1
 -231 -354 l 2,4,5
 -245 -354 -245 -354 -233 -306 c 128,-1,6
 -221 -258 -221 -258 -207 -258 c 2,7,-1
 98 -258 l 2,8,9
 112 -258 112 -258 119 -233 c 2,10,-1
 590 1411 l 2,11,12
 598 1434 598 1434 580 1434 c 2,13,-1
 299 1434 l 2,14,15
 283 1434 283 1434 295 1482 c 128,-1,16
 307 1530 307 1530 324 1530 c 2,17,-1
 817 1530 l 2,18,19
 837 1529 837 1529 831 1511 c 2,0,-1
EndSplineSet
EndChar

StartChar: asciicircum
Encoding: 94 94 62
Width: 1024
Flags: MW
LayerCount: 2
Fore
SplineSet
1014 549 m 1,0,-1
 850 549 l 1,1,-1
 557 1165 l 1,2,-1
 545 1165 l 1,3,-1
 250 549 l 1,4,-1
 94 549 l 1,5,-1
 520 1403 l 1,6,-1
 588 1403 l 1,7,-1
 1014 549 l 1,0,-1
EndSplineSet
EndChar

StartChar: underscore
Encoding: 95 95 63
Width: 1024
Flags: MW
LayerCount: 2
Fore
SplineSet
1061 -266 m 1,0,-1
 -37 -266 l 1,1,-1
 -37 -145 l 1,2,-1
 1061 -145 l 1,3,-1
 1061 -266 l 1,0,-1
EndSplineSet
EndChar

StartChar: grave
Encoding: 96 96 64
Width: 917
Flags: MW
LayerCount: 2
Fore
SplineSet
117 1218 m 2,0,1
 87 1246 87 1246 128 1290 c 0,2,3
 168 1333 168 1333 213 1333 c 0,4,5
 237 1333 237 1333 250 1314 c 2,6,-1
 459 1001 l 2,7,8
 480 970 480 970 472 950 c 0,9,10
 464 928 464 928 440 929 c 0,11,12
 417 929 417 929 398 947 c 2,13,-1
 117 1218 l 2,0,1
EndSplineSet
EndChar

StartChar: a
Encoding: 97 97 65
Width: 966
Flags: MW
AnchorPoint: "below" 298.5 -75 basechar 0
AnchorPoint: "Anchor-0" 648 900 basechar 0
LayerCount: 2
Back
SplineSet
752 180 m 2,0,1
 749 170.072 749 170.072 749 161 c 0,2,3
 750 141 750 141 772 141 c 0,4,5
 808 141 808 141 874 207 c 0,6,7
 886.172 219.172 886.172 219.172 914.5 195 c 256,8,9
 934.069 178.302 934.069 178.302 934.069 166.929 c 0,10,11
 934.069 161.959 934.069 161.959 930 158 c 0,12,13
 837.979 68.4743 837.979 68.4743 762.575 20.7372 c 128,-1,14
 687.172 -27 687.172 -27 631 -27 c 0,15,16
 550.532 -26.9995 550.532 -26.9995 552 64 c 0,17,18
 552.978 124.657 552.978 124.657 592.428 207.5 c 2,19,-1
 596 215 l 1,20,-1
 584 221 l 1,21,22
 360.433 -27 360.433 -27 223 -27 c 256,23,24
 149.99 -27 149.99 -27 106.495 27.14 c 128,-1,25
 63 81.28 63 81.28 63 166 c 256,26,27
 63 375 63 375 249 609.5 c 128,-1,28
 435 844 435 844 641 844 c 256,29,30
 703 844 703 844 748 813 c 1,31,-1
 768 862 l 2,32,33
 776.98 884 776.98 884 864.49 884 c 256,34,35
 952 884 952 884 952 849 c 1,36,37
 952 842.158 952 842.158 948.845 831.444 c 2,38,-1
 752 180 l 2,0,1
666 553 m 10,39,-1
 715 713 l 1,40,41
 683 760 683 760 614 760 c 0,42,43
 486 760 486 760 385.5 544.5 c 128,-1,44
 285 329 285 329 285 227 c 256,45,46
 285 110 285 110 332 110 c 0,47,48
 384.063 110 384.063 110 458.365 191.667 c 128,-1,49
 532.667 273.333 532.667 273.333 585.991 369.079 c 128,-1,50
 639.315 464.824 639.315 464.824 666 553 c 10,39,-1
EndSplineSet
Fore
SplineSet
752 180 m 2,0,1
 749 170 749 170 749 161 c 0,2,3
 750 141 750 141 772 141 c 0,4,5
 808 141 808 141 874 207 c 0,6,7
 886 219 886 219 914 195 c 256,8,9
 934 178 934 178 934 167 c 0,10,11
 934 162 934 162 930 158 c 0,12,13
 838 68 838 68 762.5 20.5 c 128,-1,14
 687 -27 687 -27 631 -27 c 0,15,16
 552 -27 552 -27 552 64 c 0,17,18
 552 114 552 114 570 156 c 2,19,-1
 596 215 l 1,20,-1
 584 221 l 1,21,22
 360 -27 360 -27 223 -27 c 256,23,24
 150 -27 150 -27 106.5 27 c 128,-1,25
 63 81 63 81 63 166 c 256,26,27
 63 375 63 375 249 609.5 c 128,-1,28
 435 844 435 844 641 844 c 256,29,30
 703 844 703 844 748 813 c 1,31,-1
 768 862 l 2,32,33
 777 884 777 884 864.5 884 c 128,-1,34
 952 884 952 884 952 849 c 0,35,36
 952 842 952 842 949 831 c 2,37,-1
 752 180 l 2,0,1
666 553 m 10,38,-1
 715 713 l 1,39,40
 683 760 683 760 614 760 c 0,41,42
 506 760 506 760 395.5 571 c 128,-1,43
 285 382 285 382 285 227 c 256,44,45
 285 110 285 110 332 110 c 0,46,47
 384 110 384 110 458.5 191.5 c 128,-1,48
 533 273 533 273 586 369 c 128,-1,49
 639 465 639 465 666 553 c 10,38,-1
EndSplineSet
Substitution2: "'ss19' Latin to Gothic transliteration subtable" u10330
Comment: "last+AD0A-50" 
Colour: ffffff
EndChar

StartChar: b
Encoding: 98 98 66
Width: 929
Flags: MW
AnchorPoint: "below" 266.5 -75 basechar 0
LayerCount: 2
Fore
SplineSet
915 608 m 0,0,1
 915 360 915 360 729 166.5 c 128,-1,2
 543 -27 543 -27 270 -27 c 0,3,4
 89 -27 89 -27 89 174 c 0,5,6
 89 216 89 216 100 262 c 2,7,-1
 328 1214 l 2,8,9
 337 1254 337 1254 337 1283 c 0,10,11
 337 1360 337 1360 274 1360 c 0,12,13
 254 1360 254 1360 255 1396 c 128,-1,14
 256 1432 256 1432 274 1432 c 0,15,16
 356 1432 356 1432 454.5 1459.5 c 128,-1,17
 553 1487 553 1487 561 1487 c 0,18,19
 583 1487 583 1487 583 1465 c 0,20,21
 583 1458 583 1458 580 1448 c 2,22,-1
 391 653 l 1,23,-1
 408 645 l 1,24,25
 575 852 575 852 711 852 c 0,26,27
 915 852 915 852 915 608 c 0,0,1
696 618 m 0,28,29
 696 731 696 731 631 731 c 0,30,31
 553 731 553 731 452.5 593 c 128,-1,32
 352 455 352 455 321.5 346.5 c 128,-1,33
 291 238 291 238 291 191 c 0,34,35
 291 63 291 63 360 63 c 0,36,37
 497 63 497 63 596.5 246 c 128,-1,38
 696 429 696 429 696 618 c 0,28,29
EndSplineSet
Substitution2: "'ss19' Latin to Gothic transliteration subtable" u10331
Comment: "last+AD0A-38" 
Colour: ffffff
EndChar

StartChar: c
Encoding: 99 99 67
Width: 743
Flags: MW
AnchorPoint: "below" 324.5 -75 basechar 0
AnchorPoint: "Anchor-0" 596 900 basechar 0
LayerCount: 2
Fore
SplineSet
629 113 m 0,0,1
 512 -27 512 -27 334 -27 c 0,2,3
 227 -27 227 -27 159.5 53 c 128,-1,4
 92 133 92 133 92 264 c 0,5,6
 92 467 92 467 249 659.5 c 128,-1,7
 406 852 406 852 588 852 c 0,8,9
 668 852 668 852 724 819 c 128,-1,10
 780 786 780 786 780 737 c 0,11,12
 780 700 780 700 747.5 671.5 c 128,-1,13
 715 643 715 643 678 643 c 0,14,15
 635 643 635 643 618 674 c 1,16,17
 613 722 613 722 591 746 c 256,18,19
 569 770 569 770 537 770 c 0,20,21
 440 770 440 770 370.5 624.5 c 128,-1,22
 301 479 301 479 301 330 c 0,23,24
 301 231 301 231 333 160.5 c 128,-1,25
 365 90 365 90 428 90 c 0,26,27
 481 90 481 90 523 115.5 c 128,-1,28
 565 141 565 141 582 158 c 16,29,30
 590 166 590 166 604.5 157.5 c 128,-1,31
 619 149 619 149 628 135.5 c 128,-1,32
 637 122 637 122 629 113 c 0,0,1
EndSplineSet
Substitution2: "'swsh' Swash in Latin lookup 17-1" uniF198
Comment: "last+AD0A-32" 
Colour: ffffff
EndChar

StartChar: d
Encoding: 100 100 68
Width: 985
Flags: MW
AnchorPoint: "below" 312.5 -75 basechar 0
LayerCount: 2
Fore
SplineSet
794 228 m 2,0,1
 783 180 783 180 782 164 c 0,2,3
 782 142 782 142 799 142 c 0,4,5
 827 142 827 142 893 227 c 0,6,7
 900 236 900 236 915.5 227.5 c 128,-1,8
 931 219 931 219 942.5 204 c 128,-1,9
 954 189 954 189 948 180 c 0,10,11
 801 -27 801 -27 674 -27 c 0,12,13
 616 -27 616 -27 597 9 c 128,-1,14
 578 45 578 45 578 111 c 0,15,16
 578 131 578 131 596 215 c 1,17,-1
 584 221 l 1,18,19
 498 120 498 120 405 46.5 c 128,-1,20
 312 -27 312 -27 223 -27 c 0,21,22
 139 -27 139 -27 101 36.5 c 128,-1,23
 63 100 63 100 63 172 c 0,24,25
 63 372 63 372 245.5 612 c 128,-1,26
 428 852 428 852 633 852 c 0,27,28
 688 852 688 852 741 821 c 1,29,-1
 834 1210 l 2,30,31
 844 1253 844 1253 844 1285 c 0,32,33
 844 1360 844 1360 782 1360 c 0,34,35
 763 1360 763 1360 763 1396 c 128,-1,36
 763 1432 763 1432 782 1432 c 0,37,38
 866 1432 866 1432 962.5 1459.5 c 128,-1,39
 1059 1487 1059 1487 1067 1487 c 0,40,41
 1088 1487 1088 1487 1088 1468 c 0,42,43
 1088 1462 1088 1462 1085 1448 c 2,44,-1
 794 228 l 2,0,1
715 711 m 1,45,46
 674 770 674 770 614 770 c 0,47,48
 500 770 500 770 392.5 568.5 c 128,-1,49
 285 367 285 367 285 205 c 0,50,51
 285 111 285 111 332 111 c 0,52,53
 390 111 390 111 512 243 c 128,-1,54
 634 375 634 375 651 444 c 2,55,-1
 715 711 l 1,45,46
EndSplineSet
Substitution2: "'ss19' Latin to Gothic transliteration subtable" u10333
Substitution2: "'swsh' Swash in Latin lookup 17-1" uniF193
Substitution2: "'ss02' Style Set 2 in Latin lookup 7" uniA77A
Comment: "last+AD0A-55" 
Colour: ffffff
EndChar

StartChar: e
Encoding: 101 101 69
Width: 751
Flags: MW
AnchorPoint: "below" 290.5 -75 basechar 0
AnchorPoint: "Anchor-0" 620 900 basechar 0
LayerCount: 2
Fore
SplineSet
778 713 m 0,0,1
 778 593 778 593 636 497.5 c 128,-1,2
 494 402 494 402 299 356 c 1,3,4
 283 281 283 281 283 252 c 0,5,6
 283 104 283 104 375 104 c 0,7,8
 424 104 424 104 486.5 143 c 128,-1,9
 549 182 549 182 575 207 c 1,10,11
 584 212 584 212 597.5 204.5 c 128,-1,12
 611 197 611 197 620.5 184.5 c 128,-1,13
 630 172 630 172 625 164 c 0,14,15
 479 -27 479 -27 317 -27 c 0,16,17
 78 -27 78 -27 78 231 c 0,18,19
 78 423 78 423 253 637.5 c 128,-1,20
 428 852 428 852 610 852 c 0,21,22
 778 852 778 852 778 713 c 0,0,1
575 688 m 0,23,24
 575 754 575 754 531 754 c 0,25,26
 479 754 479 754 423.5 666.5 c 128,-1,27
 368 579 368 579 326 449 c 1,28,29
 414 477 414 477 494.5 543.5 c 128,-1,30
 575 610 575 610 575 688 c 0,23,24
EndSplineSet
Substitution2: "'ss19' Latin to Gothic transliteration subtable" u10334
Comment: "last+AD0A-30" 
Colour: ffffff
EndChar

StartChar: f
Encoding: 102 102 70
Width: 624
Flags: MW
LayerCount: 2
Fore
SplineSet
295 -96 m 2,0,1
 274 -202 274 -202 225.5 -319.5 c 128,-1,2
 177 -437 177 -437 89 -494 c 128,-1,3
 1 -551 1 -551 -96 -551 c 0,4,5
 -184 -551 -184 -551 -235.5 -510 c 128,-1,6
 -287 -469 -287 -469 -287 -424 c 256,7,8
 -287 -379 -287 -379 -258 -349 c 128,-1,9
 -229 -319 -229 -319 -195 -319 c 0,10,11
 -135 -319 -135 -319 -104.5 -382.5 c 128,-1,12
 -74 -446 -74 -446 -43 -446 c 0,13,14
 3 -446 3 -446 24 -400.5 c 128,-1,15
 45 -355 45 -355 66 -250 c 2,16,-1
 266 737 l 1,17,-1
 86 737 l 2,18,19
 78 737 78 737 78 751 c 0,20,21
 78 782 78 782 99 824 c 0,22,23
 109 844 109 844 119 844 c 2,24,-1
 287 844 l 1,25,26
 354 1203 354 1203 476 1333.5 c 128,-1,27
 598 1464 598 1464 799 1464 c 0,28,29
 901 1464 901 1464 963.5 1409 c 128,-1,30
 1026 1354 1026 1354 1026 1268 c 0,31,32
 1026 1149 1026 1149 932 1149 c 0,33,34
 890 1149 890 1149 859.5 1172.5 c 128,-1,35
 829 1196 829 1196 829 1275 c 0,36,37
 829 1382 829 1382 748 1382 c 0,38,39
 682 1382 682 1382 611.5 1287 c 128,-1,40
 541 1192 541 1192 485 844 c 1,41,-1
 741 844 l 2,42,43
 749 844 749 844 749 832 c 0,44,45
 749 808 749 808 726 758 c 0,46,47
 716 737 716 737 707 737 c 2,48,-1
 463 737 l 1,49,-1
 295 -96 l 2,0,1
EndSplineSet
Substitution2: "'ss19' Latin to Gothic transliteration subtable" u10346
Substitution2: "'swsh' Swash in Latin lookup 17-1" uniF194
Substitution2: "'salt' Stylistic Alternatives in Latin lookup 5" f.alt
Substitution2: "Single Substitution dot tagless lookup-1" f.alt
Substitution2: "'ss02' Style Set 2 in Latin lookup 7" uniA77C
Comment: "last+AD0A-49" 
Colour: ffffff
EndChar

StartChar: g
Encoding: 103 103 71
Width: 868
Flags: MW
AnchorPoint: "Anchor-0" 586 900 basechar 0
LayerCount: 2
Fore
SplineSet
973 754 m 0,0,1
 973 664 973 664 909 664 c 256,2,3
 874 664 874 664 770 705 c 1,4,5
 784 668 784 668 784 597.5 c 128,-1,6
 784 527 784 527 743 434.5 c 128,-1,7
 702 342 702 342 624 277.5 c 128,-1,8
 546 213 546 213 442 193 c 0,9,10
 385 181 385 181 383 179 c 24,11,12
 332 147 332 147 331.5 108.5 c 128,-1,13
 331 70 331 70 480 5 c 0,14,15
 592 -44 592 -44 698.5 -117 c 128,-1,16
 805 -190 805 -190 805 -300.5 c 128,-1,17
 805 -411 805 -411 642 -485 c 128,-1,18
 479 -559 479 -559 270 -559 c 256,19,20
 94 -559 94 -559 -6 -488.5 c 128,-1,21
 -106 -418 -106 -418 -106 -327.5 c 128,-1,22
 -106 -237 -106 -237 13 -173.5 c 128,-1,23
 132 -110 132 -110 238 -76 c 1,24,25
 143 -27 143 -27 143 33 c 0,26,27
 143 100 143 100 293 197 c 1,28,29
 86 255 86 255 86 429.5 c 128,-1,30
 86 604 86 604 232.5 728 c 128,-1,31
 379 852 379 852 578 852 c 0,32,33
 623 852 623 852 687 822.5 c 0,34,35
 752 793 752 793 786 793 c 0,36,37
 804 793 804 793 851.5 803 c 128,-1,38
 899 813 899 813 920 813 c 0,39,40
 973 813 973 813 973 754 c 0,0,1
606 715 m 0,41,42
 606 756 606 756 565 756 c 0,43,44
 473 756 473 756 370.5 605.5 c 128,-1,45
 268 455 268 455 268 319 c 0,46,47
 268 279 268 279 319 279 c 0,48,49
 416 279 416 279 511 429.5 c 128,-1,50
 606 580 606 580 606 715 c 0,41,42
596 -324 m 256,51,52
 596 -274 596 -274 482 -201.5 c 128,-1,53
 368 -129 368 -129 318.5 -129 c 128,-1,54
 269 -129 269 -129 190 -184.5 c 128,-1,55
 111 -240 111 -240 111 -307.5 c 128,-1,56
 111 -375 111 -375 205.5 -413 c 128,-1,57
 300 -451 300 -451 394 -451 c 128,-1,58
 488 -451 488 -451 542 -421.5 c 128,-1,59
 596 -392 596 -392 596 -324 c 256,51,52
EndSplineSet
Substitution2: "'ss19' Latin to Gothic transliteration subtable" u10332
Substitution2: "'swsh' Swash in Latin lookup 17-1" uniF196
Substitution2: "'ss02' Style Set 2 in Latin lookup 7" uniF10F
Comment: "Last+AD0A-58" 
Colour: ffffff
EndChar

StartChar: h
Encoding: 104 104 72
Width: 942
Flags: MW
AnchorPoint: "below" 306.5 -75 basechar 0
LayerCount: 2
Fore
SplineSet
932 610 m 0,0,1
 932 440 932 440 816.5 206.5 c 128,-1,2
 701 -27 701 -27 522 -27 c 0,3,4
 463 -27 463 -27 421 9 c 128,-1,5
 379 45 379 45 379 92 c 0,6,7
 379 141 379 141 404.5 173 c 128,-1,8
 430 205 430 205 477 205 c 0,9,10
 538 205 538 205 556.5 147.5 c 128,-1,11
 575 90 575 90 603.5 90 c 128,-1,12
 632 90 632 90 659 167 c 128,-1,13
 686 244 686 244 707.5 366 c 128,-1,14
 729 488 729 488 729 588 c 256,15,16
 729 721 729 721 638 721 c 256,17,18
 547 721 547 721 401 496 c 0,19,20
 362 436 362 436 313 240 c 2,21,-1
 252 -4 l 2,22,23
 246 -27 246 -27 152 -27 c 256,24,25
 57 -27 57 -27 57 10 c 0,26,-1
 57 14 l 9,27,-1
 346 1217 l 2,28,29
 356 1257 356 1257 356 1287 c 0,30,31
 356 1360 356 1360 293 1360 c 0,32,33
 272 1360 272 1360 273 1396 c 128,-1,34
 274 1432 274 1432 293 1432 c 0,35,36
 379 1432 379 1432 476 1459.5 c 128,-1,37
 573 1487 573 1487 582 1487 c 0,38,39
 607 1487 607 1487 598 1448 c 2,40,-1
 410 649 l 1,41,-1
 426 639 l 1,42,43
 580 852 580 852 731 852 c 0,44,45
 932 852 932 852 932 610 c 0,0,1
EndSplineSet
Substitution2: "'ss19' Latin to Gothic transliteration subtable" u10337
Comment: "last+AD0A-45" 
Colour: ffffff
EndChar

StartChar: i
Encoding: 105 105 73
Width: 534
Flags: MW
AnchorPoint: "below" 206.5 -75 basechar 0
LayerCount: 2
Fore
SplineSet
332 180 m 2,0,1
 328 166 328 166 328 158 c 0,2,3
 328 141 328 141 353.5 141 c 128,-1,4
 379 141 379 141 442 221 c 24,5,6
 453 235 453 235 480 210 c 0,7,8
 500 192 500 192 501 182 c 0,9,10
 501 178 501 178 498 174 c 0,11,12
 434 95 434 95 354 34 c 128,-1,13
 274 -27 274 -27 219 -27 c 0,14,15
 118 -27 118 -27 118 98 c 0,16,17
 118 132 118 132 129 168 c 2,18,-1
 276 647 l 2,19,20
 280 660 280 660 280 668 c 0,21,22
 280 688 280 688 261 688 c 128,-1,23
 242 688 242 688 164 606 c 0,24,25
 152 594 152 594 126 620 c 0,26,27
 108 638 108 638 108 648 c 0,28,29
 108 651 108 651 111 655 c 0,30,31
 174 732 174 732 253 792 c 128,-1,32
 332 852 332 852 387 852 c 0,33,34
 491 852 491 852 491 726 c 0,35,36
 491 701 491 701 479 662 c 2,37,-1
 332 180 l 2,0,1
635 1140 m 256,38,39
 635 1086 635 1086 591.5 1048 c 128,-1,40
 548 1010 548 1010 496 1010 c 256,41,42
 354 1010 354 1010 354 1162 c 256,43,44
 354 1212 354 1212 398 1251 c 128,-1,45
 442 1290 442 1290 496 1290 c 256,46,47
 636 1290 636 1290 635 1140 c 256,38,39
EndSplineSet
Substitution2: "'ss19' Latin to Gothic transliteration subtable" u10339
Substitution2: "Single Substitution dot tagless lookup-1" dotlessi
Comment: "last+AD0A-47" 
Colour: ffffff
EndChar

StartChar: j
Encoding: 106 106 74
Width: 491
Flags: MW
LayerCount: 2
Fore
SplineSet
342 143 m 2,0,1
 312 -1 312 -1 260 -150.5 c 128,-1,2
 208 -300 208 -300 94 -426.5 c 128,-1,3
 -20 -553 -20 -553 -209 -553 c 0,4,5
 -250 -553 -250 -553 -280.5 -528.5 c 128,-1,6
 -311 -504 -311 -504 -311 -461 c 0,7,8
 -311 -420 -311 -420 -279.5 -394.5 c 128,-1,9
 -248 -369 -248 -369 -207 -369 c 0,10,11
 -176 -369 -176 -369 -139 -407.5 c 128,-1,12
 -102 -446 -102 -446 -76 -446 c 0,13,14
 -41 -446 -41 -446 -5 -390 c 128,-1,15
 31 -334 31 -334 55 -229 c 2,16,-1
 264 647 l 2,17,18
 267 659 267 659 267 667 c 0,19,20
 267 688 267 688 242 688 c 128,-1,21
 217 688 217 688 150 604 c 0,22,23
 140 591 140 591 113 616 c 0,24,25
 93 634 93 634 93 644 c 0,26,27
 93 648 93 648 96 651 c 0,28,29
 262 852 262 852 381 852 c 0,30,31
 472 852 472 852 472 729 c 0,32,33
 472 698 472 698 465 666 c 2,34,-1
 342 143 l 2,0,1
597 1140 m 256,35,36
 597 1086 597 1086 553.5 1048 c 128,-1,37
 510 1010 510 1010 458 1010 c 256,38,39
 316 1010 316 1010 316 1162 c 256,40,41
 316 1212 316 1212 360 1251 c 128,-1,42
 404 1290 404 1290 458 1290 c 256,43,44
 598 1290 598 1290 597 1140 c 256,35,36
EndSplineSet
Substitution2: "'ss19' Latin to Gothic transliteration subtable" u1033E
Substitution2: "Alternative j-1" j.alt
Substitution2: "Single Substitution dot tagless lookup-1" uni0237
Comment: "last+AD0A-44" 
Colour: ffffff
EndChar

StartChar: k
Encoding: 107 107 75
Width: 929
Flags: MW
AnchorPoint: "below" 324.5 -75 basechar 0
LayerCount: 2
Fore
SplineSet
866 707 m 256,0,1
 866 631 866 631 773 543.5 c 128,-1,2
 680 456 680 456 578 404 c 0,3,4
 565 397 565 397 565 386 c 128,-1,6
 565 375 565 375 575 360 c 2,7,-1
 694 195 l 2,8,9
 770 90 770 90 825 90 c 0,10,11
 859 90 859 90 899 131 c 0,12,13
 902 134 902 134 907 134 c 0,14,15
 917 134 917 134 935 118.5 c 128,-1,16
 953 103 953 103 953 93 c 0,17,18
 953 89 953 89 950 86 c 0,19,20
 852 -27 852 -27 748 -27 c 0,21,22
 662 -27 662 -27 615.5 1 c 128,-1,23
 569 29 569 29 516 109 c 2,24,-1
 379 319 l 2,25,26
 369 340 369 340 344 340 c 0,27,28
 334 340 334 340 328 313 c 2,29,-1
 252 -6 l 2,30,31
 246 -27 246 -27 147.5 -27 c 128,-1,32
 49 -27 49 -27 57 12 c 2,33,-1
 348 1214 l 2,34,35
 357 1253 357 1253 357 1271 c 0,36,37
 357 1360 357 1360 293 1360 c 0,38,39
 272 1360 272 1360 273 1396 c 128,-1,40
 274 1432 274 1432 293 1432 c 0,41,42
 377 1432 377 1432 475 1459.5 c 128,-1,43
 573 1487 573 1487 582 1487 c 0,44,45
 606 1487 606 1487 598 1448 c 2,46,-1
 424 717 l 1,47,-1
 440 709 l 1,48,49
 489 766 489 766 565 809 c 128,-1,50
 641 852 641 852 707 852 c 0,51,52
 766 852 766 852 816 820 c 128,-1,53
 866 788 866 788 866 707 c 256,0,1
659 684 m 0,54,55
 659 739 659 739 623 739 c 0,56,57
 527 739 527 739 420 610 c 0,58,59
 389 573 389 573 383 547 c 2,60,-1
 354 424 l 2,61,62
 352 417 352 417 352 408 c 0,63,64
 352 393 352 393 378 393 c 0,65,66
 480 393 480 393 569.5 491 c 128,-1,67
 659 589 659 589 659 684 c 0,54,55
EndSplineSet
Substitution2: "'ss19' Latin to Gothic transliteration subtable" u1033A
Substitution2: "'swsh' Swash in Latin lookup 17-1" uniF195
Comment: "last+AD0A-67" 
Colour: ffffff
EndChar

StartChar: l
Encoding: 108 108 76
Width: 497
Flags: MW
AnchorPoint: "below" 168.5 -75 basechar 0
LayerCount: 2
Fore
SplineSet
296 195 m 2,0,1
 291 174 291 174 291 166 c 3,2,3
 291 142 291 142 311 141 c 0,4,5
 345 141 345 141 403 227 c 0,6,7
 406 233 406 233 414 233 c 0,8,9
 425 233 425 233 444.5 217 c 128,-1,10
 464 201 464 201 464 190 c 0,11,12
 464 186 464 186 461 182 c 0,13,14
 303 -27 303 -27 180 -27 c 0,15,16
 85 -27 85 -27 85 101 c 0,17,18
 85 127 85 127 92 156 c 2,19,-1
 340 1210 l 2,20,21
 350 1254 350 1254 350 1285 c 0,22,23
 350 1360 350 1360 289 1360 c 0,24,25
 268 1360 268 1360 269 1396 c 128,-1,26
 270 1432 270 1432 289 1432 c 0,27,28
 373 1432 373 1432 469 1459.5 c 128,-1,29
 565 1487 565 1487 573 1487 c 0,30,31
 601 1487 601 1487 592 1448 c 2,32,-1
 296 195 l 2,0,1
EndSplineSet
Substitution2: "'ss19' Latin to Gothic transliteration subtable" u1033B
Comment: "last+AD0A-32" 
Colour: ffffff
EndChar

StartChar: m
Encoding: 109 109 77
Width: 1525
Flags: MW
AnchorPoint: "below" 650.5 -75 basechar 0
AnchorPoint: "Anchor-0" 897 900 basechar 0
LayerCount: 2
Fore
SplineSet
1330 232 m 2,0,1
 1310 164 1310 164 1309 156 c 0,2,3
 1309 139 1309 139 1333 139 c 128,-1,4
 1357 139 1357 139 1436 227 c 0,5,6
 1440 231 1440 231 1445 231 c 0,7,8
 1455 231 1455 231 1473.5 214 c 128,-1,9
 1492 197 1492 197 1492 186 c 0,10,11
 1492 182 1492 182 1489 178 c 0,12,13
 1320 -27 1320 -27 1194 -27 c 0,14,15
 1098 -27 1098 -27 1098 108 c 0,16,17
 1098 129 1098 129 1110 168 c 2,18,-1
 1237 580 l 2,19,20
 1262 661 1262 661 1262 702 c 256,21,22
 1262 743 1262 743 1235 743 c 0,23,24
 1185 743 1185 743 1116 658 c 128,-1,25
 1047 573 1047 573 973.5 447 c 128,-1,26
 900 321 900 321 762 -8 c 0,27,28
 752 -31 752 -31 653.5 -31.5 c 128,-1,29
 555 -32 555 -32 565 1 c 2,30,-1
 729 535 l 2,31,32
 772 675 772 675 772 707 c 0,33,34
 772 743 772 743 748 743 c 0,35,36
 709 743 709 743 648.5 678.5 c 128,-1,37
 588 614 588 614 512 495 c 128,-1,38
 436 376 436 376 270 -4 c 0,39,40
 260 -27 260 -27 163.5 -27 c 128,-1,41
 67 -27 67 -27 74 3 c 2,42,-1
 264 614 l 2,43,44
 276 653 276 653 276 664 c 0,45,46
 276 688 276 688 252.5 688 c 128,-1,47
 229 688 229 688 164 606 c 0,48,49
 160 601 160 601 155 601 c 0,50,51
 144 601 144 601 126 619 c 128,-1,52
 108 637 108 637 108 648 c 0,53,54
 108 652 108 652 111 655 c 0,55,56
 275 852 275 852 391 852 c 0,57,58
 481 852 481 852 481 743 c 0,59,60
 481 710 481 710 471 676 c 2,61,-1
 420 504 l 1,62,-1
 430 500 l 1,63,64
 510 643 510 643 613.5 747.5 c 128,-1,65
 717 852 717 852 815 852 c 0,66,67
 948 852 948 852 948 719 c 0,68,69
 948 659 948 659 910 523 c 2,70,-1
 905 504 l 1,71,-1
 915 500 l 1,72,73
 1118 852 1118 852 1313 852 c 0,74,75
 1454 852 1454 852 1454 711 c 0,76,77
 1454 643 1454 643 1425 547 c 2,78,-1
 1330 232 l 2,0,1
EndSplineSet
Substitution2: "'ss19' Latin to Gothic transliteration subtable" u1033C
Comment: "last+AD0A-78" 
Colour: ffffff
EndChar

StartChar: n
Encoding: 110 110 78
Width: 1024
Flags: MW
AnchorPoint: "below" 426.5 -75 basechar 0
AnchorPoint: "Anchor-0" 729 900 basechar 0
LayerCount: 2
Fore
SplineSet
831 232 m 2,0,1
 811 167 811 167 811 161 c 0,2,3
 811 141 811 141 834 141 c 128,-1,4
 857 141 857 141 932 225 c 0,5,6
 935 229 935 229 940 229 c 0,7,8
 950 229 950 229 970 211.5 c 128,-1,9
 990 194 990 194 990 183 c 0,10,11
 990 179 990 179 987 176 c 0,12,13
 825 -27 825 -27 690 -27 c 0,14,15
 600 -27 600 -27 600 101 c 0,16,17
 600 134 600 134 610 168 c 2,18,-1
 735 580 l 2,19,20
 766 682 766 682 766 711 c 0,21,22
 766 743 766 743 748 743 c 0,23,24
 649 743 649 743 498.5 478.5 c 128,-1,25
 348 214 348 214 272 -4 c 0,26,27
 264 -27 264 -27 165 -27 c 0,28,29
 66 -26 66 -26 74 -2 c 2,30,-1
 268 621 l 2,31,32
 279 656 279 656 279 666 c 0,33,34
 279 688 279 688 256 688 c 128,-1,35
 233 688 233 688 164 606 c 0,36,37
 160 602 160 602 155 602 c 0,38,39
 144 602 144 602 126 619.5 c 128,-1,40
 108 637 108 637 108 648 c 0,41,42
 108 652 108 652 111 655 c 0,43,44
 282 852 282 852 393 852 c 0,45,46
 481 852 481 852 481 748 c 0,47,48
 481 711 481 711 465 666 c 2,49,-1
 408 504 l 1,50,-1
 420 500 l 1,51,52
 621 852 621 852 811 852 c 0,53,54
 954 852 954 852 954 711 c 0,55,56
 954 640 954 640 926 547 c 2,57,-1
 831 232 l 2,0,1
EndSplineSet
Substitution2: "'ss19' Latin to Gothic transliteration subtable" u1033D
Substitution2: "'swsh' Swash in Latin lookup 17-1" uniF19A
Comment: "last+AD0A-56" 
Colour: ffffff
EndChar

StartChar: o
Encoding: 111 111 79
Width: 948
Flags: MW
AnchorPoint: "below" 354.5 -75 basechar 0
AnchorPoint: "Anchor-0" 648 900 basechar 0
LayerCount: 2
Fore
SplineSet
909 528 m 0,0,1
 909 319 909 319 760.5 146 c 128,-1,2
 612 -27 612 -27 391 -27 c 0,3,4
 252 -27 252 -27 182.5 70.5 c 128,-1,5
 113 168 113 168 113 315 c 0,6,7
 113 506 113 506 275.5 679 c 128,-1,8
 438 852 438 852 631 852 c 0,9,10
 770 852 770 852 839.5 762 c 128,-1,11
 909 672 909 672 909 528 c 0,0,1
731 629 m 0,12,13
 731 748 731 748 641 748 c 0,14,15
 536 748 536 748 415.5 547 c 128,-1,16
 295 346 295 346 295 203 c 0,17,18
 295 86 295 86 391 86 c 0,19,20
 486 86 486 86 608.5 287 c 128,-1,21
 731 488 731 488 731 629 c 0,12,13
EndSplineSet
Substitution2: "'ss19' Latin to Gothic transliteration subtable" u10349
Comment: "last+AD0A-21" 
Colour: ffffff
EndChar

StartChar: p
Encoding: 112 112 80
Width: 911
Flags: MW
LayerCount: 2
Fore
SplineSet
901 516 m 0,0,1
 901 307 901 307 722 140 c 128,-1,2
 543 -27 543 -27 336 -27 c 0,3,4
 315 -27 315 -27 279 -23 c 1,5,-1
 186 -401 l 2,6,7
 182 -418 182 -418 182 -431 c 0,8,9
 182 -485 182 -485 299 -485 c 0,10,11
 309 -485 309 -485 309 -499 c 0,12,13
 309 -515 309 -515 300 -537 c 128,-1,14
 291 -559 291 -559 279 -559 c 1,15,16
 197 -551 197 -551 64.5 -551 c 128,-1,17
 -68 -551 -68 -551 -150 -559 c 1,18,19
 -158 -559 -158 -559 -158 -548 c 256,20,21
 -158 -532 -158 -532 -149.5 -508.5 c 128,-1,22
 -141 -485 -141 -485 -127 -485 c 0,23,24
 -29 -485 -29 -485 -10 -410 c 2,25,-1
 252 670 l 1,26,27
 208 647 208 647 137 588 c 0,28,29
 134 585 134 585 129 585 c 0,30,31
 118 585 118 585 101.5 603 c 128,-1,32
 85 621 85 621 85 632 c 0,33,34
 85 636 85 636 88 639 c 0,35,36
 176 726 176 726 274 776 c 1,37,-1
 326 1012 l 2,38,39
 333 1044 333 1044 396.5 1062 c 128,-1,40
 460 1080 460 1080 499 1080 c 0,41,42
 542 1080 542 1080 537 1053 c 2,43,-1
 487 840 l 1,44,45
 541 844 541 844 555 844 c 0,46,47
 702 844 702 844 801.5 756 c 128,-1,48
 901 668 901 668 901 516 c 0,0,1
686 481 m 0,49,50
 686 592 686 592 647 666.5 c 128,-1,51
 608 741 608 741 516 741 c 0,52,53
 492 741 492 741 461 735 c 1,54,-1
 309 112 l 2,55,56
 305 94 305 94 305 80 c 0,57,58
 305 55 305 55 340 55 c 0,59,60
 479 55 479 55 582.5 193.5 c 128,-1,61
 686 332 686 332 686 481 c 0,49,50
EndSplineSet
Substitution2: "'ss19' Latin to Gothic transliteration subtable" u10340
Comment: "last+AD0A-61" 
Colour: ffffff
EndChar

StartChar: q
Encoding: 113 113 81
Width: 980
Flags: MW
AnchorPoint: "Anchor-0" 708 900 basechar 0
LayerCount: 2
Fore
SplineSet
717 -369 m 2,0,1
 714 -382 714 -382 714 -394 c 0,2,3
 714 -436 714 -436 766 -436 c 0,4,5
 786 -436 786 -436 813 -432 c 0,6,7
 823 -430 823 -430 823 -450 c 0,8,9
 823 -510 823 -510 791 -510 c 0,10,11
 630 -510 630 -510 377 -559 c 1,12,13
 366 -559 366 -559 366 -543 c 0,14,15
 366 -482 366 -482 410 -478 c 0,16,17
 496 -471 496 -471 520 -373 c 2,18,-1
 672 258 l 1,19,-1
 662 266 l 1,20,21
 558 144 558 144 442 58.5 c 128,-1,22
 326 -27 326 -27 233 -27 c 0,23,24
 147 -27 147 -27 105 29.5 c 128,-1,25
 63 86 63 86 63 160 c 256,26,27
 63 377 63 377 250.5 614.5 c 128,-1,28
 438 852 438 852 705 852 c 0,29,30
 779 852 779 852 829 780 c 1,31,-1
 891 887 l 2,32,33
 901 905 901 905 925 905 c 0,34,35
 1033 905 1033 905 1016 840 c 2,36,-1
 930 516 l 25,37,-1
 717 -369 l 2,0,1
739 627 m 0,38,39
 739 770 739 770 655 770 c 0,40,41
 531 770 531 770 408 538 c 128,-1,42
 285 306 285 306 285 150 c 0,43,44
 285 98 285 98 334 98 c 0,45,46
 381 98 381 98 488.5 192.5 c 128,-1,47
 596 287 596 287 658 387 c 0,48,49
 739 521 739 521 739 627 c 0,38,39
EndSplineSet
Substitution2: "'ss19' Latin to Gothic transliteration subtable" u10335
Comment: "last+AD0A-49" 
Colour: ffffff
EndChar

StartChar: r
Encoding: 114 114 82
Width: 768
Flags: MW
AnchorPoint: "below" 318.5 -75 basechar 0
AnchorPoint: "Anchor-0" 567 900 basechar 0
LayerCount: 2
Fore
SplineSet
850 739 m 256,0,1
 850 690 850 690 825.5 662.5 c 128,-1,2
 801 635 801 635 760 635 c 0,3,4
 715 635 715 635 683 663.5 c 128,-1,5
 651 692 651 692 627 692 c 0,6,7
 569 692 569 692 477 497 c 128,-1,8
 385 302 385 302 305 -4 c 0,9,10
 299 -27 299 -27 204 -27 c 128,-1,11
 109 -27 109 -27 109 8 c 0,12,13
 109 12 109 12 109 14 c 2,14,-1
 231 598 l 2,15,16
 244 660 244 660 244 669 c 0,17,18
 244 688 244 688 221.5 688 c 128,-1,19
 199 688 199 688 131 596 c 0,20,21
 128 591 128 591 121 591 c 0,22,23
 111 591 111 591 93 605 c 0,24,25
 70 622 70 622 70 633 c 0,26,27
 70 636 70 636 72 639 c 0,28,29
 162 757 162 757 232 804.5 c 128,-1,30
 302 852 302 852 358 852 c 0,31,32
 442 852 442 852 442 756 c 0,33,34
 442 720 442 720 434 684 c 2,35,-1
 408 567 l 1,36,-1
 420 563 l 1,37,38
 563 852 563 852 713 852 c 0,39,40
 768 852 768 852 809 820 c 128,-1,41
 850 788 850 788 850 739 c 256,0,1
EndSplineSet
Substitution2: "'ss19' Latin to Gothic transliteration subtable" u10342
Substitution2: "'swsh' Swash in Latin lookup 17-1" uniF19B
Substitution2: "'ss02' Style Set 2 in Latin lookup 7" uniA783
Comment: "last+AD0A-41" 
Colour: ffffff
EndChar

StartChar: s
Encoding: 115 115 83
Width: 618
Flags: MW
AnchorPoint: "below" 212.5 -75 basechar 0
AnchorPoint: "Anchor-0" 474 900 basechar 0
LayerCount: 2
Fore
SplineSet
637 707 m 0,0,1
 637 676 637 676 611.5 647 c 128,-1,2
 586 618 586 618 557 618 c 0,3,4
 479 618 479 618 443.5 681.5 c 128,-1,5
 408 745 408 745 346 745 c 0,6,7
 324 745 324 745 309.5 730 c 128,-1,8
 295 715 295 715 295 694 c 0,9,10
 295 642 295 642 419 501 c 128,-1,11
 543 360 543 360 543 250 c 128,-1,12
 543 140 543 140 449.5 56.5 c 128,-1,13
 356 -27 356 -27 215 -27 c 0,14,15
 141 -27 141 -27 91 18 c 128,-1,16
 41 63 41 63 41 107 c 256,17,18
 41 149 41 149 64 182 c 128,-1,19
 87 215 87 215 133 215 c 0,20,21
 205 215 205 215 246.5 155.5 c 128,-1,22
 288 96 288 96 345 96 c 0,23,24
 408 96 408 96 408 160 c 0,25,26
 408 204 408 204 292 332 c 128,-1,27
 176 460 176 460 176 575 c 256,28,29
 176 704 176 704 259 778 c 128,-1,30
 342 852 342 852 467 852 c 0,31,32
 535 852 535 852 586 804 c 128,-1,33
 637 756 637 756 637 707 c 0,0,1
EndSplineSet
Substitution2: "'ss19' Latin to Gothic transliteration subtable" u10343
Substitution2: "'hist' Historical Forms in Latin-1" longs
Substitution2: "'ss02' Style Set 2 in Latin lookup 7" uniA785
Comment: "last+AD0A-34" 
Colour: ffffff
EndChar

StartChar: t
Encoding: 116 116 84
Width: 604
Flags: MW
AnchorPoint: "below" 202.5 -75 basechar 0
LayerCount: 2
Fore
SplineSet
311 233 m 2,0,1
 297 188 297 188 297 162 c 0,2,3
 297 125 297 125 324 125 c 0,4,5
 388 125 388 125 551 317 c 0,6,7
 554 321 554 321 559 321 c 0,8,9
 570 320 570 320 586 304 c 0,10,11
 612 279 612 279 602 266 c 0,12,13
 500 122 500 122 407.5 47.5 c 128,-1,14
 315 -27 315 -27 209 -27 c 0,15,16
 150 -27 150 -27 117 14 c 128,-1,17
 84 55 84 55 84 104 c 0,18,19
 84 148 84 148 94 180 c 2,20,-1
 260 713 l 1,21,-1
 100 713 l 2,22,23
 84 714 84 714 89 750 c 256,24,25
 94 788 94 788 119 793 c 2,26,-1
 295 829 l 1,27,-1
 434 1026 l 2,28,29
 439 1033 439 1033 463 1033 c 0,30,31
 543 1033 543 1033 543 995 c 0,32,33
 543 988 543 988 540 980 c 2,34,-1
 489 819 l 1,35,-1
 729 819 l 2,36,37
 738 819 738 819 738 804 c 128,-1,38
 738 789 738 789 729.5 751 c 128,-1,39
 721 713 721 713 707 713 c 2,40,-1
 459 713 l 1,41,-1
 311 233 l 2,0,1
EndSplineSet
Substitution2: "'ss19' Latin to Gothic transliteration subtable" u10344
Substitution2: "'swsh' Swash in Latin lookup 17-1" uniF199
Substitution2: "'ss02' Style Set 2 in Latin lookup 7" uniA787
Comment: "last+AD0A-41" 
Colour: ffffff
EndChar

StartChar: u
Encoding: 117 117 85
Width: 1019
Flags: MW
AnchorPoint: "below" 378.5 -75 basechar 0
AnchorPoint: "Anchor-0" 621 900 basechar 0
LayerCount: 2
Fore
SplineSet
823 231 m 2,0,1
 803 166 803 166 803 162 c 0,2,3
 803 141 803 141 829.5 141 c 128,-1,4
 856 141 856 141 930 225 c 0,5,6
 933 228 933 228 938 228 c 0,7,8
 949 228 949 228 966 212 c 0,9,10
 985 193 985 193 985 182 c 0,11,12
 985 179 985 179 983 176 c 0,13,14
 818 -27 818 -27 698 -27 c 0,15,16
 592 -27 592 -27 592 94 c 0,17,18
 592 129 592 129 604 170 c 2,19,-1
 649 322 l 1,20,21
 549 184 549 184 432 78.5 c 128,-1,22
 315 -27 315 -27 244 -27 c 0,23,24
 119 -27 119 -27 119 96 c 0,25,26
 119 145 119 145 139 209 c 2,27,-1
 266 616 l 2,28,29
 281 664 281 664 281 670 c 0,30,31
 281 688 281 688 262.5 688 c 128,-1,32
 244 688 244 688 218 665 c 256,33,34
 192 642 192 642 162 604 c 0,35,36
 158 599 158 599 153 599 c 0,37,38
 143 599 143 599 125 615 c 0,39,40
 106 632 106 632 106 643 c 0,41,42
 106 648 106 648 109 651 c 0,43,44
 264 852 264 852 399 852 c 0,45,46
 489 852 489 852 489 727 c 0,47,48
 489 690 489 690 473 639 c 2,49,-1
 377 332 l 2,50,51
 340 214 340 214 340 174 c 0,52,53
 340 133 340 133 362 133 c 0,54,55
 413 133 413 133 515.5 269.5 c 128,-1,56
 618 406 618 406 670 501 c 0,57,58
 762 672 762 672 809 830 c 256,59,60
 815 852 815 852 903 852 c 0,61,62
 1015 852 1015 852 1004 817 c 2,63,-1
 823 231 l 2,0,1
EndSplineSet
Substitution2: "'ss19' Latin to Gothic transliteration subtable" u1033F
Comment: "last+AD0A-63" 
Colour: ffffff
EndChar

StartChar: v
Encoding: 118 118 86
Width: 843
Flags: MW
AnchorPoint: "below" 262.5 -75 basechar 0
AnchorPoint: "Anchor-0" 579 900 basechar 0
LayerCount: 2
Fore
SplineSet
868 707 m 0,0,1
 868 569 868 569 785.5 389 c 128,-1,2
 703 209 703 209 553 91 c 128,-1,3
 403 -27 403 -27 272 -27 c 0,4,5
 208 -27 208 -27 174 0.5 c 128,-1,6
 140 28 140 28 126.5 75.5 c 128,-1,7
 113 123 113 123 129 174 c 2,8,-1
 256 582 l 2,9,10
 279 655 279 655 279 663 c 0,11,12
 279 688 279 688 262 688 c 0,13,14
 229 688 229 688 164 606 c 0,15,16
 153 593 153 593 127 618 c 0,17,18
 108 637 108 637 108 648 c 0,19,20
 108 652 108 652 111 655 c 0,21,22
 283 852 283 852 399 852 c 0,23,24
 444 852 444 852 466.5 817 c 128,-1,25
 489 782 489 782 489 729 c 0,26,27
 489 694 489 694 479 662 c 2,28,-1
 340 215 l 2,29,30
 326 169 326 169 334 132 c 0,31,32
 344 88 344 88 387 88 c 0,33,34
 476 88 476 88 587 254 c 128,-1,35
 698 420 698 420 698 567 c 0,36,37
 698 659 698 659 649 750 c 1,38,39
 649 852 649 852 748 852 c 0,40,41
 807 852 807 852 837.5 809 c 128,-1,42
 868 766 868 766 868 707 c 0,0,1
EndSplineSet
Comment: "last+AD0A-42" 
Colour: ffffff
EndChar

StartChar: w
Encoding: 119 119 87
Width: 1259
Flags: MW
AnchorPoint: "below" 476.5 -75 basechar 0
AnchorPoint: "Anchor-0" 792 900 basechar 0
LayerCount: 2
Fore
SplineSet
1284 707 m 0,0,1
 1284 587 1284 587 1199.5 397.5 c 128,-1,2
 1115 208 1115 208 965.5 90.5 c 128,-1,3
 816 -27 816 -27 688 -27 c 0,4,5
 632 -27 632 -27 596 -2 c 0,6,7
 559 24 559 24 545 76 c 1,8,9
 399 -27 399 -27 272 -27 c 0,10,11
 199 -27 199 -27 159 9 c 128,-1,12
 119 45 119 45 119 104 c 0,13,14
 119 135 119 135 131 174 c 2,15,-1
 256 580 l 2,16,17
 279 655 279 655 279 672 c 0,18,19
 279 688 279 688 256 688 c 128,-1,20
 233 688 233 688 164 606 c 0,21,22
 160 601 160 601 152 601.5 c 128,-1,23
 144 602 144 602 126.5 619 c 128,-1,24
 109 636 109 636 109 649 c 0,25,26
 109 655 109 655 113 659 c 0,27,28
 283 852 283 852 399 852 c 0,29,30
 489 852 489 852 489 733 c 0,31,32
 489 691 489 691 479 659 c 2,33,-1
 340 213 l 2,34,35
 332 187 332 187 332 158 c 0,36,37
 332 88 332 88 385 88 c 0,38,39
 432 88 432 88 470 127.5 c 128,-1,40
 508 167 508 167 546 231.5 c 128,-1,41
 584 296 584 296 610 381 c 2,42,-1
 743 823 l 2,43,44
 752 852 752 852 846.5 852 c 128,-1,45
 941 852 941 852 941 829 c 0,46,47
 941 826 941 826 940 823 c 2,48,-1
 752 211 l 2,49,50
 743 182 743 182 743 161 c 0,51,52
 743 88 743 88 813.5 88 c 128,-1,53
 884 88 884 88 998 249 c 128,-1,54
 1112 410 1112 410 1112 561 c 0,55,56
 1112 657 1112 657 1063 743 c 1,57,58
 1063 852 1063 852 1165 852 c 0,59,60
 1231 852 1231 852 1257.5 805 c 128,-1,61
 1284 758 1284 758 1284 707 c 0,0,1
EndSplineSet
Substitution2: "'ss19' Latin to Gothic transliteration subtable" u10345
Substitution2: "'ss02' Style Set 2 in Latin lookup 7" uni01BF
Comment: "last+AD0A-61" 
Colour: ffffff
EndChar

StartChar: x
Encoding: 120 120 88
Width: 901
Flags: MW
AnchorPoint: "below" 346.5 -75 basechar 0
AnchorPoint: "Anchor-0" 561 900 basechar 0
LayerCount: 2
Fore
SplineSet
954 743 m 0,0,1
 954 627 954 627 868 627 c 0,2,3
 834 627 834 627 817.5 666 c 128,-1,4
 801 705 801 705 776 705 c 0,5,6
 738 705 738 705 686 635 c 2,7,-1
 555 457 l 1,8,-1
 653 264 l 2,9,10
 705 162 705 162 729 162 c 256,11,12
 755 162 755 162 801 264 c 0,13,14
 805 274 805 274 820 274 c 128,-1,15
 835 274 835 274 849 267.5 c 128,-1,16
 863 261 863 261 860 250 c 0,17,18
 807 -27 807 -27 682 -27 c 0,19,20
 595 -27 595 -27 512 125 c 2,21,-1
 426 283 l 1,22,-1
 328 147 l 2,23,24
 203 -27 203 -27 100 -27 c 0,25,26
 57 -27 57 -27 30.5 -3.5 c 128,-1,27
 4 20 4 20 4 61 c 0,28,29
 4 117 4 117 30.5 158 c 128,-1,30
 57 199 57 199 92 199 c 256,31,32
 127 199 127 199 149.5 162 c 128,-1,33
 172 125 172 125 178 125 c 0,34,35
 212 125 212 125 252 180 c 2,36,-1
 385 362 l 1,37,-1
 274 578 l 2,38,39
 234 670 234 670 215 670 c 256,40,41
 200 670 200 670 182 639.5 c 128,-1,42
 164 609 164 609 150 580 c 0,43,44
 147 574 147 574 137 574 c 128,-1,45
 127 574 127 574 105 587.5 c 128,-1,46
 83 601 83 601 88 614 c 0,47,48
 192 852 192 852 285 852 c 0,49,50
 360 852 360 852 420 731 c 2,51,-1
 516 537 l 1,52,-1
 606 662 l 2,53,54
 743 852 743 852 846 852 c 0,55,56
 903 852 903 852 928.5 823 c 128,-1,57
 954 794 954 794 954 743 c 0,0,1
EndSplineSet
Substitution2: "'ss19' Latin to Gothic transliteration subtable" u10347
Comment: "last+AD0A-57" 
Colour: ffffff
EndChar

StartChar: y
Encoding: 121 121 89
Width: 782
Flags: MW
AnchorPoint: "Anchor-0" 516 900 basechar 0
LayerCount: 2
Fore
SplineSet
809 764 m 0,0,1
 809 701 809 701 761 529.5 c 128,-1,2
 713 358 713 358 630.5 196 c 128,-1,3
 548 34 548 34 431 -170 c 128,-1,4
 314 -374 314 -374 208 -464.5 c 128,-1,5
 102 -555 102 -555 -4 -555 c 0,6,7
 -66 -555 -66 -555 -109 -524.5 c 128,-1,8
 -152 -494 -152 -494 -152 -446 c 0,9,10
 -152 -395 -152 -395 -125 -366.5 c 128,-1,11
 -98 -338 -98 -338 -51 -338 c 0,12,13
 -10 -338 -10 -338 18.5 -385 c 128,-1,14
 47 -432 47 -432 88 -432 c 0,15,16
 128 -432 128 -432 196 -361 c 128,-1,17
 264 -290 264 -290 290.5 -183 c 128,-1,18
 317 -76 317 -76 317 72 c 0,19,20
 317 332 317 332 294.5 509 c 128,-1,21
 272 686 272 686 217 686 c 0,22,23
 175 686 175 686 117 573 c 0,24,25
 114 566 114 566 103 566 c 128,-1,26
 92 566 92 566 70 579 c 128,-1,27
 48 592 48 592 53 604 c 0,28,29
 164 852 164 852 297 852 c 0,30,31
 395 852 395 852 449.5 686 c 128,-1,32
 504 520 504 520 504 309 c 0,33,34
 504 211 504 211 494 119 c 1,35,-1
 506 115 l 1,36,37
 565 231 565 231 606 389 c 128,-1,38
 647 547 647 547 647 645 c 0,39,40
 647 700 647 700 621 760 c 1,41,42
 621 852 621 852 715 852 c 128,-1,43
 809 852 809 852 809 764 c 0,0,1
EndSplineSet
Comment: "last+AD0A-43" 
Colour: ffffff
EndChar

StartChar: z
Encoding: 122 122 90
Width: 917
Flags: MW
AnchorPoint: "below" 408.5 -75 basechar 0
AnchorPoint: "Anchor-0" 591 900 basechar 0
LayerCount: 2
Fore
SplineSet
400 209 m 17,0,-1
 403 190 l 1,1,-1
 445 183 l 2,2,3
 551 165 551 165 632 118.5 c 128,-1,4
 713 72 713 72 729 72 c 256,5,6
 791 72 791 72 791 127 c 0,7,8
 791 145 791 145 761 175 c 128,-1,9
 731 205 731 205 731 254 c 0,10,11
 731 328 731 328 828 328 c 0,12,13
 869 328 869 328 896.5 294 c 128,-1,14
 924 260 924 260 924 215 c 0,15,16
 924 111 924 111 843 26 c 128,-1,17
 762 -59 762 -59 666 -59 c 0,18,19
 619 -59 619 -59 545 -29.5 c 128,-1,20
 471 0 471 0 395.5 33 c 128,-1,21
 320 66 320 66 285 66 c 0,22,23
 204 66 204 66 147 -20 c 0,24,25
 142 -27 142 -27 130 -27 c 0,26,27
 110 -27 110 -27 73 13 c 256,28,29
 36 54 36 54 37 76 c 0,30,31
 37 86 37 86 43 92 c 2,32,-1
 561 618 l 2,33,34
 573 630 573 630 573 642 c 0,35,36
 573 656 573 656 553 664 c 0,37,38
 459 700 459 700 340 696 c 0,39,40
 287 694 287 694 287 674 c 0,41,42
 287 666 287 666 319.5 635 c 128,-1,43
 352 604 352 604 352 567 c 0,44,45
 352 480 352 480 256 480 c 0,46,47
 154 480 154 480 154 591 c 0,48,49
 154 692 154 692 248.5 767 c 128,-1,50
 343 842 343 842 459 842 c 0,51,52
 512 842 512 842 606 814 c 128,-1,53
 700 786 700 786 743 786 c 0,54,55
 794 786 794 786 816 810 c 258,56,-1
 856 854 l 2,57,58
 863 860 863 860 872 860 c 0,59,60
 889 860 889 860 918 831 c 256,61,62
 946 801 946 801 946 785 c 0,63,64
 946 776 946 776 940 770 c 2,65,-1
 400 209 l 17,0,-1
EndSplineSet
Substitution2: "'ss19' Latin to Gothic transliteration subtable" u10336
Comment: "last+AD0A-65" 
Colour: ffffff
EndChar

StartChar: braceleft
Encoding: 123 123 91
Width: 784
Flags: MW
LayerCount: 2
Fore
SplineSet
1114 1493 m 0,0,1
 1128 1493 1128 1493 1118 1455 c 128,-1,2
 1108 1417 1108 1417 1094 1417 c 0,3,4
 959 1417 959 1417 888 1372 c 128,-1,5
 817 1327 817 1327 778 1184 c 2,6,-1
 715 950 l 2,7,8
 695 874 695 874 682.5 837.5 c 128,-1,9
 670 801 670 801 645.5 753 c 128,-1,10
 621 705 621 705 586 674 c 128,-1,11
 551 643 551 643 498 616 c 1,12,13
 564 569 564 569 571 492.5 c 128,-1,14
 578 416 578 416 543 305 c 2,15,-1
 471 39 l 2,16,17
 426 -141 426 -141 461 -192.5 c 128,-1,18
 496 -244 496 -244 649 -244 c 0,19,20
 663 -244 663 -244 653 -281.5 c 128,-1,21
 643 -319 643 -319 629 -319 c 0,22,23
 621 -319 621 -319 607 -320 c 0,24,25
 539 -320 539 -320 505 -318.5 c 128,-1,26
 471 -317 471 -317 415.5 -311 c 128,-1,27
 360 -305 360 -305 335.5 -294 c 128,-1,28
 311 -283 311 -283 279.5 -259.5 c 128,-1,29
 248 -236 248 -236 239.5 -201 c 128,-1,30
 231 -166 231 -166 232 -113.5 c 128,-1,31
 233 -61 233 -61 252 6 c 2,32,-1
 365 430 l 2,33,34
 388 512 388 512 362 549 c 128,-1,35
 336 586 336 586 254 586 c 0,36,37
 238 586 238 586 246 616.5 c 128,-1,38
 254 647 254 647 270 647 c 0,39,40
 352 647 352 647 397 683 c 128,-1,41
 442 719 442 719 463 797 c 2,42,-1
 551 1122 l 2,43,44
 569 1190 569 1190 589.5 1243 c 128,-1,45
 610 1296 610 1296 638 1335 c 128,-1,46
 666 1374 666 1374 689.5 1400.5 c 128,-1,47
 713 1427 713 1427 753 1444.5 c 128,-1,48
 793 1462 793 1462 822.5 1472.5 c 128,-1,49
 852 1483 852 1483 908.5 1487 c 128,-1,50
 965 1491 965 1491 1002.5 1492 c 128,-1,51
 1040 1493 1040 1493 1114 1493 c 0,0,1
EndSplineSet
EndChar

StartChar: bar
Encoding: 124 124 92
Width: 536
Flags: MW
LayerCount: 2
Fore
SplineSet
197 -334 m 1,0,-1
 197 1433 l 1,1,-1
 392 1433 l 1,2,-1
 392 -334 l 1,3,-1
 197 -334 l 1,0,-1
EndSplineSet
EndChar

StartChar: braceright
Encoding: 125 125 93
Width: 784
Flags: MW
LayerCount: 2
Fore
SplineSet
870 647 m 0,0,1
 884 647 884 647 876 616.5 c 128,-1,2
 868 586 868 586 854 586 c 0,3,4
 772 586 772 586 727 549 c 128,-1,5
 682 512 682 512 659 430 c 2,6,-1
 545 6 l 2,7,8
 529 -53 529 -53 508 -101.5 c 128,-1,9
 487 -150 487 -150 458.5 -182.5 c 128,-1,10
 430 -215 430 -215 404.5 -239.5 c 128,-1,11
 379 -264 379 -264 338 -278.5 c 128,-1,12
 297 -293 297 -293 268.5 -302 c 128,-1,13
 240 -311 240 -311 187.5 -314 c 128,-1,14
 135 -317 135 -317 106.5 -318 c 128,-1,15
 78 -319 78 -319 16 -320 c 0,16,17
 2 -320 2 -320 -6 -319 c 0,18,19
 -20 -319 -20 -319 -11 -281.5 c 128,-1,20
 -2 -244 -2 -244 14 -244 c 0,21,22
 168 -244 168 -244 231.5 -190.5 c 128,-1,23
 295 -137 295 -137 344 39 c 2,24,-1
 414 305 l 2,25,26
 449 430 449 430 492 499.5 c 128,-1,27
 535 569 535 569 625 616 c 1,28,29
 553 665 553 665 551 750.5 c 128,-1,30
 549 836 549 836 588 950 c 2,31,-1
 649 1184 l 2,32,33
 688 1327 688 1327 642 1372 c 128,-1,34
 596 1417 596 1417 459 1417 c 0,35,36
 445 1417 445 1417 455 1455 c 128,-1,37
 465 1493 465 1493 479 1493 c 0,38,39
 553 1493 553 1493 590 1492 c 128,-1,40
 627 1491 627 1491 681 1487 c 128,-1,41
 735 1483 735 1483 759.5 1472.5 c 128,-1,42
 784 1462 784 1462 815 1444.5 c 128,-1,43
 846 1427 846 1427 855 1400.5 c 128,-1,44
 864 1374 864 1374 871.5 1335 c 128,-1,45
 879 1296 879 1296 870.5 1243 c 128,-1,46
 862 1190 862 1190 844 1122 c 2,47,-1
 758 797 l 2,48,49
 735 719 735 719 761.5 683 c 128,-1,50
 788 647 788 647 870 647 c 0,0,1
EndSplineSet
EndChar

StartChar: asciitilde
Encoding: 126 126 94
Width: 743
Flags: MW
LayerCount: 2
Fore
SplineSet
735 518 m 0,0,1
 727 510 727 510 694.5 472 c 128,-1,2
 662 434 662 434 638 411.5 c 128,-1,3
 614 389 614 389 571 367.5 c 128,-1,4
 528 346 528 346 481 346 c 0,5,6
 430 346 430 346 331.5 392 c 128,-1,7
 233 438 233 438 188 438 c 0,8,9
 141 438 141 438 59 367 c 0,10,11
 45 353 45 353 19.5 377 c 128,-1,12
 -6 401 -6 401 6 416 c 0,13,14
 12 422 12 422 36.5 451.5 c 128,-1,15
 61 481 61 481 76.5 495.5 c 128,-1,16
 92 510 92 510 121 531.5 c 128,-1,17
 150 553 150 553 184.5 563 c 128,-1,18
 219 573 219 573 260 573 c 0,19,20
 313 573 313 573 407.5 528 c 128,-1,21
 502 483 502 483 541 483 c 0,22,23
 570 483 570 483 593 494.5 c 128,-1,24
 616 506 616 506 643 529.5 c 128,-1,25
 670 553 670 553 680 561 c 0,26,27
 694 571 694 571 719.5 550.5 c 128,-1,28
 745 530 745 530 735 518 c 0,0,1
EndSplineSet
EndChar

StartChar: exclamdown
Encoding: 161 161 96
Width: 595
Flags: MW
LayerCount: 2
Fore
SplineSet
571 714.5 m 128,-1,1
 571 649 571 649 524 603 c 128,-1,2
 477 557 477 557 412 557 c 0,3,4
 349 557 349 557 301.5 604 c 128,-1,5
 254 651 254 651 254 715 c 0,6,7
 254 781 254 781 300 826.5 c 128,-1,8
 346 872 346 872 411.5 872 c 128,-1,9
 477 872 477 872 524 826 c 128,-1,0
 571 780 571 780 571 714.5 c 128,-1,1
367 399 m 0,10,11
 209 -402 209 -402 207 -412 c 0,12,13
 191 -471 191 -471 141.5 -512 c 128,-1,14
 92 -553 92 -553 41 -553 c 0,15,16
 -115 -553 -115 -553 -63 -391 c 0,17,18
 -57 -371 -57 -371 88 -29 c 128,-1,19
 233 313 233 313 270 403 c 0,20,21
 276 417 276 417 301 421.5 c 128,-1,22
 326 426 326 426 347.5 418.5 c 128,-1,23
 369 411 369 411 367 399 c 0,10,11
EndSplineSet
EndChar

StartChar: cent
Encoding: 162 162 97
Width: 880
Flags: MW
LayerCount: 2
Fore
SplineSet
975 1030 m 1,0,1
 977 1003 977 1003 961.5 965.5 c 128,-1,2
 946 928 946 928 915 905 c 0,3,4
 833 839 833 839 795 899 c 1,5,-1
 780 943 l 2,6,7
 766 987 766 987 743 1004 c 1,8,-1
 467 379 l 1,9,10
 504 359 504 359 539 358 c 0,11,12
 600 358 600 358 647 369.5 c 128,-1,13
 694 381 694 381 715.5 395.5 c 128,-1,14
 737 410 737 410 762 422 c 0,15,16
 787 436 787 436 802 392 c 128,-1,17
 817 348 817 348 795 338 c 0,18,19
 791 336 791 336 744.5 310.5 c 128,-1,20
 698 285 698 285 662.5 268.5 c 128,-1,21
 627 252 627 252 557 235.5 c 128,-1,22
 487 219 487 219 416 219 c 2,23,-1
 395 219 l 1,24,-1
 311 29 l 2,25,26
 305 17 305 17 253 27 c 128,-1,27
 201 37 201 37 205 49 c 2,28,-1
 291 244 l 1,29,30
 213 279 213 279 166 351.5 c 128,-1,31
 119 424 119 424 119 522 c 0,32,33
 119 624 119 624 171 733 c 128,-1,34
 223 842 223 842 303 924 c 0,35,36
 473 1100 473 1100 680 1118 c 1,37,-1
 764 1311 l 2,38,39
 770 1325 770 1325 822 1314 c 128,-1,40
 874 1303 874 1303 870 1290 c 2,41,-1
 793 1116 l 1,42,43
 952 1098 952 1098 975 1030 c 1,0,1
635 1018 m 1,44,45
 533 987 533 987 449 849 c 128,-1,46
 365 711 365 711 365 592 c 0,47,48
 365 526 365 526 391 467 c 1,49,-1
 635 1018 l 1,44,45
EndSplineSet
Substitution2: "'onum' Oldstyle Figures in Latin lookup 10" cent.oldstyle
EndChar

StartChar: sterling
Encoding: 163 163 98
Width: 1081
Flags: MW
LayerCount: 2
Fore
SplineSet
1139 1167 m 0,0,1
 1139 1138 1139 1138 1111 1092.5 c 128,-1,2
 1083 1047 1083 1047 1042 1047 c 0,3,4
 1019 1047 1019 1047 1001 1076.5 c 128,-1,5
 983 1106 983 1106 969.5 1142 c 128,-1,6
 956 1178 956 1178 922.5 1207.5 c 128,-1,7
 889 1237 889 1237 842 1237 c 0,8,9
 787 1237 787 1237 747 1165.5 c 128,-1,10
 707 1094 707 1094 693.5 998.5 c 128,-1,11
 680 903 680 903 669.5 808 c 128,-1,12
 659 713 659 713 659 664 c 1,13,-1
 948 664 l 2,14,15
 962 664 962 664 954 617.5 c 128,-1,16
 946 571 946 571 932 571 c 2,17,-1
 645 571 l 1,18,19
 629 469 629 469 558 366.5 c 128,-1,20
 487 264 487 264 393 197 c 1,21,22
 465 207 465 207 536.5 173 c 128,-1,23
 608 139 608 139 668.5 100 c 128,-1,24
 729 61 729 61 766 61 c 0,25,26
 795 61 795 61 807 90 c 128,-1,27
 819 119 819 119 816 151.5 c 128,-1,28
 813 184 813 184 815 209 c 0,29,30
 815 305 815 305 899 305 c 0,31,32
 954 305 954 305 983 266 c 128,-1,33
 1012 227 1012 227 1012 182 c 0,34,35
 1012 102 1012 102 943 45 c 128,-1,36
 874 -12 874 -12 797.5 -32.5 c 128,-1,37
 721 -53 721 -53 653 -53 c 0,38,39
 583 -53 583 -53 514.5 -28.5 c 128,-1,40
 446 -4 446 -4 364.5 37 c 128,-1,41
 283 78 283 78 233 96 c 1,42,43
 200 88 200 88 183 66.5 c 128,-1,44
 166 45 166 45 160 23.5 c 128,-1,45
 154 2 154 2 130 -14.5 c 128,-1,46
 106 -31 106 -31 63 -31 c 0,47,48
 22 -31 22 -31 -11.5 -9.5 c 128,-1,49
 -45 12 -45 12 -45 51 c 0,50,51
 -45 84 -45 84 -14.5 112.5 c 128,-1,52
 16 141 16 141 63.5 158.5 c 128,-1,53
 111 176 111 176 150.5 186.5 c 128,-1,54
 190 197 190 197 227 201 c 0,55,56
 305 211 305 211 352 328.5 c 128,-1,57
 399 446 399 446 410 571 c 1,58,-1
 193 571 l 2,59,60
 177 571 177 571 189 617.5 c 128,-1,61
 201 664 201 664 215 664 c 2,62,-1
 422 664 l 1,63,64
 436 779 436 779 450.5 852.5 c 128,-1,65
 465 926 465 926 505 1023 c 128,-1,66
 545 1120 545 1120 604 1184 c 0,67,68
 737 1323 737 1323 907 1323 c 0,69,70
 1139 1323 1139 1323 1139 1167 c 0,0,1
EndSplineSet
EndChar

StartChar: currency
Encoding: 164 164 99
Width: 1024
Flags: MW
LayerCount: 2
Fore
SplineSet
946 668 m 0,0,1
 946 522 946 522 858 406 c 1,2,-1
 936 328 l 2,3,4
 946 317 946 317 904 275 c 128,-1,5
 862 233 862 233 852 244 c 2,6,-1
 774 322 l 1,7,8
 657 233 657 233 514 233 c 0,9,10
 369 233 369 233 252 324 c 1,11,-1
 172 244 l 2,12,13
 162 233 162 233 120 275 c 128,-1,14
 78 317 78 317 88 328 c 2,15,-1
 168 408 l 1,16,17
 80 522 80 522 80 668 c 0,18,19
 80 813 80 813 168 928 c 1,20,-1
 88 1008 l 2,21,22
 78 1018 78 1018 120 1060 c 128,-1,23
 162 1102 162 1102 172 1092 c 2,24,-1
 252 1012 l 1,25,26
 369 1102 369 1102 512 1102 c 0,27,28
 657 1102 657 1102 774 1014 c 1,29,-1
 852 1092 l 2,30,31
 862 1102 862 1102 904 1060 c 128,-1,32
 946 1018 946 1018 936 1008 c 2,33,-1
 858 930 l 1,34,35
 946 813 946 813 946 668 c 0,0,1
825 668 m 128,-1,37
 825 797 825 797 734 888 c 128,-1,38
 643 979 643 979 512 979 c 0,39,40
 383 979 383 979 292 888 c 128,-1,41
 201 797 201 797 201 668 c 128,-1,42
 201 539 201 539 292 447 c 0,43,44
 383 356 383 356 512 356 c 0,45,46
 643 356 643 356 734 447 c 0,47,36
 825 539 825 539 825 668 c 128,-1,37
EndSplineSet
EndChar

StartChar: yen
Encoding: 165 165 100
Width: 1268
VWidth: 1909
Flags: MW
LayerCount: 2
Fore
SplineSet
435 218 m 2,0,-1
 510 464 l 1,1,-1
 159 466 l 2,2,3
 143 466 143 466 158.5 517.5 c 128,-1,4
 174 569 174 569 187 567 c 1,5,-1
 539 567 l 1,6,7
 537 615 537 615 516 678 c 2,8,-1
 491 751 l 1,9,-1
 235 753 l 2,10,11
 220 753 220 753 235 804.5 c 128,-1,12
 250 856 250 856 264 854 c 1,13,-1
 456 854 l 1,14,-1
 365 1138 l 2,15,16
 344 1203 344 1203 310.5 1236.5 c 128,-1,17
 277 1270 277 1270 206 1270 c 0,18,19
 191 1270 191 1270 202.5 1317 c 128,-1,20
 214 1364 214 1364 227 1364 c 1,21,22
 285 1358 285 1358 480.5 1358 c 128,-1,23
 676 1358 676 1358 733 1364 c 1,24,25
 749 1364 749 1364 737.5 1317 c 128,-1,26
 726 1270 726 1270 712 1270 c 0,27,28
 628 1270 628 1270 603.5 1248 c 128,-1,29
 579 1226 579 1226 602 1157 c 2,30,-1
 733 754 l 2,31,32
 749 709 749 709 787 751 c 2,33,-1
 1173 1157 l 2,34,35
 1232 1220 1232 1220 1219.5 1245 c 128,-1,36
 1207 1270 1207 1270 1127 1270 c 0,37,38
 1112 1270 1112 1270 1125 1317 c 128,-1,39
 1138 1364 1138 1364 1152 1364 c 1,40,41
 1209 1358 1209 1358 1364.5 1358 c 128,-1,42
 1520 1358 1520 1358 1578 1364 c 1,43,44
 1593 1364 1593 1364 1581.5 1317 c 128,-1,45
 1570 1270 1570 1270 1555 1270 c 0,46,47
 1454 1270 1454 1270 1397.5 1234 c 128,-1,48
 1341 1198 1341 1198 1198 1045 c 2,49,-1
 1020 854 l 1,50,-1
 1209 856 l 2,51,52
 1222 856 1222 856 1209 804.5 c 128,-1,53
 1196 753 1196 753 1180 751 c 2,54,-1
 923 751 l 1,55,-1
 819 642 l 2,56,57
 787 609 787 609 775 567 c 1,58,-1
 1133 569 l 2,59,60
 1146 569 1146 569 1132.5 517.5 c 128,-1,61
 1119 466 1119 466 1104 464 c 2,62,-1
 741 464 l 1,63,-1
 665 201 l 2,64,65
 644 132 644 132 671.5 109 c 128,-1,66
 699 86 699 86 783 86 c 0,67,68
 798 86 798 86 785 39 c 128,-1,69
 772 -8 772 -8 758 -8 c 1,70,71
 682 0 682 0 495 0 c 128,-1,72
 308 0 308 0 231 -8 c 1,73,74
 218 -8 218 -8 229.5 39 c 128,-1,75
 241 86 241 86 256 86 c 0,76,77
 340 86 340 86 376.5 114.5 c 128,-1,78
 413 143 413 143 435 218 c 2,0,-1
EndSplineSet
EndChar

StartChar: brokenbar
Encoding: 166 166 101
Width: 581
Flags: MW
LayerCount: 2
Fore
SplineSet
467 795 m 1,0,-1
 272 795 l 1,1,-1
 272 1372 l 1,2,-1
 467 1372 l 1,3,-1
 467 795 l 1,0,-1
467 109 m 1,4,-1
 272 109 l 1,5,-1
 272 688 l 1,6,-1
 467 688 l 1,7,-1
 467 109 l 1,4,-1
EndSplineSet
EndChar

StartChar: section
Encoding: 167 167 102
Width: 1048
Flags: MW
LayerCount: 2
Fore
SplineSet
1075 1278 m 0,0,1
 1075 1165 1075 1165 983 1165 c 0,2,3
 958 1165 958 1165 942 1193 c 128,-1,4
 926 1221 926 1221 915.5 1252.5 c 128,-1,5
 905 1284 905 1284 881.5 1311.5 c 128,-1,6
 858 1339 858 1339 823 1339 c 0,7,8
 737 1339 737 1339 702.5 1294 c 128,-1,9
 668 1249 668 1249 668 1163 c 0,10,11
 668 1079 668 1079 709 956 c 0,12,13
 729 890 729 890 781.5 779 c 128,-1,14
 834 668 834 668 865.5 572.5 c 128,-1,15
 897 477 897 477 897 389 c 0,16,17
 897 268 897 268 829 170 c 0,18,19
 735 31 735 31 537.5 -121.5 c 128,-1,20
 340 -274 340 -274 190 -274 c 0,21,22
 104 -274 104 -274 39.5 -222 c 128,-1,23
 -25 -170 -25 -170 -25 -86 c 0,24,25
 -25 -57 -25 -57 -6.5 -35.5 c 128,-1,26
 12 -14 12 -14 47 -14 c 0,27,28
 76 -14 76 -14 108.5 -52 c 128,-1,29
 141 -90 141 -90 184 -128 c 128,-1,30
 227 -166 227 -166 281 -166 c 0,31,32
 441 -166 441 -166 440 2 c 0,33,34
 440 57 440 57 399 190 c 0,35,36
 391 221 391 221 301 431 c 128,-1,37
 211 641 211 641 211 760 c 0,38,39
 211 912 211 912 328.5 1063 c 128,-1,40
 446 1214 446 1214 594 1313 c 0,41,42
 795 1442 795 1442 893 1442 c 0,43,44
 963 1442 963 1442 1019 1395 c 128,-1,45
 1075 1348 1075 1348 1075 1278 c 0,0,1
692 342 m 0,46,47
 692 428 692 428 639 570.5 c 128,-1,48
 586 713 586 713 547 799 c 0,49,50
 500 924 500 924 500 979 c 0,51,52
 500 1098 500 1098 514 1153 c 1,53,54
 408 1018 408 1018 408 846 c 0,55,56
 408 737 408 737 459 610 c 128,-1,57
 510 483 510 483 560 364.5 c 128,-1,58
 610 246 610 246 610 158 c 0,59,60
 610 76 610 76 586 18 c 1,61,62
 692 133 692 133 692 342 c 0,46,47
EndSplineSet
EndChar

StartChar: dieresis
Encoding: 168 168 103
Width: 778
Flags: MW
LayerCount: 2
Fore
SplineSet
388 1010 m 0,0,1
 337 1010 337 1010 306 1040 c 128,-1,2
 275 1070 275 1070 275 1119 c 0,3,4
 275 1178 275 1178 315 1220 c 128,-1,5
 355 1262 355 1262 417 1262 c 0,6,7
 466 1262 466 1262 497.5 1231.5 c 128,-1,8
 529 1201 529 1201 529 1152 c 0,9,10
 529 1092 529 1092 488 1051 c 128,-1,11
 447 1010 447 1010 388 1010 c 0,0,1
787 1010 m 0,12,13
 736 1010 736 1010 705.5 1040 c 128,-1,14
 675 1070 675 1070 675 1119 c 0,15,16
 675 1178 675 1178 715 1220 c 128,-1,17
 755 1262 755 1262 816 1262 c 0,18,19
 865 1262 865 1262 897 1231.5 c 128,-1,20
 929 1201 929 1201 929 1152 c 0,21,22
 929 1092 929 1092 888 1051 c 128,-1,23
 847 1010 847 1010 787 1010 c 0,12,13
EndSplineSet
EndChar

StartChar: copyright
Encoding: 169 169 104
Width: 1611
Flags: MW
LayerCount: 2
Fore
SplineSet
1532 747.5 m 128,-1,1
 1532 451 1532 451 1321 239 c 128,-1,2
 1110 27 1110 27 811 27 c 128,-1,3
 512 27 512 27 301 239 c 128,-1,4
 90 451 90 451 90 747.5 c 128,-1,5
 90 1044 90 1044 301 1256 c 128,-1,6
 512 1468 512 1468 811 1468 c 128,-1,7
 1110 1468 1110 1468 1321 1256 c 128,-1,0
 1532 1044 1532 1044 1532 747.5 c 128,-1,1
1430 748 m 128,-1,9
 1430 1004 1430 1004 1248.5 1185 c 128,-1,10
 1067 1366 1067 1366 811 1366 c 128,-1,11
 555 1366 555 1366 374 1185 c 128,-1,12
 193 1004 193 1004 193 748 c 128,-1,13
 193 492 193 492 374 310.5 c 128,-1,14
 555 129 555 129 811 129 c 128,-1,15
 1067 129 1067 129 1248.5 310.5 c 128,-1,8
 1430 492 1430 492 1430 748 c 128,-1,9
1108 561 m 0,16,17
 1106 541 1106 541 1087.5 487.5 c 128,-1,18
 1069 434 1069 434 1053 410 c 1,19,20
 1049 410 1049 410 1031.5 405.5 c 128,-1,21
 1014 401 1014 401 1006 399 c 0,22,23
 916 374 916 374 815 375 c 0,24,25
 651 375 651 375 540.5 480.5 c 128,-1,26
 430 586 430 586 430 737 c 0,27,28
 430 905 430 905 539.5 1019 c 128,-1,29
 649 1133 649 1133 825 1133 c 0,30,31
 897 1133 897 1133 1022 1106 c 0,32,33
 1032 1104 1032 1104 1065 1104 c 1,34,35
 1088 1055 1088 1055 1087 928 c 0,36,37
 1087 918 1087 918 1062.5 916.5 c 128,-1,38
 1038 915 1038 915 1036 924 c 0,39,40
 1020 1086 1020 1086 823 1085 c 0,41,42
 708 1085 708 1085 641.5 993 c 128,-1,43
 575 901 575 901 575 768 c 0,44,45
 575 598 575 598 654 512 c 128,-1,46
 733 426 733 426 821 426 c 0,47,48
 1007 426 1007 426 1057 575 c 1,49,50
 1061 581 1061 581 1072 581.5 c 128,-1,51
 1083 582 1083 582 1095.5 574.5 c 128,-1,52
 1108 567 1108 567 1108 561 c 0,16,17
EndSplineSet
EndChar

StartChar: ordfeminine
Encoding: 170 170 105
Width: 681
Flags: MW
LayerCount: 2
Fore
SplineSet
733 1329 m 2,0,-1
 600 893 l 2,1,2
 594 866 594 866 614 866 c 0,3,4
 645 866 645 866 682 909 c 0,5,6
 690 917 690 917 707.5 901 c 128,-1,7
 725 885 725 885 719 877 c 0,8,9
 617 756 617 756 520 756 c 0,10,11
 481 756 481 756 471 795 c 128,-1,12
 461 834 461 834 498 915 c 1,13,-1
 489 920 l 1,14,15
 436 850 436 850 367.5 803 c 128,-1,16
 299 756 299 756 252 756 c 0,17,18
 203 756 203 756 175 791.5 c 128,-1,19
 147 827 147 827 147 883 c 0,20,21
 147 1018 147 1018 267 1173.5 c 128,-1,22
 387 1329 387 1329 528 1329 c 0,23,24
 573 1329 573 1329 598 1309 c 1,25,-1
 612 1341 l 2,26,27
 616 1351 616 1351 636.5 1354.5 c 128,-1,28
 657 1358 657 1358 679.5 1354 c 128,-1,29
 702 1350 702 1350 718.5 1342.5 c 128,-1,30
 735 1335 735 1335 733 1329 c 2,0,-1
575 1243 m 1,31,32
 557 1274 557 1274 510 1274 c 0,33,34
 449 1274 449 1274 395.5 1196 c 128,-1,35
 342 1118 342 1118 317.5 1034 c 128,-1,36
 293 950 293 950 293 903 c 0,37,38
 293 883 293 883 302 864.5 c 128,-1,39
 311 846 311 846 324 846 c 0,40,41
 371 846 371 846 441.5 939 c 128,-1,42
 512 1032 512 1032 545 1139 c 2,43,-1
 575 1243 l 1,31,32
EndSplineSet
EndChar

StartChar: guillemotleft
Encoding: 171 171 106
Width: 874
Flags: MW
LayerCount: 2
Fore
SplineSet
924 786 m 2,0,-1
 680 459 l 2,1,2
 657 428 657 428 664 399 c 2,3,-1
 731 66 l 2,4,5
 733 53 733 53 709 38 c 0,6,7
 684 23 684 23 678 35 c 2,8,-1
 461 391 l 2,9,10
 438 428 438 428 481 465 c 2,11,-1
 887 817 l 2,12,13
 897 827 897 827 914 813 c 0,14,15
 932 799 932 799 924 786 c 2,0,-1
559 786 m 2,16,-1
 315 459 l 2,17,18
 293 428 293 428 299 399 c 2,19,-1
 367 66 l 2,20,21
 369 53 369 53 344 38 c 128,-1,22
 319 23 319 23 313 35 c 2,23,-1
 96 391 l 2,24,25
 74 428 74 428 117 465 c 2,26,-1
 522 817 l 2,27,28
 532 827 532 827 550 813 c 0,29,30
 567 799 567 799 559 786 c 2,16,-1
EndSplineSet
EndChar

StartChar: logicalnot
Encoding: 172 172 107
Width: 1366
Flags: MW
LayerCount: 2
Fore
SplineSet
1180 0 m 1,0,-1
 1180 483 l 1,1,-1
 0 483 l 1,2,-1
 0 657 l 1,3,-1
 1366 657 l 1,4,-1
 1366 0 l 1,5,-1
 1180 0 l 1,0,-1
EndSplineSet
EndChar

StartChar: uni00AD
Encoding: 173 173 108
Width: 1024
Flags: MW
LayerCount: 2
Fore
SplineSet
1059 463 m 2,0,-1
 96 463 l 2,1,2
 74 463 74 463 74 529 c 0,3,4
 74 596 74 596 96 596 c 2,5,-1
 1059 596 l 2,6,7
 1081 596 1081 596 1081 529 c 0,8,9
 1081 463 1081 463 1059 463 c 2,0,-1
EndSplineSet
EndChar

StartChar: registered
Encoding: 174 174 109
Width: 1611
Flags: MW
LayerCount: 2
Fore
SplineSet
1532 747.5 m 128,-1,1
 1532 451 1532 451 1321 239 c 128,-1,2
 1110 27 1110 27 811 27 c 128,-1,3
 512 27 512 27 301 239 c 128,-1,4
 90 451 90 451 90 747.5 c 128,-1,5
 90 1044 90 1044 301 1256 c 128,-1,6
 512 1468 512 1468 811 1468 c 128,-1,7
 1110 1468 1110 1468 1321 1256 c 128,-1,0
 1532 1044 1532 1044 1532 747.5 c 128,-1,1
1430 748 m 128,-1,9
 1430 1004 1430 1004 1248.5 1185 c 128,-1,10
 1067 1366 1067 1366 811 1366 c 128,-1,11
 555 1366 555 1366 374 1185 c 128,-1,12
 193 1004 193 1004 193 748 c 128,-1,13
 193 492 193 492 374 310.5 c 128,-1,14
 555 129 555 129 811 129 c 128,-1,15
 1067 129 1067 129 1248.5 310.5 c 128,-1,8
 1430 492 1430 492 1430 748 c 128,-1,9
1206 389 m 0,16,17
 1098 383 1098 383 1032 418 c 0,18,19
 981 451 981 451 942 494 c 128,-1,20
 903 537 903 537 868.5 590 c 128,-1,21
 834 643 834 643 821 657 c 0,22,23
 790 696 790 696 778 705.5 c 128,-1,24
 766 715 766 715 745 715 c 0,25,26
 727 715 727 715 713 717 c 1,27,28
 699 717 699 717 698 705 c 2,29,-1
 698 510 l 2,30,31
 698 475 698 475 717.5 462 c 128,-1,32
 737 449 737 449 780 449 c 0,33,34
 789 449 789 449 789.5 423 c 128,-1,35
 790 397 790 397 782 397 c 9,36,37
 737 401 737 401 634 401 c 128,-1,38
 531 401 531 401 481 397 c 17,39,40
 472 397 472 397 472 421.5 c 128,-1,41
 472 446 472 446 479 446 c 0,42,43
 567 446 567 446 567 510 c 2,44,-1
 567 1020 l 2,45,46
 567 1079 567 1079 475 1079 c 0,47,48
 467 1079 467 1079 467 1103.5 c 128,-1,49
 467 1128 467 1128 475 1128 c 0,50,51
 495 1128 495 1128 540.5 1126 c 128,-1,52
 586 1124 586 1124 631 1124 c 0,53,54
 651 1124 651 1124 700.5 1127 c 128,-1,55
 750 1130 750 1130 793 1130 c 0,56,57
 926 1130 926 1130 1009 1075 c 128,-1,58
 1092 1020 1092 1020 1092 922 c 0,59,60
 1092 785 1092 785 940 741 c 0,61,62
 922 735 922 735 936 715 c 0,63,64
 1004 598 1004 598 1110 489 c 0,65,66
 1163 432 1163 432 1206 426 c 0,67,68
 1218 424 1218 424 1220 407.5 c 128,-1,69
 1222 391 1222 391 1206 389 c 0,16,17
954 920 m 0,70,71
 954 986 954 986 900 1036.5 c 128,-1,72
 846 1087 846 1087 743 1087 c 0,73,74
 712 1087 712 1087 705 1084 c 128,-1,75
 698 1081 698 1081 698 1065 c 2,76,-1
 698 784 l 2,77,78
 698 764 698 764 711 764 c 1,79,80
 737 757 737 757 758 758 c 0,81,82
 954 762 954 762 954 920 c 0,70,71
EndSplineSet
EndChar

StartChar: macron
Encoding: 175 175 110
Width: 608
Flags: MW
LayerCount: 2
Fore
SplineSet
768 1161 m 2,0,1
 799 1161 799 1161 778.5 1105 c 128,-1,2
 758 1049 758 1049 731 1049 c 2,3,-1
 285 1049 l 2,4,5
 256 1049 256 1049 272.5 1105 c 128,-1,6
 289 1161 289 1161 317 1161 c 2,7,-1
 768 1161 l 2,0,1
EndSplineSet
EndChar

StartChar: degree
Encoding: 176 176 111
Width: 735
Flags: MW
LayerCount: 2
Fore
SplineSet
807 1047 m 0,0,1
 807 926 807 926 727 854 c 128,-1,2
 647 782 647 782 532 782 c 0,3,4
 418 782 418 782 338 854 c 128,-1,5
 258 926 258 926 258 1047 c 0,6,7
 258 1163 258 1163 338 1237 c 128,-1,8
 418 1311 418 1311 532 1311 c 0,9,10
 647 1311 647 1311 727 1237 c 128,-1,11
 807 1163 807 1163 807 1047 c 0,0,1
662 1047 m 0,12,13
 662 1120 662 1120 625 1163 c 128,-1,14
 588 1206 588 1206 532 1206 c 0,15,16
 477 1206 477 1206 440 1163 c 128,-1,17
 403 1120 403 1120 403 1047 c 0,18,19
 403 973 403 973 440 930 c 128,-1,20
 477 887 477 887 532 887 c 0,21,22
 588 887 588 887 625 930 c 128,-1,23
 662 973 662 973 662 1047 c 0,12,13
EndSplineSet
EndChar

StartChar: plusminus
Encoding: 177 177 112
Width: 1134
Flags: MW
LayerCount: 2
Fore
SplineSet
993 629 m 1,0,-1
 694 629 l 1,1,-1
 694 287 l 1,2,-1
 514 287 l 1,3,-1
 514 629 l 1,4,-1
 213 629 l 1,5,-1
 213 776 l 1,6,-1
 514 776 l 1,7,-1
 514 1081 l 1,8,-1
 694 1081 l 1,9,-1
 694 776 l 1,10,-1
 993 776 l 1,11,-1
 993 629 l 1,0,-1
993 -6 m 1,12,-1
 213 -6 l 1,13,-1
 213 141 l 1,14,-1
 993 141 l 1,15,-1
 993 -6 l 1,12,-1
EndSplineSet
EndChar

StartChar: uni00B2
Encoding: 178 178 113
Width: 667
Flags: MW
LayerCount: 2
Fore
SplineSet
541 893 m 0,0,1
 467 825 467 825 211 625 c 1,2,-1
 426 625 l 2,3,4
 483 625 483 625 519 639 c 128,-1,5
 555 653 555 653 586 692 c 0,6,7
 598 706 598 706 622.5 692 c 128,-1,8
 647 678 647 678 635 662 c 2,9,-1
 543 543 l 2,10,11
 525 518 525 518 489 518 c 0,12,13
 466 518 466 518 408 521 c 128,-1,14
 350 524 350 524 283 524 c 0,15,16
 205 524 205 524 142.5 521 c 128,-1,17
 80 518 80 518 70 518 c 0,18,19
 45 518 45 518 40 531.5 c 128,-1,20
 35 545 35 545 63 569 c 0,21,22
 229 702 229 702 369 862 c 0,23,24
 551 1067 551 1067 551 1182 c 0,25,26
 551 1258 551 1258 489 1257 c 0,27,28
 413 1257 413 1257 315 1153 c 0,29,30
 303 1139 303 1139 282.5 1152 c 128,-1,31
 262 1165 262 1165 272 1178 c 0,32,33
 329 1252 329 1252 407 1302 c 128,-1,34
 485 1352 485 1352 567 1352 c 0,35,36
 645 1352 645 1352 689 1310 c 128,-1,37
 733 1268 733 1268 733 1200 c 0,38,39
 733 1145 733 1145 698.5 1082.5 c 128,-1,40
 664 1020 664 1020 630 983 c 128,-1,41
 596 946 596 946 541 893 c 0,0,1
EndSplineSet
EndChar

StartChar: uni00B3
Encoding: 179 179 114
Width: 667
Flags: MW
LayerCount: 2
Fore
SplineSet
545 997 m 1,0,1
 656 964 656 964 655 856 c 0,2,3
 655 739 655 739 559 639 c 0,4,5
 432 512 432 512 268 512 c 0,6,7
 207 512 207 512 154.5 531.5 c 128,-1,8
 102 551 102 551 102 594 c 0,9,10
 102 627 102 627 128 649.5 c 128,-1,11
 154 672 154 672 186 672 c 0,12,13
 211 672 211 672 224.5 655.5 c 128,-1,14
 238 639 238 639 242 620.5 c 128,-1,15
 246 602 246 602 261 585.5 c 128,-1,16
 276 569 276 569 303 569 c 0,17,18
 375 569 375 569 425 667.5 c 128,-1,19
 475 766 475 766 475 850 c 0,20,21
 475 893 475 893 448.5 918.5 c 128,-1,22
 422 944 422 944 371 944 c 0,23,24
 338 944 338 944 301 934 c 1,25,26
 283 934 283 934 291 966.5 c 128,-1,27
 299 999 299 999 315 999 c 0,28,29
 419 999 419 999 489 1059 c 0,30,31
 559 1120 559 1120 559 1196 c 128,-1,32
 559 1272 559 1272 494 1272 c 0,33,34
 426 1272 426 1272 344 1190 c 0,35,36
 334 1180 334 1180 317.5 1196 c 128,-1,37
 301 1212 301 1212 311 1221 c 0,38,39
 442 1352 442 1352 561 1352 c 0,40,41
 629 1352 629 1352 673 1314 c 128,-1,42
 717 1276 717 1276 717 1217 c 0,43,44
 717 1083 717 1083 545 997 c 1,0,1
EndSplineSet
EndChar

StartChar: acute
Encoding: 180 180 115
Width: 917
Flags: MW
LayerCount: 2
Fore
SplineSet
679 1218 m 2,0,-1
 398 947 l 2,1,2
 378 929 378 929 356 929 c 0,3,4
 332 928 332 928 324 950 c 0,5,6
 316 970 316 970 337 1001 c 2,7,-1
 546 1314 l 2,8,9
 559 1333 559 1333 583 1333 c 0,10,11
 628 1333 628 1333 668 1290 c 0,12,13
 709 1246 709 1246 679 1218 c 2,0,-1
EndSplineSet
EndChar

StartChar: uni00B5
Encoding: 181 181 116
Width: 1019
Flags: MW
LayerCount: 2
Fore
SplineSet
1004 817 m 2,0,-1
 823 231 l 2,1,2
 803 170 803 170 803 162 c 0,3,4
 803 142 803 142 825.5 141.5 c 128,-1,5
 848 141 848 141 880.5 173 c 128,-1,6
 913 205 913 205 930 225 c 0,7,8
 942 237 942 237 966.5 212.5 c 128,-1,9
 991 188 991 188 983 176 c 0,10,11
 913 88 913 88 833.5 30.5 c 128,-1,12
 754 -27 754 -27 684 -27 c 0,13,14
 639 -27 639 -27 615.5 8 c 128,-1,15
 592 43 592 43 592 94 c 0,16,17
 592 129 592 129 604 170 c 2,18,-1
 649 322 l 1,19,20
 555 193 555 193 444.5 90.5 c 128,-1,21
 334 -12 334 -12 260 -25 c 1,22,23
 219 -146 219 -146 213 -188 c 0,24,25
 205 -231 205 -231 209 -280.5 c 128,-1,26
 213 -330 213 -330 208 -379 c 128,-1,27
 203 -428 203 -428 189.5 -468 c 128,-1,28
 176 -508 176 -508 134 -532.5 c 128,-1,29
 92 -557 92 -557 20 -557 c 0,30,31
 -9 -557 -9 -557 -36 -540.5 c 128,-1,32
 -63 -524 -63 -524 -66 -494 c 0,33,34
 -70 -457 -70 -457 -18 -303 c 2,35,-1
 272 631 l 1,36,37
 272 637 272 637 276.5 648 c 128,-1,38
 281 659 281 659 281 664 c 0,39,40
 281 689 281 689 260 688 c 0,41,42
 242 688 242 688 209 656.5 c 128,-1,43
 176 625 176 625 162 604 c 1,44,45
 150 592 150 592 124 615.5 c 128,-1,46
 98 639 98 639 109 651 c 0,47,48
 265 852 265 852 399 852 c 0,49,50
 489 852 489 852 489 727 c 0,51,52
 489 698 489 698 473 639 c 2,53,-1
 377 332 l 2,54,55
 340 221 340 221 340 174 c 0,56,57
 340 133 340 133 362 133 c 0,58,59
 411 133 411 133 510.5 263 c 128,-1,60
 610 393 610 393 688 535 c 0,61,62
 727 605 727 605 765 706 c 128,-1,63
 803 807 803 807 809 829.5 c 128,-1,64
 815 852 815 852 903 852 c 0,65,66
 928 852 928 852 951.5 848 c 128,-1,67
 975 844 975 844 990.5 835.5 c 128,-1,68
 1006 827 1006 827 1004 817 c 2,0,-1
EndSplineSet
EndChar

StartChar: paragraph
Encoding: 182 182 117
Width: 1153
Flags: MW
LayerCount: 2
Fore
SplineSet
1298 1473 m 0,0,1
 1314 1473 1314 1473 1304 1435 c 128,-1,2
 1294 1397 1294 1397 1280 1397 c 1,3,4
 1272 1395 1272 1395 1257.5 1397 c 128,-1,5
 1243 1399 1243 1399 1225.5 1395 c 128,-1,6
 1208 1391 1208 1391 1192 1384.5 c 128,-1,7
 1176 1378 1176 1378 1161.5 1362 c 128,-1,8
 1147 1346 1147 1346 1141 1323 c 2,9,-1
 711 -283 l 2,10,11
 707 -297 707 -297 630 -298 c 128,-1,12
 553 -299 553 -299 557 -285 c 2,13,-1
 989 1323 l 2,14,15
 999 1362 999 1362 981 1379.5 c 128,-1,16
 963 1397 963 1397 932 1397 c 0,17,18
 844 1397 844 1397 825 1323 c 2,19,-1
 391 -285 l 2,20,21
 389 -299 389 -299 312.5 -299 c 128,-1,22
 236 -299 236 -299 240 -285 c 2,23,-1
 502 694 l 1,24,-1
 477 694 l 2,25,26
 311 692 311 692 215 768 c 128,-1,27
 119 844 119 844 119 987 c 0,28,29
 119 1192 119 1192 298 1332.5 c 128,-1,30
 477 1473 477 1473 686 1473 c 0,31,32
 790 1473 790 1473 922.5 1468.5 c 128,-1,33
 1055 1464 1055 1464 1108 1464 c 0,34,35
 1216 1465 1216 1465 1298 1473 c 0,0,1
EndSplineSet
EndChar

StartChar: periodcentered
Encoding: 183 183 118
Width: 571
Flags: MW
LayerCount: 2
Fore
SplineSet
492 522.5 m 128,-1,1
 492 457 492 457 444.5 411 c 128,-1,2
 397 365 397 365 331.5 365 c 128,-1,3
 266 365 266 365 220 411 c 128,-1,4
 174 457 174 457 174 522.5 c 128,-1,5
 174 588 174 588 220 635 c 128,-1,6
 266 682 266 682 331.5 682 c 128,-1,7
 397 682 397 682 444.5 635 c 128,-1,0
 492 588 492 588 492 522.5 c 128,-1,1
EndSplineSet
EndChar

StartChar: cedilla
Encoding: 184 184 119
Width: 778
Flags: MW
LayerCount: 2
Fore
SplineSet
434 -324 m 0,0,1
 434 -406 434 -406 356.5 -460 c 128,-1,2
 279 -514 279 -514 174 -514 c 0,3,4
 16 -514 16 -514 16 -424 c 0,5,6
 16 -395 16 -395 34.5 -375.5 c 128,-1,7
 53 -356 53 -356 82 -356 c 0,8,9
 113 -356 113 -356 157 -394 c 128,-1,10
 201 -432 201 -432 221 -432 c 0,11,12
 240 -432 240 -432 257 -417.5 c 128,-1,13
 274 -403 274 -403 274 -381 c 0,14,15
 274 -287 274 -287 147 -233 c 1,16,-1
 141 -217 l 1,17,-1
 289 0 l 1,18,-1
 397 0 l 1,19,-1
 319 -106 l 2,20,21
 307 -123 307 -123 310 -130 c 128,-1,22
 313 -137 313 -137 336 -154 c 0,23,24
 434 -227 434 -227 434 -324 c 0,0,1
EndSplineSet
EndChar

StartChar: uni00B9
Encoding: 185 185 120
Width: 667
Flags: MW
LayerCount: 2
Fore
SplineSet
666 1366 m 0,0,1
 652 1327 652 1327 631 1253 c 2,2,-1
 481 698 l 2,3,4
 461 622 461 622 473 602 c 128,-1,5
 485 582 485 582 549 582 c 0,6,7
 557 582 557 582 549 552 c 128,-1,8
 541 522 541 522 532 522 c 0,9,10
 471 528 471 528 340 528 c 0,11,12
 203 528 203 528 141 522 c 0,13,14
 131 522 131 522 139 552 c 128,-1,15
 147 582 147 582 158 582 c 0,16,17
 232 582 232 582 257.5 600 c 128,-1,18
 283 618 283 618 303 698 c 2,19,-1
 438 1208 l 2,20,21
 444 1231 444 1231 434 1235 c 128,-1,22
 424 1239 424 1239 406 1233 c 0,23,24
 361 1217 361 1217 324 1210 c 0,25,26
 316 1208 316 1208 312.5 1219.5 c 128,-1,27
 309 1231 309 1231 312 1245.5 c 128,-1,28
 315 1260 315 1260 324 1262 c 0,29,30
 547 1332 547 1332 641 1374 c 0,31,32
 647 1378 647 1378 657 1378 c 0,33,34
 670 1378 670 1378 666 1366 c 0,0,1
EndSplineSet
EndChar

StartChar: ordmasculine
Encoding: 186 186 121
Width: 647
Flags: MW
LayerCount: 2
Fore
SplineSet
707 1122 m 0,0,1
 707 989 707 989 611.5 872.5 c 128,-1,2
 516 756 516 756 365 756 c 0,3,4
 273 756 273 756 226.5 820.5 c 128,-1,5
 180 885 180 885 180 983 c 0,6,7
 180 1108 180 1108 287.5 1221.5 c 128,-1,8
 395 1335 395 1335 522 1335 c 0,9,10
 616 1335 616 1335 661.5 1276.5 c 128,-1,11
 707 1218 707 1218 707 1122 c 0,0,1
590 1182 m 0,12,13
 590 1233 590 1233 575.5 1250.5 c 128,-1,14
 561 1268 561 1268 530 1268 c 0,15,16
 458 1268 458 1268 379.5 1133.5 c 128,-1,17
 301 999 301 999 301 907 c 0,18,19
 301 831 301 831 364.5 831 c 128,-1,20
 428 831 428 831 509 964.5 c 128,-1,21
 590 1098 590 1098 590 1182 c 0,12,13
EndSplineSet
EndChar

StartChar: guillemotright
Encoding: 187 187 122
Width: 1347
Flags: MW
LayerCount: 2
Fore
SplineSet
807 465 m 2,0,1
 829 428 829 428 786 391 c 2,2,-1
 379 35 l 2,3,4
 367 23 367 23 349 38 c 0,5,6
 332 53 332 53 342 66 c 2,7,-1
 588 399 l 2,8,9
 610 428 610 428 604 459 c 2,10,-1
 537 786 l 2,11,12
 535 799 535 799 559 813 c 0,13,14
 584 827 584 827 590 817 c 2,15,-1
 807 465 l 2,0,1
442 465 m 2,16,17
 465 428 465 428 422 391 c 2,18,-1
 14 35 l 2,19,20
 2 23 2 23 -15 38 c 0,21,22
 -33 53 -33 53 -23 66 c 2,23,-1
 223 399 l 2,24,25
 246 428 246 428 240 459 c 2,26,-1
 172 786 l 2,27,28
 170 799 170 799 195 813 c 0,29,30
 219 827 219 827 225 817 c 2,31,-1
 442 465 l 2,16,17
EndSplineSet
EndChar

StartChar: onequarter
Encoding: 188 188 123
Width: 1507
Flags: MW
LayerCount: 2
Fore
SplineSet
1499 860 m 1,0,-1
 963 330 l 2,1,2
 934 301 934 301 969 301 c 2,3,-1
 1169 301 l 1,4,-1
 1237 553 l 2,5,6
 1241 569 1241 569 1331 569 c 128,-1,7
 1421 569 1421 569 1417 553 c 2,8,-1
 1352 301 l 1,9,-1
 1415 301 l 2,10,11
 1429 301 1429 301 1421 266 c 128,-1,12
 1413 231 1413 231 1397 231 c 2,13,-1
 1331 231 l 1,14,-1
 1298 106 l 2,15,16
 1290 77 1290 77 1304.5 66 c 128,-1,17
 1319 55 1319 55 1366 55 c 0,18,19
 1376 55 1376 55 1368 24.5 c 128,-1,20
 1360 -6 1360 -6 1350 -6 c 1,21,22
 1289 0 1289 0 1165.5 0 c 128,-1,23
 1042 0 1042 0 981 -6 c 1,24,25
 971 -6 971 -6 979 24.5 c 128,-1,26
 987 55 987 55 997 55 c 0,27,28
 1060 55 1060 55 1084 65.5 c 128,-1,29
 1108 76 1108 76 1118 106 c 2,30,-1
 1151 231 l 1,31,-1
 864 231 l 2,32,33
 829 231 829 231 824 246.5 c 128,-1,34
 819 262 819 262 831.5 280.5 c 128,-1,35
 844 299 844 299 864 319 c 2,36,-1
 1069 518 l 2,37,38
 1235 680 1235 680 1423 883 c 1,39,40
 1443 899 1443 899 1475 892 c 128,-1,41
 1507 885 1507 885 1499 860 c 1,0,-1
1270 1300 m 1,42,-1
 467 0 l 1,43,-1
 340 0 l 1,44,-1
 1143 1300 l 1,45,-1
 1270 1300 l 1,42,-1
666 1366 m 0,46,47
 652 1327 652 1327 631 1253 c 2,48,-1
 481 698 l 2,49,50
 461 622 461 622 473 602 c 128,-1,51
 485 582 485 582 549 582 c 0,52,53
 557 582 557 582 549 552 c 128,-1,54
 541 522 541 522 532 522 c 1,55,56
 471 528 471 528 337 528 c 128,-1,57
 203 528 203 528 141 522 c 1,58,59
 131 522 131 522 139 552 c 128,-1,60
 147 582 147 582 158 582 c 0,61,62
 232 582 232 582 257.5 600 c 128,-1,63
 283 618 283 618 303 698 c 2,64,-1
 438 1208 l 2,65,66
 444 1231 444 1231 434 1235 c 128,-1,67
 424 1239 424 1239 406 1233 c 0,68,69
 361 1217 361 1217 324 1210 c 0,70,71
 316 1208 316 1208 312.5 1219.5 c 128,-1,72
 309 1231 309 1231 312 1245.5 c 128,-1,73
 315 1260 315 1260 324 1262 c 0,74,75
 547 1332 547 1332 641 1374 c 0,76,77
 647 1378 647 1378 657 1378 c 0,78,79
 670 1378 670 1378 666 1366 c 0,46,47
EndSplineSet
LCarets2: 2 0 0 
Ligature2: "'frac' Diagonal Fractions in Latin lookup 3" one slash four
Ligature2: "'frac' Diagonal Fractions in Latin lookup 3" one fraction four
EndChar

StartChar: onehalf
Encoding: 189 189 124
Width: 1507
Flags: MW
LayerCount: 2
Fore
SplineSet
1270 1300 m 1,0,-1
 467 0 l 1,1,-1
 340 0 l 1,2,-1
 1143 1300 l 1,3,-1
 1270 1300 l 1,0,-1
666 1366 m 0,4,5
 652 1327 652 1327 631 1253 c 2,6,-1
 481 698 l 2,7,8
 461 622 461 622 473 602 c 128,-1,9
 485 582 485 582 549 582 c 0,10,11
 557 582 557 582 549 552 c 128,-1,12
 541 522 541 522 532 522 c 1,13,14
 471 528 471 528 337 528 c 128,-1,15
 203 528 203 528 141 522 c 1,16,17
 131 522 131 522 139 552 c 128,-1,18
 147 582 147 582 158 582 c 0,19,20
 232 582 232 582 257.5 600 c 128,-1,21
 283 618 283 618 303 698 c 2,22,-1
 438 1208 l 2,23,24
 444 1231 444 1231 434 1235 c 128,-1,25
 424 1239 424 1239 406 1233 c 0,26,27
 361 1217 361 1217 324 1210 c 0,28,29
 316 1208 316 1208 312.5 1219.5 c 128,-1,30
 309 1231 309 1231 312 1245.5 c 128,-1,31
 315 1260 315 1260 324 1262 c 0,32,33
 547 1332 547 1332 641 1374 c 0,34,35
 647 1378 647 1378 657 1378 c 0,36,37
 670 1378 670 1378 666 1366 c 0,4,5
1280 369 m 0,38,39
 1206 301 1206 301 950 100 c 1,40,-1
 1165 100 l 2,41,42
 1222 100 1222 100 1257 113.5 c 128,-1,43
 1292 127 1292 127 1325 168 c 0,44,45
 1335 182 1335 182 1360.5 167 c 128,-1,46
 1386 152 1386 152 1374 137 c 2,47,-1
 1282 18 l 2,48,49
 1264 -7 1264 -7 1229 -6 c 0,50,51
 1206 -6 1206 -6 1148 -3 c 128,-1,52
 1090 0 1090 0 1017 0 c 128,-1,53
 944 0 944 0 881.5 -3 c 128,-1,54
 819 -6 819 -6 809 -6 c 0,55,56
 786 -6 786 -6 781 7 c 128,-1,57
 776 20 776 20 803 45 c 0,58,59
 969 178 969 178 1108 338 c 0,60,61
 1290 543 1290 543 1290 657 c 0,62,63
 1290 733 1290 733 1229 733 c 0,64,65
 1153 733 1153 733 1055 629 c 0,66,67
 1041 615 1041 615 1021 628 c 128,-1,68
 1001 641 1001 641 1012 653 c 0,69,70
 1149 827 1149 827 1307 827 c 0,71,72
 1385 827 1385 827 1429 785 c 128,-1,73
 1473 743 1473 743 1473 676 c 0,74,75
 1473 621 1473 621 1438 558.5 c 128,-1,76
 1403 496 1403 496 1369 459 c 128,-1,77
 1335 422 1335 422 1280 369 c 0,38,39
EndSplineSet
LCarets2: 2 0 0 
Ligature2: "'frac' Diagonal Fractions in Latin lookup 3" one slash two
Ligature2: "'frac' Diagonal Fractions in Latin lookup 3" one fraction two
EndChar

StartChar: threequarters
Encoding: 190 190 125
Width: 1507
Flags: MW
LayerCount: 2
Fore
SplineSet
1288 1300 m 1,0,-1
 485 0 l 1,1,-1
 358 0 l 1,2,-1
 1161 1300 l 1,3,-1
 1288 1300 l 1,0,-1
549 997 m 1,4,5
 660 964 660 964 659 856 c 0,6,7
 659 739 659 739 563 639 c 0,8,9
 436 512 436 512 272 512 c 0,10,11
 211 512 211 512 158.5 531.5 c 128,-1,12
 106 551 106 551 106 594 c 0,13,14
 106 627 106 627 132 649.5 c 128,-1,15
 158 672 158 672 190 672 c 0,16,17
 215 672 215 672 228.5 655.5 c 128,-1,18
 242 639 242 639 246 620.5 c 128,-1,19
 250 602 250 602 265.5 585.5 c 128,-1,20
 281 569 281 569 307 569 c 0,21,22
 379 569 379 569 429 667.5 c 128,-1,23
 479 766 479 766 479 850 c 0,24,25
 479 893 479 893 452.5 918.5 c 128,-1,26
 426 944 426 944 375 944 c 0,27,28
 342 944 342 944 305 934 c 1,29,30
 287 934 287 934 295 966.5 c 128,-1,31
 303 999 303 999 319 999 c 0,32,33
 423 999 423 999 494 1059 c 0,34,35
 564 1120 564 1120 563.5 1196 c 128,-1,36
 563 1272 563 1272 498 1272 c 0,37,38
 430 1272 430 1272 348 1190 c 0,39,40
 338 1180 338 1180 321.5 1196 c 128,-1,41
 305 1212 305 1212 315 1221 c 0,42,43
 446 1352 446 1352 565 1352 c 0,44,45
 633 1352 633 1352 677 1314 c 128,-1,46
 721 1276 721 1276 721 1217 c 0,47,48
 721 1083 721 1083 549 997 c 1,4,5
1499 860 m 1,49,-1
 963 330 l 2,50,51
 934 301 934 301 969 301 c 2,52,-1
 1169 301 l 1,53,-1
 1237 553 l 2,54,55
 1241 569 1241 569 1331 569 c 128,-1,56
 1421 569 1421 569 1417 553 c 2,57,-1
 1352 301 l 1,58,-1
 1415 301 l 2,59,60
 1429 301 1429 301 1421 266 c 128,-1,61
 1413 231 1413 231 1397 231 c 2,62,-1
 1331 231 l 1,63,-1
 1298 106 l 2,64,65
 1290 77 1290 77 1304.5 66 c 128,-1,66
 1319 55 1319 55 1366 55 c 0,67,68
 1376 55 1376 55 1368 24.5 c 128,-1,69
 1360 -6 1360 -6 1350 -6 c 1,70,71
 1289 0 1289 0 1165.5 0 c 128,-1,72
 1042 0 1042 0 981 -6 c 1,73,74
 971 -6 971 -6 979 24.5 c 128,-1,75
 987 55 987 55 997 55 c 0,76,77
 1060 55 1060 55 1084 65.5 c 128,-1,78
 1108 76 1108 76 1118 106 c 2,79,-1
 1151 231 l 1,80,-1
 864 231 l 2,81,82
 829 231 829 231 824 246.5 c 128,-1,83
 819 262 819 262 831.5 280.5 c 128,-1,84
 844 299 844 299 864 319 c 2,85,-1
 1069 518 l 2,86,87
 1235 680 1235 680 1423 883 c 1,88,89
 1443 899 1443 899 1475 892 c 128,-1,90
 1507 885 1507 885 1499 860 c 1,49,-1
EndSplineSet
LCarets2: 2 0 0 
Ligature2: "'frac' Diagonal Fractions in Latin lookup 3" three slash four
Ligature2: "'frac' Diagonal Fractions in Latin lookup 3" three fraction four
EndChar

StartChar: questiondown
Encoding: 191 191 126
Width: 727
Flags: MW
LayerCount: 2
Fore
SplineSet
696 719 m 0,0,1
 696 649 696 649 652 602 c 128,-1,2
 608 555 608 555 541 555 c 0,3,4
 473 555 473 555 431 603 c 128,-1,5
 389 651 389 651 389 719 c 0,6,7
 389 784 389 784 432 827 c 128,-1,8
 475 870 475 870 543 870 c 0,9,10
 606 870 606 870 651 828 c 128,-1,11
 696 786 696 786 696 719 c 0,0,1
510 260 m 0,12,13
 510 172 510 172 469 119 c 128,-1,14
 428 66 428 66 346 31 c 2,15,-1
 225 -23 l 2,16,17
 51 -98 51 -98 51 -199 c 0,18,19
 51 -301 51 -301 281 -301 c 0,20,21
 305 -301 305 -301 336 -329 c 0,22,23
 367 -356 367 -356 367 -399 c 0,24,25
 367 -444 367 -444 323 -488 c 128,-1,26
 279 -532 279 -532 217 -532 c 0,27,28
 102 -532 102 -532 29 -429 c 0,29,30
 -45 -326 -45 -326 -45 -182 c 0,31,32
 -45 -68 -45 -68 2 25 c 0,33,34
 49 117 49 117 117 145 c 2,35,-1
 293 221 l 2,36,37
 381 258 381 258 395 293 c 0,38,39
 412 324 412 324 414 401 c 0,40,41
 414 418 414 418 445 426 c 0,42,43
 477 434 477 434 481 418 c 0,44,45
 510 307 510 307 510 260 c 0,12,13
EndSplineSet
EndChar

StartChar: Aring
Encoding: 197 197 132
Width: 1165
VWidth: 1909
Flags: MW
LayerCount: 2
Fore
SplineSet
1222 1520 m 0,0,1
 1222 1452 1222 1452 1180 1395.5 c 128,-1,2
 1138 1339 1138 1339 1064 1320 c 1,3,-1
 928 202 l 2,4,5
 921 132 921 132 952.5 109 c 128,-1,6
 984 86 984 86 1052 86 c 0,7,8
 1066 86 1066 86 1056.5 39 c 128,-1,9
 1047 -8 1047 -8 1031 -8 c 0,10,11
 955 0 955 0 806 0 c 0,12,13
 646 0 646 0 569 -8 c 0,14,15
 554 -8 554 -8 565.5 39 c 128,-1,16
 577 86 577 86 590 86 c 0,17,18
 651 86 651 86 679 108 c 128,-1,19
 707 130 707 130 716 202 c 2,20,-1
 753 485 l 2,21,22
 756 523 756 523 716 523 c 2,23,-1
 470 523 l 2,24,25
 439 523 439 523 422 495 c 2,26,-1
 233 201 l 2,27,28
 212 168 212 168 210 146 c 128,-1,29
 208 124 208 124 216.5 112.5 c 128,-1,30
 225 101 225 101 248 94.5 c 128,-1,31
 271 88 271 88 288.5 87 c 128,-1,32
 306 86 306 86 330 86 c 0,33,34
 344 86 344 86 334.5 39 c 128,-1,35
 325 -8 325 -8 309 -8 c 0,36,37
 233 0 233 0 74 0 c 0,38,39
 -74 0 -74 0 -151 -8 c 0,40,41
 -164 -8 -164 -8 -154.5 39 c 128,-1,42
 -145 86 -145 86 -130 86 c 0,43,44
 -88 86 -88 86 -66 89 c 128,-1,45
 -44 92 -44 92 -9.5 102.5 c 128,-1,46
 25 113 25 113 54.5 141.5 c 128,-1,47
 84 170 84 170 117 218 c 2,48,-1
 871 1341 l 1,49,50
 764 1400 764 1400 764 1520 c 0,51,52
 764 1604 764 1604 827 1666.5 c 128,-1,53
 890 1729 890 1729 993 1729 c 128,-1,54
 1096 1729 1096 1729 1159 1666.5 c 128,-1,55
 1222 1604 1222 1604 1222 1520 c 0,0,1
1094 1518.5 m 128,-1,57
 1094 1574 1094 1574 1067.5 1612 c 128,-1,58
 1041 1650 1041 1650 993 1652 c 0,59,60
 945 1650 945 1650 918.5 1612 c 128,-1,61
 892 1574 892 1574 892 1518.5 c 128,-1,62
 892 1463 892 1463 918.5 1425 c 128,-1,63
 945 1387 945 1387 993 1387 c 128,-1,64
 1041 1387 1041 1387 1067.5 1425 c 128,-1,56
 1094 1463 1094 1463 1094 1518.5 c 128,-1,57
821 1062 m 2,65,66
 823 1075 823 1075 815.5 1077 c 128,-1,67
 808 1079 808 1079 798 1064 c 2,68,-1
 516 638 l 2,69,70
 508 625 508 625 512 616 c 128,-1,71
 516 607 516 607 529 607 c 2,72,-1
 732 607 l 2,73,74
 770 607 770 607 774 649 c 2,75,-1
 821 1062 l 2,65,66
EndSplineSet
Ligature2: "'ccmp' Glyph Composition Decomposition subtable" A uni030A
EndChar

StartChar: AE
Encoding: 198 198 133
Width: 1789
VWidth: 1909
Flags: MW
AnchorPoint: "Anchor-0" 1386 1415 basechar 0
LayerCount: 2
Fore
SplineSet
36 202 m 2,0,-1
 861 1171 l 2,1,2
 899 1212 899 1212 899 1234 c 0,3,4
 899 1264 899 1264 814 1264 c 0,5,6
 798 1264 798 1264 811.5 1311 c 128,-1,7
 825 1358 825 1358 838 1358 c 1,8,9
 982 1352 982 1352 1196 1352 c 128,-1,10
 1410 1352 1410 1352 1582.5 1355 c 128,-1,11
 1755 1358 1755 1358 1841 1358 c 0,12,13
 1906 1358 1906 1358 1906 1318 c 0,14,15
 1906 1307 1906 1307 1902 1293 c 2,16,-1
 1818 1010 l 2,17,18
 1816 1003 1816 1003 1799 998 c 128,-1,19
 1782 993 1782 993 1763 993 c 128,-1,20
 1744 993 1744 993 1730.5 998 c 128,-1,21
 1717 1003 1717 1003 1719 1010 c 0,22,23
 1735 1064 1735 1064 1735 1108 c 0,24,25
 1735 1168 1735 1168 1697 1216 c 128,-1,26
 1659 1264 1659 1264 1570 1266 c 2,27,-1
 1333 1270 l 2,28,29
 1289 1270 1289 1270 1274 1224 c 2,30,-1
 1121 720 l 2,31,32
 1110 684 1110 684 1148 684 c 2,33,-1
 1322 684 l 2,34,35
 1406 684 1406 684 1423 732 c 2,36,-1
 1471 877 l 2,37,38
 1478 896 1478 896 1521 895 c 128,-1,39
 1564 894 1564 894 1560 877 c 1,40,41
 1530 800 1530 800 1481 635 c 128,-1,42
 1432 470 1432 470 1423 420 c 0,43,44
 1417 403 1417 403 1376 405 c 128,-1,45
 1335 407 1335 407 1339 420 c 2,46,-1
 1373 548 l 2,47,48
 1381 577 1381 577 1363 588.5 c 128,-1,49
 1345 600 1345 600 1305 600 c 2,50,-1
 1112 600 l 2,51,52
 1087 600 1087 600 1075 567 c 2,53,-1
 984 265 l 2,54,55
 963 194 963 194 963 157 c 0,56,57
 963 74 963 74 1060 78 c 2,58,-1
 1289 86 l 2,59,60
 1538 96 1538 96 1612 344 c 0,61,62
 1618 361 1618 361 1665.5 361 c 128,-1,63
 1713 361 1713 361 1709 344 c 2,64,-1
 1625 32 l 2,65,66
 1616 0 1616 0 1598 -4 c 128,-1,67
 1580 -8 1580 -8 1505 -8 c 0,68,69
 1494 -8 1494 -8 1266.5 -4 c 128,-1,70
 1039 0 1039 0 877.5 0 c 128,-1,71
 716 0 716 0 525 -8 c 1,72,73
 512 -8 512 -8 521.5 39 c 128,-1,74
 531 86 531 86 546 86 c 0,75,76
 640 86 640 86 673.5 105 c 128,-1,77
 707 124 707 124 733 212 c 2,78,-1
 840 563 l 2,79,80
 852 600 852 600 814 600 c 2,81,-1
 514 600 l 2,82,83
 497 600 497 600 474 569 c 2,84,-1
 162 176 l 2,85,86
 139 147 139 147 139 130 c 0,87,88
 139 86 139 86 258 86 c 0,89,90
 271 86 271 86 259.5 39 c 128,-1,91
 248 -8 248 -8 233 -8 c 1,92,93
 157 0 157 0 11 0 c 0,94,95
 -145 0 -145 0 -222 -8 c 1,96,97
 -230 -8 -230 -8 -230 5.5 c 128,-1,98
 -230 19 -230 19 -222 52.5 c 128,-1,99
 -214 86 -214 86 -199 86 c 0,100,101
 -120 86 -120 86 -69.5 111 c 128,-1,102
 -19 136 -19 136 36 202 c 2,0,-1
604 720 m 2,103,104
 591 705 591 705 591 696 c 0,105,106
 591 684 591 684 617 684 c 2,107,-1
 840 684 l 2,108,109
 875 684 875 684 884 716 c 2,110,-1
 1022 1173 l 2,111,112
 1030 1202 1030 1202 1012 1202 c 0,113,114
 1004 1202 1004 1202 995 1190 c 2,115,-1
 604 720 l 2,103,104
EndSplineSet
Comment: "Last+AD0A-115" 
Colour: ffffff
EndChar

StartChar: Ccedilla
Encoding: 199 199 134
Width: 1470
Flags: MW
LayerCount: 2
Fore
SplineSet
728 -336 m 0,0,1
 728 -418 728 -418 650.5 -472 c 128,-1,2
 573 -526 573 -526 468 -526 c 0,3,4
 310 -526 310 -526 310 -436 c 0,5,6
 310 -407 310 -407 328.5 -387.5 c 128,-1,7
 347 -368 347 -368 376 -368 c 0,8,9
 407 -368 407 -368 451 -406 c 128,-1,10
 495 -444 495 -444 515 -444 c 0,11,12
 534 -444 534 -444 551 -429.5 c 128,-1,13
 568 -415 568 -415 568 -393 c 0,14,15
 568 -299 568 -299 441 -245 c 1,16,-1
 435 -229 l 1,17,-1
 581 -15 l 1,18,19
 438 13 438 13 330 106 c 0,20,21
 178 239 178 239 178 469 c 0,22,23
 178 820 178 820 477 1102.5 c 128,-1,24
 776 1385 776 1385 1148 1385 c 0,25,26
 1256 1385 1256 1385 1390 1357 c 128,-1,27
 1524 1329 1524 1329 1583 1329 c 1,28,29
 1571 1149 1571 1149 1522 995 c 0,30,31
 1516 978 1516 978 1469 978 c 128,-1,32
 1422 978 1422 978 1425 999 c 0,33,34
 1434 1052 1434 1052 1434 1073 c 0,35,36
 1434 1177 1434 1177 1340.5 1238 c 0,37,38
 1248 1299 1248 1299 1108 1299 c 0,39,40
 834 1299 834 1299 626 1039.5 c 128,-1,41
 418 780 418 780 418 454 c 0,42,43
 418 302 418 302 504 182.5 c 128,-1,44
 590 63 590 63 768 63 c 0,45,46
 885 63 885 63 977.5 96.5 c 128,-1,47
 1070 130 1070 130 1146.5 201.5 c 128,-1,48
 1223 273 1223 273 1272 346 c 0,49,50
 1282 361 1282 361 1325 359 c 128,-1,51
 1368 357 1368 357 1368 342 c 0,52,53
 1368 304 1368 304 1300 187.5 c 128,-1,54
 1232 71 1232 71 1199 36 c 1,55,56
 1146 29 1146 29 1110 17 c 1,57,58
 934 -27 934 -27 708 -27 c 0,59,60
 694 -27 694 -27 680 -27 c 1,61,-1
 613 -118 l 2,62,63
 601 -135 601 -135 604 -142 c 128,-1,64
 607 -149 607 -149 630 -166 c 0,65,66
 728 -239 728 -239 728 -336 c 0,0,1
EndSplineSet
Ligature2: "'ccmp' Glyph Composition Decomposition subtable" C uni0327
LCarets2: 1 0 
EndChar

StartChar: Eth
Encoding: 208 208 143
Width: 1554
VWidth: 1909
Flags: MW
LayerCount: 2
Fore
SplineSet
1608 892 m 0,0,1
 1608 739 1608 739 1534.5 578.5 c 128,-1,2
 1461 418 1461 418 1338 288.5 c 128,-1,3
 1215 159 1215 159 1036.5 75.5 c 128,-1,4
 858 -8 858 -8 665 -8 c 0,5,6
 586 -8 586 -8 473.5 -4 c 128,-1,7
 361 0 361 0 268.5 0 c 128,-1,8
 176 0 176 0 -15 -8 c 0,9,10
 -31 -8 -31 -8 -19.5 39 c 128,-1,11
 -8 86 -8 86 6 86 c 0,12,13
 61 86 61 86 91.5 91 c 128,-1,14
 122 96 122 96 152.5 122.5 c 128,-1,15
 183 149 183 149 201 202 c 2,16,-1
 317 598 l 2,17,18
 327 625 327 625 302 625 c 2,19,-1
 136 625 l 2,20,21
 122 625 122 625 131.5 671.5 c 128,-1,22
 141 718 141 718 157 718 c 2,23,-1
 327 718 l 2,24,25
 355 718 355 718 363 747 c 2,26,-1
 487 1154 l 2,27,28
 508 1220 508 1220 476.5 1242 c 128,-1,29
 445 1264 445 1264 348 1264 c 0,30,31
 332 1264 332 1264 343.5 1311 c 128,-1,32
 355 1358 355 1358 369 1358 c 0,33,34
 512 1352 512 1352 626.5 1352 c 128,-1,35
 741 1352 741 1352 844 1355 c 128,-1,36
 947 1358 947 1358 1008 1358 c 0,37,38
 1282 1358 1282 1358 1445 1236 c 128,-1,39
 1608 1114 1608 1114 1608 892 c 0,0,1
1348 869 m 0,40,41
 1348 1037 1348 1037 1242 1157.5 c 128,-1,42
 1136 1278 1136 1278 924 1278 c 0,43,44
 844 1278 844 1278 817.5 1275 c 128,-1,45
 791 1272 791 1272 769 1254 c 128,-1,46
 747 1236 747 1236 733 1190 c 2,47,-1
 600 747 l 2,48,49
 592 718 592 718 619 718 c 2,50,-1
 817 718 l 2,51,52
 833 718 833 718 821.5 671.5 c 128,-1,53
 810 625 810 625 796 625 c 2,54,-1
 588 625 l 2,55,56
 560 625 560 625 554 602 c 2,57,-1
 451 264 l 2,58,59
 424 174 424 174 455.5 122.5 c 128,-1,60
 487 71 487 71 615 71 c 0,61,62
 800 71 800 71 974 198 c 128,-1,63
 1148 325 1148 325 1248 509 c 128,-1,64
 1348 693 1348 693 1348 869 c 0,40,41
EndSplineSet
EndChar

StartChar: multiply
Encoding: 215 215 150
Width: 833
Flags: MW
LayerCount: 2
Fore
SplineSet
825 98 m 1,0,-1
 688 -39 l 1,1,-1
 444 203 l 1,2,-1
 203 -39 l 1,3,-1
 66 98 l 1,4,-1
 307 342 l 1,5,-1
 66 584 l 1,6,-1
 203 721 l 1,7,-1
 444 479 l 1,8,-1
 688 721 l 1,9,-1
 825 584 l 1,10,-1
 582 342 l 1,11,-1
 825 98 l 1,0,-1
EndSplineSet
EndChar

StartChar: Oslash
Encoding: 216 216 151
Width: 1512
VWidth: 1909
Flags: MW
AnchorPoint: "Anchor-0" 1084 1415 basechar 0
LayerCount: 2
Fore
SplineSet
1568 875 m 0,0,1
 1568 720 1568 720 1500 548 c 128,-1,2
 1432 376 1432 376 1285 231 c 0,3,4
 1020 -29 1020 -29 672 -29 c 0,5,6
 527 -29 527 -29 399 48 c 1,7,-1
 281 -90 l 2,8,9
 271 -101 271 -101 231 -65 c 128,-1,10
 191 -29 191 -29 201 -17 c 2,11,-1
 311 113 l 1,12,13
 178 243 178 243 178 451 c 0,14,15
 178 850 178 850 508 1154 c 0,16,17
 657 1291 657 1291 795.5 1338 c 128,-1,18
 934 1385 934 1385 1079 1385 c 0,19,20
 1240 1385 1240 1385 1345 1320 c 1,21,-1
 1432 1423 l 2,22,23
 1446 1438 1446 1438 1486 1402 c 128,-1,24
 1526 1366 1526 1366 1513 1350 c 2,25,-1
 1429 1251 l 1,26,27
 1432 1247 1432 1247 1440 1238.5 c 128,-1,28
 1448 1230 1448 1230 1450 1228 c 0,29,30
 1568 1087 1568 1087 1568 875 c 0,0,1
1236 1192 m 1,31,32
 1156 1299 1156 1299 1054 1299 c 2,33,34
 1049 1303 1049 1303 1019 1300 c 128,-1,35
 989 1297 989 1297 956.5 1293 c 128,-1,36
 924 1289 924 1289 870.5 1263.5 c 128,-1,37
 817 1238 817 1238 762 1196 c 0,38,39
 647 1110 647 1110 566 975 c 128,-1,40
 485 840 485 840 452.5 714 c 128,-1,41
 420 588 420 588 420 474 c 0,42,43
 420 363 420 363 453 277 c 1,44,-1
 1236 1192 l 1,31,32
1331 875 m 0,45,46
 1331 989 1331 989 1291 1091 c 1,47,-1
 506 174 l 1,48,49
 590 63 590 63 707 63 c 0,50,51
 835 63 835 63 942.5 125 c 128,-1,52
 1050 187 1050 187 1120 280.5 c 128,-1,53
 1190 374 1190 374 1239.5 488 c 128,-1,54
 1289 602 1289 602 1310 700 c 128,-1,55
 1331 798 1331 798 1331 875 c 0,45,46
EndSplineSet
EndChar

StartChar: Thorn
Encoding: 222 222 157
Width: 1249
VWidth: 1909
Flags: MW
LayerCount: 2
Fore
SplineSet
59 -201 m 2,0,-1
 443 1089 l 2,1,2
 453 1121 453 1121 453 1149 c 0,3,4
 453 1224 453 1224 315 1224 c 0,5,6
 302 1224 302 1224 315.5 1271 c 128,-1,7
 329 1318 329 1318 342 1318 c 0,8,9
 487 1318 487 1318 647 1369 c 0,10,11
 695 1384 695 1384 723 1384 c 0,12,13
 760 1384 760 1384 760 1351 c 0,14,15
 760 1328 760 1328 740 1277 c 128,-1,16
 720 1226 720 1226 693 1135 c 1,17,18
 792 1184 792 1184 896 1257 c 128,-1,19
 1000 1330 1000 1330 1081 1330 c 0,20,21
 1135 1330 1135 1330 1171 1295 c 0,22,23
 1278 1188 1278 1188 1278 974 c 0,24,25
 1278 792 1278 792 1181 581 c 128,-1,26
 1084 370 1084 370 832 180 c 128,-1,27
 580 -10 580 -10 382 -23 c 0,28,29
 346 -25 346 -25 334 -65 c 2,30,-1
 277 -260 l 2,31,32
 260 -315 260 -315 146 -392.5 c 128,-1,33
 32 -470 32 -470 -76 -520 c 0,34,35
 -79 -521 -79 -521 -83 -521 c 0,36,37
 -102 -521 -102 -521 -125.5 -484.5 c 128,-1,38
 -149 -448 -149 -448 -149 -434 c 128,-1,39
 -149 -420 -149 -420 -141 -414 c 0,40,41
 -50 -357 -50 -357 -6 -313 c 128,-1,42
 38 -269 38 -269 59 -201 c 2,0,-1
390 120 m 2,43,44
 385 102 385 102 385 91 c 0,45,46
 385 74 385 74 410 74 c 0,47,48
 418 74 418 74 428 76 c 0,49,50
 587 117 587 117 738 252 c 128,-1,51
 889 387 889 387 964 562 c 0,52,53
 1039 736 1039 736 1039 902 c 0,54,55
 1039 1062 1039 1062 953 1163 c 0,56,57
 938 1180 938 1180 924 1180 c 0,58,59
 908 1180 908 1180 900 1175 c 0,60,61
 810 1112 810 1112 694 1045 c 0,62,63
 658 1025 658 1025 644 980 c 2,64,-1
 390 120 l 2,43,44
EndSplineSet
Substitution2: "'ss19' Latin to Gothic transliteration subtable" u10338
Substitution2: "'locl' Localized Forms in Icelandic-1" Thorn.nordic
Substitution2: "'ss01' Style Set 1 in Latin lookup 8" Thorn.nordic
EndChar

StartChar: germandbls
Encoding: 223 223 158
Width: 983
Flags: MW
LayerCount: 2
Fore
SplineSet
1214 1280 m 0,0,1
 1214 1241 1214 1241 1198 1207.5 c 128,-1,2
 1182 1174 1182 1174 1146 1144 c 128,-1,3
 1110 1114 1110 1114 1077 1092.5 c 128,-1,4
 1044 1071 1044 1071 990 1039.5 c 128,-1,5
 936 1008 936 1008 903 985 c 0,6,7
 688 840 688 840 688 694 c 0,8,9
 688 653 688 653 706.5 620.5 c 128,-1,10
 725 588 725 588 801 483 c 0,11,12
 858 407 858 407 882.5 358 c 128,-1,13
 907 309 907 309 907 250 c 0,14,15
 907 135 907 135 805 49 c 0,16,17
 717 -27 717 -27 580 -27 c 0,18,19
 508 -27 508 -27 457 17 c 128,-1,20
 406 61 406 61 406 109 c 0,21,22
 406 146 406 146 427.5 180.5 c 128,-1,23
 449 215 449 215 498 215 c 0,24,25
 527 215 527 215 551 204 c 128,-1,26
 575 193 575 193 586.5 182.5 c 128,-1,27
 598 172 598 172 623 145 c 0,28,29
 633 133 633 133 642 124 c 128,-1,30
 651 115 651 115 660.5 108.5 c 128,-1,31
 670 102 670 102 685 99 c 128,-1,32
 700 96 700 96 723 96 c 0,33,34
 772 96 772 96 772 160 c 0,35,36
 772 183 772 183 752.5 211.5 c 128,-1,37
 733 240 733 240 694 283 c 128,-1,38
 655 326 655 326 641 346 c 0,39,40
 541 479 541 479 541 578 c 0,41,42
 541 664 541 664 560.5 730.5 c 128,-1,43
 580 797 580 797 626 853 c 128,-1,44
 672 909 672 909 714 945 c 128,-1,45
 756 981 756 981 831 1038 c 0,46,47
 993 1155 993 1155 993 1257 c 0,48,49
 993 1306 993 1306 966.5 1344 c 128,-1,50
 940 1382 940 1382 883 1382 c 0,51,52
 807 1382 807 1382 744.5 1335 c 128,-1,53
 682 1288 682 1288 606 1200 c 0,54,55
 524 1104 524 1104 479 972 c 128,-1,56
 434 840 434 840 389 616 c 2,57,-1
 246 -96 l 2,58,59
 226 -200 226 -200 182.5 -305 c 128,-1,60
 139 -410 139 -410 106 -440 c 0,61,62
 -13 -551 -13 -551 -145 -551 c 0,63,64
 -233 -551 -233 -551 -284.5 -510 c 128,-1,65
 -336 -469 -336 -469 -336 -424 c 128,-1,66
 -336 -379 -336 -379 -307.5 -349 c 128,-1,67
 -279 -319 -279 -319 -244 -319 c 0,68,69
 -185 -319 -185 -319 -158 -375 c 0,70,71
 -123 -447 -123 -447 -92 -446 c 0,72,73
 -65 -446 -65 -446 -46 -428 c 128,-1,74
 -27 -410 -27 -410 -16.5 -381 c 128,-1,75
 -6 -352 -6 -352 2 -317.5 c 128,-1,76
 10 -283 10 -283 16 -250 c 2,77,-1
 195 631 l 2,78,79
 271 1006 271 1006 436 1208 c 0,80,81
 647 1464 647 1464 965 1464 c 0,82,83
 1074 1464 1074 1464 1144 1416 c 128,-1,84
 1214 1368 1214 1368 1214 1280 c 0,0,1
EndSplineSet
EndChar

StartChar: ae
Encoding: 230 230 165
Width: 1083
Flags: MW
LayerCount: 2
Fore
SplineSet
37 162 m 0,0,1
 37 328 37 328 189.5 492.5 c 128,-1,2
 342 657 342 657 553 754.5 c 128,-1,3
 764 852 764 852 940 852 c 0,4,5
 1110 852 1110 852 1110 711 c 0,6,7
 1110 635 1110 635 1053.5 569.5 c 128,-1,8
 997 504 997 504 906 461 c 128,-1,9
 815 418 815 418 751.5 395.5 c 128,-1,10
 688 373 688 373 625 356 c 1,11,12
 615 284 615 284 614 252 c 0,13,14
 614 184 614 184 644 144 c 128,-1,15
 674 104 674 104 723 104 c 0,16,17
 768 104 768 104 823 141 c 128,-1,18
 878 178 878 178 913 215 c 0,19,20
 924 226 924 226 948.5 205 c 128,-1,21
 973 184 973 184 965 172 c 0,22,23
 805 -27 805 -27 649 -27 c 0,24,25
 577 -27 577 -27 538.5 -2 c 128,-1,26
 500 23 500 23 471 74 c 1,27,28
 338 -26 338 -26 197 -27 c 0,29,30
 123 -27 123 -27 80 27.5 c 128,-1,31
 37 82 37 82 37 162 c 0,0,1
641 438 m 1,32,33
 731 465 731 465 818 532.5 c 128,-1,34
 905 600 905 600 905 688 c 0,35,36
 905 700 905 700 902 713.5 c 128,-1,37
 899 727 899 727 885.5 742.5 c 128,-1,38
 872 758 872 758 852 758 c 0,39,40
 795 758 795 758 731.5 656.5 c 128,-1,41
 668 555 668 555 641 438 c 1,32,33
258 195 m 0,42,43
 258 160 258 160 273.5 132 c 128,-1,44
 289 104 289 104 317 104 c 0,45,46
 358 104 358 104 420 143 c 1,47,48
 410 198 410 198 410 231 c 0,49,50
 410 340 410 340 488.5 478 c 128,-1,51
 567 616 567 616 670 707 c 1,52,-1
 662 715 l 1,53,54
 494 631 494 631 376 478.5 c 128,-1,55
 258 326 258 326 258 195 c 0,42,43
EndSplineSet
EndChar

StartChar: ccedilla
Encoding: 231 231 166
Width: 743
Flags: MW
LayerCount: 2
Fore
SplineSet
430 -334 m 0,0,1
 430 -416 430 -416 352.5 -470 c 128,-1,2
 275 -524 275 -524 170 -524 c 0,3,4
 12 -524 12 -524 12 -434 c 0,5,6
 12 -405 12 -405 30.5 -385.5 c 128,-1,7
 49 -366 49 -366 78 -366 c 0,8,9
 109 -366 109 -366 153 -404 c 128,-1,10
 197 -442 197 -442 217 -442 c 0,11,12
 236 -442 236 -442 253 -427.5 c 128,-1,13
 270 -413 270 -413 270 -391 c 0,14,15
 270 -297 270 -297 143 -243 c 1,16,-1
 137 -227 l 1,17,-1
 278 -21 l 1,18,19
 209 -5 209 -5 159 53 c 0,20,21
 92 133 92 133 92 264 c 0,22,23
 92 467 92 467 249 659.5 c 128,-1,24
 406 852 406 852 588 852 c 0,25,26
 668 852 668 852 724 819 c 128,-1,27
 780 786 780 786 780 737 c 0,28,29
 780 700 780 700 747.5 671.5 c 128,-1,30
 715 643 715 643 678 643 c 0,31,32
 635 643 635 643 618 674 c 1,33,34
 613 722 613 722 591 746 c 128,-1,35
 569 770 569 770 537 770 c 0,36,37
 440 770 440 770 370.5 624.5 c 128,-1,38
 301 479 301 479 301 330 c 0,39,40
 301 231 301 231 333 160.5 c 128,-1,41
 365 90 365 90 428 90 c 0,42,43
 481 90 481 90 523 115.5 c 128,-1,44
 565 141 565 141 582 158 c 0,45,46
 590 166 590 166 604.5 157.5 c 128,-1,47
 619 149 619 149 628 135.5 c 128,-1,48
 637 122 637 122 629 113 c 0,49,50
 528 -7 528 -7 382 -24 c 1,51,-1
 315 -116 l 2,52,53
 303 -133 303 -133 306 -140 c 128,-1,54
 309 -147 309 -147 332 -164 c 0,55,56
 430 -237 430 -237 430 -334 c 0,0,1
EndSplineSet
Ligature2: "'ccmp' Glyph Composition Decomposition subtable" c uni0327
LCarets2: 1 0 
EndChar

StartChar: eth
Encoding: 240 240 175
Width: 911
Flags: MW
LayerCount: 2
Fore
SplineSet
690 641 m 0,0,1
 690 700 690 700 658.5 725 c 128,-1,2
 627 750 627 750 588 750 c 0,3,4
 522 750 522 750 450.5 661.5 c 128,-1,5
 379 573 379 573 333 444 c 128,-1,6
 287 315 287 315 287 201 c 0,7,8
 287 144 287 144 323.5 109 c 128,-1,9
 360 74 360 74 401 74 c 0,10,11
 464 74 464 74 533 169 c 128,-1,12
 602 264 602 264 646 397 c 128,-1,13
 690 530 690 530 690 641 c 0,0,1
920 1208 m 0,14,15
 914 1208 914 1208 876 1220.5 c 128,-1,16
 838 1233 838 1233 815 1233 c 0,17,18
 797 1233 797 1233 782 1225 c 2,19,-1
 610 1114 l 1,20,21
 891 917 891 917 891 647 c 0,22,23
 891 342 891 342 748.5 157.5 c 128,-1,24
 606 -27 606 -27 371 -27 c 0,25,26
 95 -27 95 -27 94 322 c 0,27,28
 94 543 94 543 253 697.5 c 128,-1,29
 412 852 412 852 592 852 c 0,30,31
 600 852 600 852 618.5 851 c 128,-1,32
 637 850 637 850 643 850 c 1,33,34
 586 948 586 948 489 1034 c 1,35,-1
 209 854 l 2,36,37
 188 841 188 841 163.5 922.5 c 128,-1,38
 139 1004 139 1004 150 1004 c 0,39,40
 152 1004 152 1004 181.5 986.5 c 128,-1,41
 211 969 211 969 236 969 c 0,42,43
 254 969 254 969 276 981 c 2,44,-1
 432 1081 l 1,45,46
 330 1159 330 1159 156 1235 c 0,47,48
 140 1243 140 1243 156 1280 c 128,-1,49
 172 1317 172 1317 193 1311 c 0,50,51
 379 1258 379 1258 545 1155 c 1,52,-1
 842 1350 l 2,53,54
 859 1360 859 1360 897 1284 c 128,-1,55
 935 1208 935 1208 920 1208 c 0,14,15
EndSplineSet
Substitution2: "Single Substitution dot tagless lookup-1" eth.alt
Substitution2: "'locl' Localized Forms in Icelandic-1" eth.nordic
Substitution2: "'ss01' Style Set 1 in Latin lookup 8" eth.nordic
EndChar

StartChar: divide
Encoding: 247 247 182
Width: 1097
Flags: MW
LayerCount: 2
Fore
SplineSet
706 786 m 0,0,1
 706 714 706 714 645 681 c 2,2,-1
 617 669 l 2,3,4
 598 664 598 664 578 664 c 0,5,6
 512 664 512 664 471 707 c 0,7,8
 438 742 438 742 438 799 c 0,9,10
 438 848 438 848 475 885 c 128,-1,11
 512 922 512 922 578 922 c 0,12,13
 642 922 642 922 680 870 c 0,14,15
 706 834 706 834 706 786 c 0,0,1
1018 383 m 1,16,-1
 129 383 l 1,17,-1
 129 541 l 1,18,-1
 1018 541 l 1,19,-1
 1018 383 l 1,16,-1
706 125 m 0,20,21
 706 52 706 52 645 19 c 2,22,-1
 617 7 l 2,23,24
 598 2 598 2 578 2 c 0,25,26
 513 2 513 2 472 44 c 0,27,28
 438 79 438 79 438 137 c 0,29,30
 438 186 438 186 475 223 c 128,-1,31
 512 260 512 260 578 260 c 0,32,33
 642 260 642 260 680 209 c 0,34,35
 706 173 706 173 706 125 c 0,20,21
EndSplineSet
EndChar

StartChar: oslash
Encoding: 248 248 183
Width: 948
Flags: MW
AnchorPoint: "Anchor-0" 639 900 basechar 0
LayerCount: 2
Fore
SplineSet
909 528 m 0,0,1
 909 369 909 369 817 221 c 0,2,3
 714 55 714 55 545 -2 c 0,4,5
 472 -27 472 -27 391 -27 c 0,6,7
 317 -27 317 -27 256 6 c 1,8,-1
 176 -104 l 2,9,10
 173 -108 173 -108 166 -108 c 0,11,12
 145 -108 145 -108 124 -85 c 0,13,14
 116 -76 116 -76 115 -69 c 1,15,-1
 117 -63 l 1,16,-1
 199 51 l 1,17,18
 113 143 113 143 113 315 c 0,19,20
 113 466 113 466 223 616 c 0,21,22
 328 757 328 757 473 818 c 0,23,24
 553 852 553 852 631 852 c 0,25,26
 703 852 703 852 762 825 c 1,27,-1
 821 907 l 2,28,29
 824 911 824 911 829 911 c 2,30,-1
 845 907 l 2,31,32
 872 895 872 895 881 876 c 1,33,-1
 882 868 l 1,34,-1
 881 866 l 1,35,-1
 821 782 l 1,36,37
 909 698 909 698 909 528 c 0,0,1
696 735 m 1,38,39
 673 748 673 748 641 748 c 0,40,41
 557 748 557 748 454 604 c 0,42,43
 360 472 360 472 315 320 c 0,44,45
 295 251 295 251 295 203 c 2,46,-1
 295 182 l 1,47,-1
 696 735 l 1,38,39
731 618 m 0,48,49
 731 647 731 647 729 657 c 1,50,-1
 330 106 l 1,51,52
 353 86 353 86 391 86 c 0,53,54
 468 86 468 86 570 228 c 0,55,56
 665 361 665 361 710 507 c 0,57,58
 731 574 731 574 731 618 c 0,48,49
EndSplineSet
EndChar

StartChar: thorn
Encoding: 254 254 189
Width: 876
Flags: MW
LayerCount: 2
Fore
SplineSet
877 666 m 0,0,1
 877 542 877 542 812.5 404 c 128,-1,2
 748 266 748 266 579.5 138 c 128,-1,3
 411 10 411 10 264 -27 c 1,4,-1
 195 -385 l 2,5,6
 170 -514 170 -514 -96 -557 c 0,7,8
 -104 -559 -104 -559 -112.5 -541.5 c 128,-1,9
 -121 -524 -121 -524 -121 -508 c 128,-1,10
 -121 -492 -121 -492 -113 -487 c 0,11,12
 -56 -471 -56 -471 -32 -437 c 128,-1,13
 -8 -403 -8 -403 4 -340 c 2,14,-1
 307 1214 l 2,15,16
 336 1359 336 1359 254 1360 c 0,17,18
 234 1360 234 1360 235 1396 c 128,-1,19
 236 1432 236 1432 254 1432 c 0,20,21
 340 1432 340 1432 432 1459.5 c 128,-1,22
 524 1487 524 1487 528 1487 c 0,23,24
 553 1487 553 1487 545 1448 c 2,25,-1
 420 727 l 1,26,27
 531 852 531 852 666 852 c 0,28,29
 748 852 748 852 812.5 806 c 128,-1,30
 877 760 877 760 877 666 c 0,0,1
668 662 m 0,31,32
 668 707 668 707 640 732.5 c 128,-1,33
 612 758 612 758 584 758 c 0,34,35
 512 758 512 758 447.5 678 c 128,-1,36
 383 598 383 598 365 500 c 2,37,-1
 276 45 l 1,38,39
 407 90 407 90 506.5 217 c 128,-1,40
 606 344 606 344 637 455 c 128,-1,41
 668 566 668 566 668 662 c 0,31,32
EndSplineSet
Substitution2: "'ss19' Latin to Gothic transliteration subtable" u10338
Substitution2: "'locl' Localized Forms in Icelandic-1" thorn.nordic
Substitution2: "'ss01' Style Set 1 in Latin lookup 8" thorn.nordic
EndChar

StartChar: Aogonek
Encoding: 260 260 195
Width: 1165
Flags: MW
LayerCount: 2
Fore
SplineSet
774 649 m 2,0,-1
 821 1062 l 2,1,2
 823 1077 823 1077 815 1077 c 128,-1,3
 807 1077 807 1077 798 1064 c 2,4,-1
 515 636 l 2,5,6
 509 628 509 628 509 617.5 c 128,-1,7
 509 607 509 607 528 607 c 2,8,-1
 732 607 l 2,9,10
 769 607 769 607 774 649 c 2,0,-1
928 202 m 2,11,12
 926 187 926 187 926 172 c 0,13,14
 926 86 926 86 1052 86 c 0,15,16
 1060 86 1060 86 1060 67 c 128,-1,17
 1060 48 1060 48 1051.5 20 c 128,-1,18
 1043 -8 1043 -8 1031 -8 c 1,19,20
 991 -4 991 -4 929 -2 c 1,21,22
 729 -176 729 -176 729 -293 c 0,23,24
 729 -367 729 -367 825 -367 c 0,25,26
 886 -367 886 -367 937 -336 c 1,27,28
 955 -343 955 -343 946 -375 c 1,29,30
 839 -488 839 -488 686 -488 c 128,-1,31
 533 -488 533 -488 533 -372 c 0,32,33
 533 -199 533 -199 813 -0 c 1,34,35
 806 0 806 0 800 0 c 0,36,37
 646 0 646 0 569 -8 c 1,38,39
 561 -8 561 -8 561 9.5 c 128,-1,40
 561 27 561 27 570.5 56.5 c 128,-1,41
 580 86 580 86 590 86 c 0,42,43
 651 86 651 86 679 108 c 128,-1,44
 707 130 707 130 716 202 c 2,45,-1
 753 485 l 2,46,47
 758 523 758 523 716 523 c 2,48,-1
 470 523 l 2,49,50
 440 523 440 523 422 495 c 2,51,-1
 233 201 l 2,52,53
 209 163 209 163 209 141 c 0,54,55
 209 86 209 86 330 86 c 0,56,57
 338 86 338 86 338 67.5 c 128,-1,58
 338 49 338 49 329.5 20.5 c 128,-1,59
 321 -8 321 -8 309 -8 c 1,60,61
 233 0 233 0 79.5 0 c 128,-1,62
 -74 0 -74 0 -151 -8 c 1,63,64
 -159 -8 -159 -8 -159 5.5 c 128,-1,65
 -159 19 -159 19 -152 52.5 c 128,-1,66
 -145 86 -145 86 -130 86 c 0,67,68
 -21 86 -21 86 27 120.5 c 128,-1,69
 75 155 75 155 117 218 c 2,70,-1
 772 1192 l 2,71,72
 780 1204 780 1204 780 1215 c 0,73,74
 780 1226 780 1226 770.5 1237.5 c 128,-1,75
 761 1249 761 1249 761 1260 c 0,76,77
 761 1280 761 1280 829.5 1303.5 c 128,-1,78
 898 1327 898 1327 953.5 1356.5 c 128,-1,79
 1009 1386 1009 1386 1037 1386 c 0,80,81
 1079 1386 1079 1386 1079 1336 c 0,82,83
 1079 1314 1079 1314 1065 1256.5 c 128,-1,84
 1051 1199 1051 1199 1045 1150 c 2,85,-1
 928 202 l 2,11,12
EndSplineSet
Ligature2: "'ccmp' Glyph Composition Decomposition subtable" A uni0328
LCarets2: 1 0 
EndChar

StartChar: aogonek
Encoding: 261 261 196
Width: 966
Flags: MW
AnchorPoint: "Anchor-0" 645 900 basechar 0
LayerCount: 2
Fore
SplineSet
666 553 m 2,0,-1
 715 713 l 1,1,2
 683 760 683 760 614 760 c 0,3,4
 506 760 506 760 395.5 571 c 128,-1,5
 285 382 285 382 285 227 c 0,6,7
 285 110 285 110 332 110 c 0,8,9
 384 110 384 110 458.5 191.5 c 128,-1,10
 533 273 533 273 586 369 c 128,-1,11
 639 465 639 465 666 553 c 2,0,-1
752 180 m 2,12,13
 749 170 749 170 749 161 c 0,14,15
 750 141 750 141 772 141 c 0,16,17
 808 141 808 141 874 207 c 0,18,19
 886 219 886 219 914 195 c 0,20,21
 934 178 934 178 934 167 c 0,22,23
 934 162 934 162 930 158 c 0,24,25
 855 85 855 85 791 40 c 1,26,-1
 796 40 l 1,27,28
 546 -162 546 -162 546 -293 c 0,29,30
 546 -367 546 -367 642 -367 c 0,31,32
 703 -367 703 -367 754 -336 c 1,33,34
 772 -343 772 -343 763 -375 c 1,35,36
 656 -488 656 -488 503 -488 c 128,-1,37
 350 -488 350 -488 350 -372 c 0,38,39
 350 -209 350 -209 599 -22 c 1,40,41
 552 -6 552 -6 552 64 c 0,42,43
 552 114 552 114 570 156 c 2,44,-1
 596 215 l 1,45,-1
 584 221 l 1,46,47
 360 -27 360 -27 223 -27 c 0,48,49
 150 -27 150 -27 106.5 27 c 128,-1,50
 63 81 63 81 63 166 c 0,51,52
 63 375 63 375 249 609.5 c 128,-1,53
 435 844 435 844 641 844 c 0,54,55
 703 844 703 844 748 813 c 1,56,-1
 768 862 l 2,57,58
 777 884 777 884 864.5 884 c 128,-1,59
 952 884 952 884 952 849 c 0,60,61
 952 842 952 842 949 831 c 2,62,-1
 752 180 l 2,12,13
EndSplineSet
Ligature2: "'ccmp' Glyph Composition Decomposition subtable" a uni0328
LCarets2: 1 0 
EndChar

StartChar: dcroat
Encoding: 273 273 208
Width: 985
Flags: MW
LayerCount: 2
Fore
SplineSet
1085 1448 m 1,0,-1
 1020 1175 l 1,1,-1
 1214 1175 l 2,2,3
 1220 1175 1220 1175 1220 1162 c 2,4,-1
 1215 1132 l 1,5,-1
 1201 1094 l 2,6,7
 1189 1069 1189 1069 1180 1069 c 2,8,-1
 995 1069 l 1,9,-1
 782 180 l 1,10,-1
 779 158 l 2,11,12
 781 141 781 141 801 141 c 0,13,14
 825 141 825 141 871 200 c 0,15,16
 889 222 889 222 893 227 c 0,17,18
 896 231 896 231 901 231 c 2,19,-1
 916 227 l 2,20,21
 941 215 941 215 949 194 c 1,22,-1
 949 183 l 2,23,24
 949 181 949 181 948 180 c 0,25,26
 850 44 850 44 752 -6 c 0,27,28
 711 -27 711 -27 674 -27 c 0,29,30
 597 -27 597 -27 582 51 c 0,31,32
 578 74 578 74 578 110 c 0,33,34
 578 135 578 135 594 208 c 0,35,36
 595 212 595 212 596 215 c 1,37,-1
 584 221 l 1,38,39
 398 3 398 3 258 -24 c 0,40,41
 240 -27 240 -27 223 -27 c 0,42,43
 117 -27 117 -27 78 82 c 0,44,45
 63 125 63 125 63 172 c 0,46,47
 63 304 63 304 158 478 c 0,48,49
 259 664 259 664 402 767 c 0,50,51
 519 852 519 852 633 852 c 0,52,53
 690 852 690 852 741 821 c 1,54,-1
 801 1069 l 1,55,-1
 610 1069 l 2,56,57
 604 1069 604 1069 604 1082 c 0,58,59
 604 1115 604 1115 625 1155 c 0,60,61
 635 1175 635 1175 643 1175 c 2,62,-1
 825 1175 l 1,63,-1
 834 1210 l 2,64,65
 843 1249 843 1249 843 1280 c 0,66,67
 843 1360 843 1360 782 1360 c 0,68,69
 764 1360 764 1360 763 1393 c 2,70,-1
 766 1415 l 2,71,72
 771 1432 771 1432 782 1432 c 0,73,74
 874 1432 874 1432 1006 1472 c 0,75,76
 1053 1487 1053 1487 1067 1487 c 0,77,78
 1088 1487 1088 1487 1089 1469 c 2,79,-1
 1085 1448 l 1,0,-1
715 711 m 1,80,81
 672 770 672 770 614 770 c 0,82,83
 511 770 511 770 412 606 c 0,84,85
 329 467 329 467 295 303 c 0,86,87
 284 247 284 247 284 205 c 0,88,89
 284 138 284 138 314 116 c 0,90,91
 322 110 322 110 332 110 c 0,92,93
 388 110 388 110 487 215 c 0,94,95
 583 316 583 316 651 444 c 2,96,-1
 715 711 l 1,80,81
EndSplineSet
EndChar

StartChar: Eogonek
Encoding: 280 280 215
Width: 1256
Flags: MW
LayerCount: 2
Fore
SplineSet
1079 21 m 2,0,1
 1071 -8 1071 -8 1021 -8 c 0,2,3
 914 -8 914 -8 833.5 -101.5 c 128,-1,4
 753 -195 753 -195 753 -283 c 0,5,6
 753 -324 753 -324 784.5 -348 c 128,-1,7
 816 -372 816 -372 856 -372 c 0,8,9
 915 -372 915 -372 957 -343 c 1,10,11
 973 -349 973 -349 973 -373 c 2,12,-1
 973 -380 l 1,13,14
 888 -487 888 -487 753 -487 c 0,15,16
 669 -487 669 -487 623 -445.5 c 128,-1,17
 577 -404 577 -404 577 -333 c 0,18,19
 577 -212 577 -212 725 -82 c 0,20,21
 777 -37 777 -37 828 -6 c 1,22,23
 752 -5 752 -5 653 -4 c 0,24,25
 385 0 385 0 273.5 0 c 128,-1,26
 162 0 162 0 -15 -8 c 1,27,28
 -24 -8 -24 -8 -24 5.5 c 128,-1,29
 -24 19 -24 19 -16 52.5 c 128,-1,30
 -8 86 -8 86 6 86 c 0,31,32
 105 86 105 86 142.5 112 c 128,-1,33
 180 138 180 138 204 218 c 2,34,-1
 487 1157 l 1,35,36
 492 1170 492 1170 492 1196 c 0,37,38
 492 1263 492 1263 346 1263 c 0,39,40
 338 1263 338 1263 338 1277.5 c 128,-1,41
 338 1292 338 1292 347.5 1325 c 128,-1,42
 357 1358 357 1358 369 1358 c 1,43,44
 471 1354 471 1354 609 1354 c 128,-1,45
 747 1354 747 1354 995 1356 c 128,-1,46
 1243 1358 1243 1358 1343 1358 c 0,47,48
 1406 1358 1406 1358 1406 1328 c 0,49,50
 1406 1315 1406 1315 1402 1301 c 2,51,-1
 1318 1012 l 2,52,53
 1312 993 1312 993 1266 993 c 128,-1,54
 1220 993 1220 993 1224 1010 c 0,55,56
 1231 1043 1231 1043 1231 1093 c 128,-1,57
 1231 1143 1231 1143 1189.5 1197.5 c 128,-1,58
 1148 1252 1148 1252 1064 1257 c 0,59,60
 918 1265 918 1265 795 1264 c 0,61,62
 757 1264 757 1264 747 1232 c 2,63,-1
 588 724 l 2,64,65
 586 716 586 716 586 711 c 0,66,67
 586 692 586 692 609 692 c 2,68,-1
 789 692 l 2,69,70
 837 692 837 692 859 702 c 0,71,72
 881 711 881 711 890 739 c 2,73,-1
 938 884 l 2,74,75
 944 903 944 903 989.5 903 c 128,-1,76
 1035 903 1035 903 1028 884 c 1,77,78
 954 674 954 674 890 418 c 1,79,80
 886 401 886 401 843.5 401 c 128,-1,81
 801 401 801 401 806 418 c 2,82,-1
 840 546 l 2,83,84
 848 574 848 574 830 586 c 0,85,86
 812 598 812 598 772 598 c 2,87,-1
 571 598 l 2,88,89
 550 598 550 598 542 571 c 2,90,-1
 439 223 l 2,91,92
 429 190 429 190 429 156 c 0,93,94
 429 74 429 74 527 78 c 2,95,-1
 817 90 l 2,96,97
 982 97 982 97 1085 382 c 0,98,99
 1090 399 1090 399 1137.5 399 c 128,-1,100
 1185 399 1185 399 1180 382 c 2,101,-1
 1079 21 l 2,0,1
EndSplineSet
Ligature2: "'ccmp' Glyph Composition Decomposition subtable" E uni0328
LCarets2: 1 0 
EndChar

StartChar: eogonek
Encoding: 281 281 216
Width: 751
Flags: MW
AnchorPoint: "Anchor-0" 618 900 basechar 0
LayerCount: 2
Fore
SplineSet
778 713 m 0,0,1
 778 593 778 593 636 497.5 c 128,-1,2
 494 402 494 402 299 356 c 1,3,4
 283 281 283 281 283 252 c 0,5,6
 283 104 283 104 375 104 c 0,7,8
 429 104 429 104 485.5 139 c 128,-1,9
 542 174 542 174 575 207 c 0,10,11
 582 214 582 214 596.5 205.5 c 128,-1,12
 611 197 611 197 621 184.5 c 128,-1,13
 631 172 631 172 625 164 c 0,14,15
 546 71 546 71 456 8.5 c 128,-1,16
 366 -54 366 -54 303.5 -129.5 c 128,-1,17
 241 -205 241 -205 241 -283 c 0,18,19
 241 -324 241 -324 272.5 -348 c 128,-1,20
 304 -372 304 -372 344 -372 c 0,21,22
 403 -372 403 -372 445 -343 c 0,23,24
 452 -338 452 -338 458.5 -356 c 128,-1,25
 465 -374 465 -374 461 -380 c 0,26,27
 376 -487 376 -487 241 -487 c 0,28,29
 157 -487 157 -487 111.5 -445.5 c 128,-1,30
 66 -404 66 -404 66 -333 c 0,31,32
 66 -181 66 -181 289 -26 c 1,33,34
 78 -11 78 -11 78 231 c 0,35,36
 78 423 78 423 253 637.5 c 128,-1,37
 428 852 428 852 610 852 c 0,38,39
 778 852 778 852 778 713 c 0,0,1
575 688 m 0,40,41
 575 754 575 754 531 754 c 0,42,43
 479 754 479 754 423.5 666.5 c 128,-1,44
 368 579 368 579 326 449 c 1,45,46
 414 477 414 477 494.5 543.5 c 128,-1,47
 575 610 575 610 575 688 c 0,40,41
EndSplineSet
Substitution2: "'ss15' ogonek centered on e-1" eogonek.alt
Ligature2: "'ccmp' Glyph Composition Decomposition subtable" e uni0328
LCarets2: 1 0 
EndChar

StartChar: Gcommaaccent
Encoding: 290 290 225
Width: 1476
Flags: MW
LayerCount: 2
Fore
SplineSet
798 -324 m 0,0,1
 798 -406 798 -406 720.5 -460 c 128,-1,2
 643 -514 643 -514 538 -514 c 0,3,4
 380 -514 380 -514 380 -424 c 0,5,6
 380 -395 380 -395 398.5 -375.5 c 128,-1,7
 417 -356 417 -356 446 -356 c 0,8,9
 477 -356 477 -356 521 -394 c 128,-1,10
 565 -432 565 -432 585 -432 c 0,11,12
 604 -432 604 -432 621 -417.5 c 128,-1,13
 638 -403 638 -403 638 -381 c 0,14,15
 638 -287 638 -287 511 -233 c 1,16,-1
 505 -217 l 1,17,-1
 637 -23 l 1,18,19
 448 -4 448 -4 326 108 c 0,20,21
 178 244 178 244 178 448 c 0,22,23
 178 800 178 800 474 1092.5 c 128,-1,24
 770 1385 770 1385 1129 1385 c 0,25,26
 1248 1385 1248 1385 1383.5 1357 c 128,-1,27
 1519 1329 1519 1329 1581 1329 c 1,28,29
 1581 1170 1581 1170 1522 993 c 0,30,31
 1517 978 1517 978 1471 979 c 128,-1,32
 1425 980 1425 980 1427 999 c 0,33,34
 1432 1056 1432 1056 1432 1058 c 0,35,36
 1432 1182 1432 1182 1337 1240.5 c 128,-1,37
 1242 1299 1242 1299 1104 1299 c 0,38,39
 837 1299 837 1299 628 1038.5 c 128,-1,40
 419 778 419 778 419 487 c 0,41,42
 419 283 419 283 511.5 173 c 128,-1,43
 604 63 604 63 752 63 c 0,44,45
 1030 63 1030 63 1075 220 c 2,46,-1
 1123 386 l 2,47,48
 1129 405 1129 405 1129 417 c 0,49,50
 1129 436 1129 436 1113.5 447 c 128,-1,51
 1098 458 1098 458 953 458 c 0,52,53
 945 458 945 458 945 474 c 128,-1,54
 945 490 945 490 953 522 c 128,-1,55
 961 554 961 554 974 554 c 1,56,57
 1031 548 1031 548 1239.5 548 c 128,-1,58
 1448 548 1448 548 1505 554 c 1,59,60
 1513 554 1513 554 1513 538.5 c 128,-1,61
 1513 523 1513 523 1504.5 490.5 c 128,-1,62
 1496 458 1496 458 1484 458 c 0,63,64
 1408 458 1408 458 1383.5 440.5 c 128,-1,65
 1359 423 1359 423 1343 369 c 2,66,-1
 1274 134 l 2,67,68
 1270 119 1270 119 1270 104.5 c 128,-1,69
 1270 90 1270 90 1285 86.5 c 128,-1,70
 1300 83 1300 83 1300 71 c 0,71,72
 1300 29 1300 29 1274 29 c 0,73,74
 1211 29 1211 29 1078 10.5 c 128,-1,75
 945 -8 945 -8 856 -18 c 0,76,77
 786 -25 786 -25 741 -27 c 1,78,-1
 683 -106 l 2,79,80
 671 -123 671 -123 674 -130 c 128,-1,81
 677 -137 677 -137 700 -154 c 0,82,83
 798 -227 798 -227 798 -324 c 0,0,1
EndSplineSet
EndChar

StartChar: hbar
Encoding: 295 295 229
Width: 942
Flags: MW
LayerCount: 2
Fore
SplineSet
932 610 m 0,0,1
 932 473 932 473 865 315 c 0,2,3
 853 287 853 287 831 238 c 0,4,5
 736 27 736 27 591 -17 c 0,6,7
 557 -27 557 -27 522 -27 c 0,8,9
 447 -27 447 -27 404 26 c 0,10,11
 379 57 379 57 379 92 c 0,12,13
 379 167 379 167 431 194 c 0,14,15
 451 204 451 204 477 204 c 0,16,17
 550 204 550 204 571 123 c 0,18,19
 579 90 579 90 604 90 c 0,20,21
 637 90 637 90 677 226 c 0,22,23
 689 268 689 268 696 307 c 0,24,25
 729 467 729 467 729 588 c 0,26,27
 729 653 729 653 696 695 c 0,28,29
 675 721 675 721 647 721 c 0,30,31
 552 721 552 721 401 496 c 0,32,33
 363 439 363 439 317 257 c 0,34,35
 317 256 317 256 313 240 c 2,36,-1
 252 -4 l 2,37,38
 246 -27 246 -27 180 -27 c 0,39,40
 106 -27 106 -27 69 -5 c 0,41,42
 57 2 57 2 57 14 c 2,43,-1
 311 1073 l 1,44,-1
 127 1073 l 2,45,46
 120 1073 120 1073 120 1087 c 0,47,48
 120 1122 120 1122 142 1161 c 0,49,50
 152 1179 152 1179 160 1179 c 2,51,-1
 338 1179 l 1,52,-1
 346 1217 l 2,53,54
 353 1250 353 1250 353 1279 c 0,55,56
 353 1360 353 1360 293 1360 c 0,57,58
 274 1360 274 1360 274 1393 c 2,59,-1
 277 1415 l 2,60,61
 282 1432 282 1432 293 1432 c 0,62,63
 388 1432 388 1432 521 1473 c 0,64,65
 568 1487 568 1487 582 1487 c 0,66,67
 600 1487 600 1487 600 1467 c 0,68,69
 600 1459 600 1459 598 1448 c 2,70,-1
 535 1179 l 1,71,-1
 731 1179 l 2,72,73
 737 1179 737 1179 737 1166 c 2,74,-1
 732 1136 l 1,75,-1
 718 1099 l 2,76,77
 706 1073 706 1073 696 1073 c 2,78,-1
 510 1073 l 1,79,-1
 410 649 l 1,80,-1
 426 639 l 1,81,82
 567 836 567 836 707 851 c 0,83,84
 719 852 719 852 731 852 c 0,85,86
 886 852 886 852 922 700 c 0,87,88
 932 660 932 660 932 610 c 0,0,1
EndSplineSet
EndChar

StartChar: Iogonek
Encoding: 302 302 236
Width: 754
Flags: MW
LayerCount: 2
Fore
SplineSet
441 202 m 2,0,1
 434 177 434 177 434 150 c 0,2,3
 434 86 434 86 583 86 c 0,4,5
 590 86 590 86 590 71.5 c 128,-1,6
 590 57 590 57 580.5 24.5 c 128,-1,7
 571 -8 571 -8 560 -8 c 1,8,9
 512 -3 512 -3 413 -1 c 1,10,11
 213 -175 213 -175 213 -293 c 0,12,13
 213 -367 213 -367 309 -367 c 0,14,15
 370 -367 370 -367 421 -336 c 1,16,17
 439 -343 439 -343 430 -375 c 1,18,19
 323 -488 323 -488 170 -488 c 128,-1,20
 17 -488 17 -488 17 -372 c 0,21,22
 17 -199 17 -199 297 -0 c 1,23,24
 284 0 284 0 271 0 c 0,25,26
 64 0 64 0 -17 -8 c 1,27,28
 -25 -8 -25 -8 -25 5 c 128,-1,29
 -25 18 -25 18 -16.5 52 c 128,-1,30
 -8 86 -8 86 8 86 c 0,31,32
 96 86 96 86 141 109.5 c 128,-1,33
 186 133 186 133 206 202 c 2,34,-1
 478 1154 l 2,35,36
 486 1181 486 1181 486 1217 c 0,37,38
 486 1270 486 1270 346 1270 c 0,39,40
 339 1270 339 1270 339 1283.5 c 128,-1,41
 339 1297 339 1297 350 1330.5 c 128,-1,42
 361 1364 361 1364 372 1364 c 1,43,44
 430 1358 430 1358 658 1358 c 128,-1,45
 886 1358 886 1358 944 1364 c 1,46,47
 952 1364 952 1364 952 1351.5 c 128,-1,48
 952 1339 952 1339 942 1304.5 c 128,-1,49
 932 1270 932 1270 917 1270 c 0,50,51
 807 1270 807 1270 768.5 1240.5 c 128,-1,52
 730 1211 730 1211 714 1154 c 2,53,-1
 441 202 l 2,0,1
EndSplineSet
EndChar

StartChar: dotlessi
Encoding: 305 305 239
Width: 534
Flags: MW
AnchorPoint: "Anchor-0" 415 900 basechar 0
LayerCount: 2
Fore
SplineSet
328 159 m 1,0,1
 330 143 330 143 351 142 c 128,-1,2
 372 141 372 141 427 204 c 0,3,4
 444 224 444 224 458 224 c 128,-1,5
 472 224 472 224 485.5 206 c 128,-1,6
 499 188 499 188 500 180 c 1,7,-1
 498 174 l 1,8,9
 325 -27 325 -27 209 -27 c 0,10,11
 144 -27 144 -27 125 47 c 0,12,13
 109 102 109 102 129 168 c 2,14,-1
 276 647 l 1,15,-1
 279 667 l 1,16,17
 278 688 278 688 257.5 688 c 128,-1,18
 237 688 237 688 164 606 c 0,19,20
 161 603 161 603 149 603 c 128,-1,21
 137 603 137 603 123 622 c 128,-1,22
 109 641 109 641 109 647 c 128,-1,23
 109 653 109 653 111 655 c 0,24,25
 279 852 279 852 399 852 c 0,26,27
 463 852 463 852 483 780 c 0,28,29
 488 762 488 762 489 740 c 2,30,-1
 487 697 l 2,31,32
 484 679 484 679 479 662 c 2,33,-1
 332 180 l 1,34,-1
 328 159 l 1,0,1
EndSplineSet
EndChar

StartChar: Lcommaaccent
Encoding: 315 315 248
Width: 1317
Flags: MW
LayerCount: 2
Fore
SplineSet
661 -324 m 0,0,1
 661 -406 661 -406 583.5 -460 c 128,-1,2
 506 -514 506 -514 401 -514 c 0,3,4
 243 -514 243 -514 243 -424 c 0,5,6
 243 -395 243 -395 261.5 -375.5 c 128,-1,7
 280 -356 280 -356 309 -356 c 0,8,9
 340 -356 340 -356 384 -394 c 128,-1,10
 428 -432 428 -432 448 -432 c 0,11,12
 467 -432 467 -432 484 -417.5 c 128,-1,13
 501 -403 501 -403 501 -381 c 0,14,15
 501 -287 501 -287 374 -233 c 1,16,-1
 368 -217 l 1,17,-1
 515 -2 l 1,18,19
 370 0 370 0 293 0 c 0,20,21
 172 0 172 0 -19 -8 c 0,22,23
 -27 -8 -27 -8 -26.5 4 c 128,-1,24
 -26 16 -26 16 -15 51 c 128,-1,25
 -4 86 -4 86 11 86 c 0,26,27
 136 86 136 86 164.5 119 c 128,-1,28
 193 152 193 152 206 197 c 2,29,-1
 481 1154 l 2,30,31
 489 1180 489 1180 489 1206 c 0,32,33
 489 1270 489 1270 346 1270 c 0,34,35
 339 1270 339 1270 339 1284 c 128,-1,36
 339 1298 339 1298 350 1331 c 128,-1,37
 361 1364 361 1364 372 1364 c 1,38,39
 430 1358 430 1358 665 1358 c 128,-1,40
 900 1358 900 1358 957 1364 c 0,41,42
 963 1364 963 1364 963 1351 c 128,-1,43
 963 1338 963 1338 952.5 1304 c 128,-1,44
 942 1270 942 1270 930 1270 c 0,45,46
 808 1270 808 1270 774.5 1243.5 c 128,-1,47
 741 1217 741 1217 720 1154 c 1,48,-1
 455 241 l 1,49,50
 440 194 440 194 440 160 c 0,51,52
 440 75 440 75 550 78 c 1,53,-1
 867 92 l 2,54,55
 1124 103 1124 103 1205 382 c 0,56,57
 1210 399 1210 399 1259 399 c 128,-1,58
 1308 399 1308 399 1303 382 c 2,59,-1
 1207 48 l 1,60,61
 1196 6 1196 6 1184.5 -1 c 128,-1,62
 1173 -8 1173 -8 1100 -8 c 0,63,64
 1000 -8 1000 -8 707 -4 c 0,65,66
 663 -3 663 -3 622 -3 c 1,67,-1
 546 -106 l 2,68,69
 534 -123 534 -123 537 -130 c 128,-1,70
 540 -137 540 -137 563 -154 c 0,71,72
 661 -227 661 -227 661 -324 c 0,0,1
EndSplineSet
EndChar

StartChar: lcommaaccent
Encoding: 316 316 249
Width: 497
Flags: MW
LayerCount: 2
Fore
SplineSet
271 -324 m 0,0,1
 271 -406 271 -406 193.5 -460 c 128,-1,2
 116 -514 116 -514 11 -514 c 0,3,4
 -147 -514 -147 -514 -147 -424 c 0,5,6
 -147 -395 -147 -395 -128.5 -375.5 c 128,-1,7
 -110 -356 -110 -356 -81 -356 c 0,8,9
 -50 -356 -50 -356 -6 -394 c 128,-1,10
 38 -432 38 -432 58 -432 c 0,11,12
 77 -432 77 -432 94 -417.5 c 128,-1,13
 111 -403 111 -403 111 -381 c 0,14,15
 111 -287 111 -287 -16 -233 c 1,16,-1
 -22 -217 l 1,17,-1
 121 -8 l 1,18,19
 85 22 85 22 85 101 c 0,20,21
 85 127 85 127 92 156 c 2,22,-1
 340 1210 l 2,23,24
 350 1254 350 1254 350 1285 c 0,25,26
 350 1360 350 1360 289 1360 c 0,27,28
 268 1360 268 1360 269 1396 c 128,-1,29
 270 1432 270 1432 289 1432 c 0,30,31
 373 1432 373 1432 469 1459.5 c 128,-1,32
 565 1487 565 1487 573 1487 c 0,33,34
 601 1487 601 1487 592 1448 c 2,35,-1
 296 195 l 2,36,37
 291 174 291 174 291 166 c 0,38,39
 291 142 291 142 311 141 c 0,40,41
 345 141 345 141 403 227 c 0,42,43
 406 233 406 233 414 233 c 0,44,45
 425 233 425 233 444.5 217 c 128,-1,46
 464 201 464 201 464 190 c 0,47,48
 464 186 464 186 461 182 c 0,49,50
 327 4 327 4 218 -22 c 1,51,-1
 156 -106 l 2,52,53
 144 -123 144 -123 147 -130 c 128,-1,54
 150 -137 150 -137 173 -154 c 0,55,56
 271 -227 271 -227 271 -324 c 0,0,1
EndSplineSet
EndChar

